<?xml version="1.0" standalone="no"?>
<!DOCTYPE svg PUBLIC "-//W3C//DTD SVG 1.1//EN" 
"http://www.w3.org/Graphics/SVG/1.1/DTD/svg11.dtd">

<svg viewBox = "0 0 1 1" version="1.1" xmlns="http://www.w3.org/2000/svg">
 <rect x="0" y="0" width="1" height="1" stroke="none" fill="#00317E"/>
<polygon points="519.2000 290.9000 646.8000 292.4000"/> <polygon points="647.8000 765.9000 515.7000 766.7000"/> <polygon points="645.7000 190.4000 768.3000 191.4000"/> <polygon points="774.0000 566.9000 646.0000 575.5000"/> <polygon points="819.5000 159.4000 934.8000 152.0000"/> <polygon points="939.5000 339.7000 819.6000 342.0000"/> <polygon points="329.0000 163.0000 372.3000 162.2000"/> <polygon points="369.2000 318.6000 328.6000 319.4000"/> <polygon points="100.9000 165.8000 195.1000 167.6000"/> <polygon points="195.4000 381.7000 94.4000 383.3000"/> <polygon points="196.5000 34.6000 327.9000 31.0000"/> <polygon points="326.0000 548.6000 195.5000 553.5000"/> <polygon points="370.0000 30.0000 561.8000 34.0000"/> <polygon points="560.2000 485.4000 372.0000 487.7000"/> <polygon points="642.5000 30.0000 761.5000 33.0000"/> <polygon points="770.1000 283.0000 643.0000 286.7000"/> <polygon points="874.9400 34.0000 990.2000 37.0000"/> <polygon points="989.7100 152.0000 880.0000 158.4000"/> <polygon points="36.0000 37.2000 121.6000 37.0000"/> <polygon points="119.6000 165.5000 32.4000 165.1000"/> <polygon points="122.0000 35.0000 251.0000 34.0000"/> <polygon points="249.7000 262.8000 120.6000 263.3000"/> <polygon points="301.0000 33.0000 429.0000 38.0000"/> <polygon points="427.0000 162.0000 300.0000 162.0000"/> <polygon points="539.0000 39.0000 641.0000 31.0000"/> <polygon points="641.0000 292.0000 533.0000 295.0000"/> <polygon points="750.0000 32.0000 875.0000 31.0000"/> <polygon points="878.0000 189.0000 753.0000 192.0000"/> </svg>