<?xml version="1.0" encoding="utf-8"?>
<!-- Generator: Adobe Illustrator 15.1.0, SVG Export Plug-In . SVG Version: 6.00 Build 0)  -->
<!DOCTYPE svg PUBLIC "-//W3C//DTD SVG 1.1//EN" "http://www.w3.org/Graphics/SVG/1.1/DTD/svg11.dtd">
<svg version="1.1" xmlns="http://www.w3.org/2000/svg" xmlns:xlink="http://www.w3.org/1999/xlink" x="0px" y="0px" width="1920px"
	 height="1080px" viewBox="0 0 1920 1080" enable-background="new 0 0 1920 1080" xml:space="preserve">
<g id="Layer_1">
	<line fill="none" stroke="#000000" stroke-miterlimit="10" x1="953.805" y1="396.805" x2="1016.805" y2="506.805"/>
	<line fill="none" stroke="#000000" stroke-miterlimit="10" x1="1016.805" y1="506.805" x2="1079.805" y2="396.805"/>
	<line fill="none" stroke="#000000" stroke-miterlimit="10" x1="1079.805" y1="396.805" x2="953.805" y2="396.805"/>
	<line fill="none" stroke="#000000" stroke-miterlimit="10" x1="1021" y1="506.805" x2="1070" y2="622.805"/>
	<line fill="none" stroke="#EE1C4E" stroke-miterlimit="10" x1="1079.805" y1="626.805" x2="952.805" y2="614.805"/>
	<line fill="#2E3192" stroke="#2E3192" stroke-miterlimit="10" x1="1076.805" y1="624.805" x2="1005" y2="725.805"/>
	<line fill="none" stroke="#EE1C4E" stroke-miterlimit="10" x1="1009" y1="727.805" x2="953.805" y2="614.805"/>
	<line fill="none" stroke="#EE1C4E" stroke-miterlimit="10" x1="952.805" y1="614.805" x2="887" y2="715.805"/>
	<line fill="none" stroke="#EE1C4E" stroke-miterlimit="10" x1="887" y1="715.805" x2="830" y2="610.805"/>
	<line fill="none" stroke="#EE1C4E" stroke-miterlimit="10" x1="826" y1="610.805" x2="951.873" y2="611.805"/>
	<line fill="none" stroke="#EE1C4E" stroke-miterlimit="10" x1="890.437" y1="501.805" x2="1011.31" y2="507.805"/>
	<line fill="none" stroke="#EE1C4E" stroke-miterlimit="10" x1="890.437" y1="501.805" x2="952.805" y2="614.805"/>
	<line fill="none" stroke="#EE1C4E" stroke-miterlimit="10" x1="952.805" y1="614.805" x2="829" y2="604.805"/>
	<line fill="none" stroke="#EE1C4E" stroke-miterlimit="10" x1="827.75" y1="604.805" x2="890.437" y2="506.805"/>
	<line fill="none" stroke="#EE1C4E" stroke-miterlimit="10" x1="890.437" y1="501.805" x2="772" y2="501.805"/>
	<line fill="none" stroke="#EE1C4E" stroke-miterlimit="10" x1="766" y1="503.805" x2="824" y2="605.805"/>
	<line fill="none" stroke="#EE1C4E" stroke-miterlimit="10" x1="887" y1="720.805" x2="767" y2="721.805"/>
	<line fill="none" stroke="#EE1C4E" stroke-miterlimit="10" x1="762" y1="718.805" x2="825" y2="610.805"/>
	<line fill="none" stroke="#EE1C4E" stroke-miterlimit="10" x1="767" y1="721.805" x2="702" y2="604.805"/>
	<line fill="none" stroke="#EE1C4E" stroke-miterlimit="10" x1="704.862" y1="600.163" x2="829" y2="610.805"/>
	<line fill="none" stroke="#EE1C4E" stroke-miterlimit="10" x1="702" y1="604.805" x2="765.5" y2="501.805"/>
	<line fill="none" stroke="#EE1C4E" stroke-miterlimit="10" x1="772" y1="501.805" x2="827" y2="432.805"/>
	<line fill="none" stroke="#EE1C4E" stroke-miterlimit="10" x1="827" y1="432.805" x2="741" y2="412.805"/>
	<line fill="none" stroke="#EE1C4E" stroke-miterlimit="10" x1="738" y1="413.805" x2="769" y2="502.805"/>
	<line fill="none" stroke="#EE1C4E" stroke-miterlimit="10" x1="772" y1="501.805" x2="652" y2="483.805"/>
	<line fill="none" stroke="#EE1C4E" stroke-miterlimit="10" x1="652" y1="483.805" x2="724" y2="390.805"/>
	<line fill="none" stroke="#EE1C4E" stroke-miterlimit="10" x1="724" y1="390.805" x2="637" y2="370.805"/>
	<line fill="none" stroke="#EE1C4E" stroke-miterlimit="10" x1="636" y1="371.805" x2="667" y2="457.305"/>
	<line fill="none" stroke="#EE1C4E" stroke-miterlimit="10" x1="741" y1="400.805" x2="637" y2="347.805"/>
	<line fill="none" stroke="#EE1C4E" stroke-miterlimit="10" x1="637" y1="347.805" x2="741" y2="276.805"/>
	<line fill="none" stroke="#EE1C4E" stroke-miterlimit="10" x1="741" y1="276.805" x2="741" y2="400.805"/>
	<line fill="none" stroke="#EE1C4E" stroke-miterlimit="10" x1="741" y1="330.805" x2="800.5" y2="347.805"/>
	<line fill="none" stroke="#EE1C4E" stroke-miterlimit="10" x1="800.5" y1="347.805" x2="758.5" y2="390.805"/>
	<line fill="none" stroke="#EE1C4E" stroke-miterlimit="10" x1="758" y1="390.805" x2="741" y2="338.805"/>
	<line fill="none" stroke="#EE1C4E" stroke-miterlimit="10" x1="954.873" y1="611.805" x2="1021" y2="506.805"/>
	<line fill="none" stroke="#EE1C4E" stroke-miterlimit="10" x1="767" y1="721.805" x2="680.5" y2="720.805"/>
	<line fill="none" stroke="#EE1C4E" stroke-miterlimit="10" x1="674.5" y1="718.805" x2="724" y2="644.405"/>
	<line fill="none" stroke="#EE1C4E" stroke-miterlimit="10" x1="724" y1="644.405" x2="636" y2="636.805"/>
	<line fill="none" stroke="#EE1C4E" stroke-miterlimit="10" x1="636" y1="636.805" x2="674.5" y2="715.805"/>
	<line fill="none" stroke="#EE1C4E" stroke-miterlimit="10" x1="641" y1="492.805" x2="702" y2="604.805"/>
	<line fill="none" stroke="#EE1C4E" stroke-miterlimit="10" x1="677.219" y1="561.305" x2="590" y2="723.805"/>
	<line fill="none" stroke="#EE1C4E" stroke-miterlimit="10" x1="614" y1="553.305" x2="647.43" y2="614.805"/>
	<line fill="none" stroke="#EE1C4E" stroke-miterlimit="10" x1="614" y1="553.305" x2="677.219" y2="559.305"/>
	<line fill="none" stroke="#EE1C4E" stroke-miterlimit="10" x1="647.43" y1="614.805" x2="524" y2="618.805"/>
	<line fill="none" stroke="#EE1C4E" stroke-miterlimit="10" x1="524" y1="618.805" x2="585.715" y2="507.805"/>
	<line fill="none" stroke="#EE1C4E" stroke-miterlimit="10" x1="585.715" y1="507.805" x2="614" y2="553.305"/>
	<line fill="none" stroke="#EE1C4E" stroke-miterlimit="10" x1="584.715" y1="509.805" x2="461" y2="509.805"/>
	<line fill="none" stroke="#EE1C4E" stroke-miterlimit="10" x1="590" y1="721.805" x2="671.5" y2="727.805"/>
	<line fill="none" stroke="#EE1C4E" stroke-miterlimit="10" x1="685" y1="724.805" x2="723.75" y2="802.805"/>
	<line fill="none" stroke="#EE1C4E" stroke-miterlimit="10" x1="720.75" y1="801.805" x2="767.5" y2="726.805"/>
	<line fill="none" stroke="#EE1C4E" stroke-miterlimit="10" x1="723.75" y1="802.805" x2="736.625" y2="824.805"/>
	<line fill="none" stroke="#EE1C4E" stroke-miterlimit="10" x1="738.625" y1="823.805" x2="614" y2="818.805"/>
	<line fill="none" stroke="#EE1C4E" stroke-miterlimit="10" x1="614" y1="818.805" x2="680.5" y2="720.805"/>
	<path fill="none" stroke="#EE1C4E" stroke-miterlimit="10" d="M609,832.805"/>
	<line fill="none" stroke="#EE1C4E" stroke-miterlimit="10" x1="609" y1="832.805" x2="548" y2="721.805"/>
	<line fill="none" stroke="#EE1C4E" stroke-miterlimit="10" x1="548" y1="721.805" x2="590" y2="721.805"/>
	<line fill="none" stroke="#EE1C4E" stroke-miterlimit="10" x1="548" y1="721.805" x2="524" y2="724.805"/>
	<line fill="none" stroke="#EE1C4E" stroke-miterlimit="10" x1="521" y1="723.805" x2="510" y2="744.805"/>
	<line fill="none" stroke="#EE1C4E" stroke-miterlimit="10" x1="510" y1="749.805" x2="462" y2="671.305"/>
	<line fill="none" stroke="#EE1C4E" stroke-miterlimit="10" x1="462" y1="671.305" x2="548" y2="671.305"/>
	<line fill="none" stroke="#EE1C4E" stroke-miterlimit="10" x1="386" y1="715.805" x2="389" y2="654.805"/>
	<line fill="none" stroke="#EE1C4E" stroke-miterlimit="10" x1="389" y1="654.805" x2="335" y2="685.305"/>
	<line fill="none" stroke="#EE1C4E" stroke-miterlimit="10" x1="335" y1="685.305" x2="386" y2="715.805"/>
	<line fill="none" stroke="#EE1C4E" stroke-miterlimit="10" x1="311" y1="604.805" x2="342" y2="604.805"/>
	<line fill="none" stroke="#EE1C4E" stroke-miterlimit="10" x1="342" y1="604.805" x2="323" y2="578.805"/>
	<line fill="none" stroke="#EE1C4E" stroke-miterlimit="10" x1="323" y1="578.805" x2="311" y2="604.805"/>
	<line fill="none" stroke="#EE1C4E" stroke-miterlimit="10" x1="435" y1="607.805" x2="462" y2="563.305"/>
	<line fill="none" stroke="#EE1C4E" stroke-miterlimit="10" x1="462" y1="563.305" x2="486" y2="614.805"/>
	<line fill="none" stroke="#EE1C4E" stroke-miterlimit="10" x1="486" y1="616.805" x2="433" y2="610.805"/>
	<line fill="none" stroke="#EE1C4E" stroke-miterlimit="10" x1="337.5" y1="517.805" x2="386" y2="476.805"/>
	<line fill="none" stroke="#EE1C4E" stroke-miterlimit="10" x1="386" y1="476.805" x2="324.5" y2="455.805"/>
	<line fill="none" stroke="#EE1C4E" stroke-miterlimit="10" x1="324.5" y1="455.805" x2="337" y2="516.805"/>
	<line fill="none" stroke="#EE1C4E" stroke-miterlimit="10" x1="443" y1="467.305" x2="474" y2="407.805"/>
	<line fill="none" stroke="#EE1C4E" stroke-miterlimit="10" x1="473" y1="407.805" x2="505" y2="464.555"/>
	<line fill="none" stroke="#EE1C4E" stroke-miterlimit="10" x1="505" y1="464.555" x2="443" y2="467.305"/>
	<line fill="none" stroke="#EE1C4E" stroke-miterlimit="10" x1="669.248" y1="544.67" x2="614" y2="540"/>
	<line fill="none" stroke="#EE1C4E" stroke-miterlimit="10" x1="614" y1="540" x2="641" y2="492.805"/>
	<line fill="none" stroke="#EE1C4E" stroke-miterlimit="10" x1="569" y1="467.305" x2="652" y2="467.305"/>
	<line fill="none" stroke="#EE1C4E" stroke-miterlimit="10" x1="569" y1="467.305" x2="614" y2="540"/>
	<line fill="none" stroke="#EE1C4E" stroke-miterlimit="10" x1="658.25" y1="467.305" x2="641" y2="492.805"/>
	<line fill="none" stroke="#EE1C4E" stroke-miterlimit="10" x1="800.5" y1="347.805" x2="827" y2="432.805"/>
	<line fill="none" stroke="#EE1C4E" stroke-miterlimit="10" x1="815.841" y1="446.805" x2="846" y2="501.805"/>
	<line fill="none" stroke="#EE1C4E" stroke-miterlimit="10" x1="953.805" y1="396.805" x2="890.437" y2="501.805"/>
	<line fill="none" stroke="#EE1C4E" stroke-miterlimit="10" x1="953.805" y1="396.805" x2="1021" y2="506.805"/>
	<line fill="none" stroke="#EE1C4E" stroke-miterlimit="10" x1="1021" y1="506.805" x2="1079.805" y2="396.805"/>
	<line fill="none" stroke="#EE1C4E" stroke-miterlimit="10" x1="1140" y1="319.805" x2="1088" y2="385.805"/>
	<line fill="none" stroke="#EE1C4E" stroke-miterlimit="10" x1="1088" y1="385.805" x2="1173" y2="400.805"/>
	<line fill="none" stroke="#EE1C4E" stroke-miterlimit="10" x1="1140" y1="319.805" x2="1173" y2="400.805"/>
	<line fill="none" stroke="#EE1C4E" stroke-miterlimit="10" x1="1173" y1="400.805" x2="1125" y2="467.305"/>
	<line fill="none" stroke="#EE1C4E" stroke-miterlimit="10" x1="1117" y1="466.305" x2="1083" y2="390.305"/>
	<line fill="none" stroke="#EE1C4E" stroke-miterlimit="10" x1="1122" y1="474.305" x2="1038.374" y2="474.305"/>
	<line fill="none" stroke="#EE1C4E" stroke-miterlimit="10" x1="1034.374" y1="474.305" x2="1074.805" y2="551.305"/>
	<line fill="none" stroke="#EE1C4E" stroke-miterlimit="10" x1="1075.444" y1="548.805" x2="1122" y2="474.305"/>
	<line fill="none" stroke="#EE1C4E" stroke-miterlimit="10" x1="1124" y1="475.055" x2="1210" y2="480.055"/>
	<line fill="none" stroke="#EE1C4E" stroke-miterlimit="10" x1="1210" y1="480.055" x2="1173" y2="400.805"/>
	<line fill="none" stroke="#EE1C4E" stroke-miterlimit="10" x1="882" y1="393.305" x2="890.437" y2="457.305"/>
	<line fill="none" stroke="#EE1C4E" stroke-miterlimit="10" x1="882" y1="393.305" x2="832.219" y2="429.305"/>
	<line fill="none" stroke="#EE1C4E" stroke-miterlimit="10" x1="832.219" y1="429.305" x2="890.437" y2="457.305"/>
	<line fill="none" stroke="#EE1C4E" stroke-miterlimit="10" x1="1199" y1="373.805" x2="1181" y2="325.805"/>
	<line fill="none" stroke="#EE1C4E" stroke-miterlimit="10" x1="1202" y1="373.805" x2="1238" y2="333.805"/>
	<line fill="none" stroke="#EE1C4E" stroke-miterlimit="10" x1="1238" y1="330.805" x2="1183" y2="325.805"/>
	<line fill="none" stroke="#EE1C4E" stroke-miterlimit="10" x1="1257" y1="412.805" x2="1240" y2="364.805"/>
	<line fill="none" stroke="#EE1C4E" stroke-miterlimit="10" x1="1242" y1="364.805" x2="1293" y2="370.805"/>
	<line fill="none" stroke="#EE1C4E" stroke-miterlimit="10" x1="1293" y1="370.805" x2="1259" y2="412.805"/>
	<line fill="none" stroke="#EE1C4E" stroke-miterlimit="10" x1="1259" y1="412.555" x2="1225" y2="461.805"/>
	<line fill="none" stroke="#EE1C4E" stroke-miterlimit="10" x1="1228" y1="461.805" x2="1289" y2="467.305"/>
	<line fill="none" stroke="#EE1C4E" stroke-miterlimit="10" x1="1289" y1="467.305" x2="1261" y2="412.805"/>
	<line fill="none" stroke="#EE1C4E" stroke-miterlimit="10" x1="1287" y1="469.305" x2="1258" y2="520.805"/>
	<line fill="none" stroke="#EE1C4E" stroke-miterlimit="10" x1="1256" y1="520.805" x2="1223" y2="466.305"/>
	<line fill="none" stroke="#EE1C4E" stroke-miterlimit="10" x1="1227" y1="464.305" x2="1289" y2="466.305"/>
	<line fill="none" stroke="#EE1C4E" stroke-miterlimit="10" x1="1140.75" y1="511.805" x2="1132.5" y2="570.805"/>
	<line fill="none" stroke="#EE1C4E" stroke-miterlimit="10" x1="1130.5" y1="570.805" x2="1197" y2="553.305"/>
	<line fill="none" stroke="#EE1C4E" stroke-miterlimit="10" x1="1196" y1="553.305" x2="1140.75" y2="511.805"/>
	<line fill="none" stroke="#EE1C4E" stroke-miterlimit="10" x1="887" y1="720.805" x2="824" y2="824.805"/>
	<line fill="none" stroke="#EE1C4E" stroke-miterlimit="10" x1="822" y1="823.805" x2="767" y2="721.805"/>
	<line fill="none" stroke="#EE1C4E" stroke-miterlimit="10" x1="767" y1="721.805" x2="887" y2="720.805"/>
	<line fill="none" stroke="#EE1C4E" stroke-miterlimit="10" x1="479.25" y1="783.805" x2="457" y2="844.805"/>
	<line fill="none" stroke="#EE1C4E" stroke-miterlimit="10" x1="457" y1="844.805" x2="416" y2="792.805"/>
	<line fill="none" stroke="#EE1C4E" stroke-miterlimit="10" x1="417" y1="791.805" x2="479.25" y2="783.805"/>
	<line fill="none" stroke="#EE1C4E" stroke-miterlimit="10" x1="476.25" y1="735.31" x2="471.143" y2="685.305"/>
	<line fill="none" stroke="#EE1C4E" stroke-miterlimit="10" x1="471.143" y1="684.305" x2="432.681" y2="720.805"/>
	<line fill="none" stroke="#EE1C4E" stroke-miterlimit="10" x1="432.681" y1="720.805" x2="476.25" y2="735.31"/>
	<line fill="none" stroke="#EE1C4E" stroke-miterlimit="10" x1="630.75" y1="347.805" x2="621" y2="218.805"/>
	<line fill="none" stroke="#EE1C4E" stroke-miterlimit="10" x1="734.5" y1="281.243" x2="625.875" y2="226.805"/>
	<line fill="none" stroke="#EE1C4E" stroke-miterlimit="10" x1="581" y1="721.805" x2="524" y2="618.805"/>
	<line fill="none" stroke="#EE1C4E" stroke-miterlimit="10" x1="522.25" y1="618.805" x2="458" y2="509.555"/>
	<line fill="none" stroke="#EE1C4E" stroke-miterlimit="10" x1="323" y1="760.805" x2="342" y2="773.805"/>
	<line fill="none" stroke="#EE1C4E" stroke-miterlimit="10" x1="342" y1="773.805" x2="317" y2="784.805"/>
	<line fill="none" stroke="#EE1C4E" stroke-miterlimit="10" x1="317" y1="784.805" x2="323" y2="760.805"/>
	<line fill="none" stroke="#EE1C4E" stroke-miterlimit="10" x1="636.747" y1="633.32" x2="720.254" y2="639.605"/>
</g>
<g id="Layer_2">
	<line fill="none" stroke="#2E3192" stroke-miterlimit="10" x1="510" y1="558.305" x2="584.715" y2="509.805"/>
	<line fill="none" stroke="#2E3192" stroke-miterlimit="10" x1="510" y1="558.305" x2="461" y2="514.656"/>
	<line fill="none" stroke="#2E3192" stroke-miterlimit="10" x1="510" y1="558.305" x2="521" y2="611.805"/>
	<line fill="none" stroke="#2E3192" stroke-miterlimit="10" x1="569" y1="591.805" x2="584.715" y2="509.805"/>
	<line fill="none" stroke="#2E3192" stroke-miterlimit="10" x1="569" y1="591.805" x2="641.624" y2="618.805"/>
	<line fill="none" stroke="#2E3192" stroke-miterlimit="10" x1="569" y1="591.805" x2="522.25" y2="618.805"/>
	<line fill="none" stroke="#2E3192" stroke-miterlimit="10" x1="569" y1="664.805" x2="641.624" y2="618.805"/>
	<line fill="none" stroke="#2E3192" stroke-miterlimit="10" x1="569" y1="664.805" x2="522.25" y2="618.805"/>
	<line fill="none" stroke="#2E3192" stroke-miterlimit="10" x1="569" y1="664.805" x2="585" y2="721.805"/>
	<line fill="none" stroke="#2E3192" stroke-miterlimit="10" x1="625" y1="702.555" x2="636.747" y2="641.805"/>
	<line fill="none" stroke="#2E3192" stroke-miterlimit="10" x1="625" y1="702.555" x2="674.5" y2="718.805"/>
	<line fill="none" stroke="#2E3192" stroke-miterlimit="10" x1="625" y1="702.555" x2="590" y2="721.805"/>
	<line fill="none" stroke="#2E3192" stroke-miterlimit="10" x1="599.857" y1="777.305" x2="667" y2="727.805"/>
	<line fill="none" stroke="#2E3192" stroke-miterlimit="10" x1="599.857" y1="777.305" x2="552.5" y2="724.805"/>
	<line fill="none" stroke="#2E3192" stroke-miterlimit="10" x1="599.857" y1="777.305" x2="609" y2="832.805"/>
	<line fill="none" stroke="#2E3192" stroke-miterlimit="10" x1="669.248" y1="802.805" x2="680.5" y2="720.805"/>
	<line fill="none" stroke="#2E3192" stroke-miterlimit="10" x1="669.248" y1="802.805" x2="736.625" y2="818.805"/>
	<line fill="none" stroke="#2E3192" stroke-miterlimit="10" x1="669.248" y1="802.805" x2="614" y2="818.805"/>
	<line fill="none" stroke="#2E3192" stroke-miterlimit="10" x1="474" y1="784.805" x2="445" y2="812.805"/>
	<line fill="none" stroke="#2E3192" stroke-miterlimit="10" x1="445" y1="812.805" x2="417" y2="791.805"/>
	<line fill="none" stroke="#2E3192" stroke-miterlimit="10" x1="456.912" y1="844.352" x2="445" y2="812.805"/>
	<line fill="none" stroke="#2E3192" stroke-miterlimit="10" x1="456.912" y1="720.805" x2="471.143" y2="685.305"/>
	<line fill="none" stroke="#2E3192" stroke-miterlimit="10" x1="456.912" y1="720.805" x2="432.681" y2="720.805"/>
	<line fill="none" stroke="#2E3192" stroke-miterlimit="10" x1="456.912" y1="720.805" x2="476.25" y2="735.31"/>
	<line fill="none" stroke="#2E3192" stroke-miterlimit="10" x1="362" y1="693.305" x2="389" y2="654.805"/>
	<line fill="none" stroke="#2E3192" stroke-miterlimit="10" x1="362" y1="693.305" x2="386" y2="715.805"/>
	<line fill="none" stroke="#2E3192" stroke-miterlimit="10" x1="362" y1="693.305" x2="335" y2="685.305"/>
	<line fill="none" stroke="#2E3192" stroke-miterlimit="10" x1="323" y1="773.805" x2="342" y2="773.805"/>
	<line fill="none" stroke="#2E3192" stroke-miterlimit="10" x1="323" y1="773.805" x2="323" y2="760.805"/>
	<line fill="none" stroke="#2E3192" stroke-miterlimit="10" x1="323" y1="773.805" x2="317" y2="784.805"/>
	<line fill="none" stroke="#2E3192" stroke-miterlimit="10" x1="454.465" y1="600.163" x2="459.5" y2="567.425"/>
	<line fill="none" stroke="#2E3192" stroke-miterlimit="10" x1="454.465" y1="600.163" x2="486" y2="614.805"/>
	<line fill="none" stroke="#2E3192" stroke-miterlimit="10" x1="454.465" y1="600.163" x2="435" y2="607.805"/>
	<line fill="none" stroke="#2E3192" stroke-miterlimit="10" x1="466.581" y1="455.805" x2="473" y2="407.805"/>
	<line fill="none" stroke="#2E3192" stroke-miterlimit="10" x1="466.581" y1="455.805" x2="505" y2="464.555"/>
	<line fill="none" stroke="#2E3192" stroke-miterlimit="10" x1="466.581" y1="455.805" x2="443" y2="467.305"/>
	<line fill="none" stroke="#2E3192" stroke-miterlimit="10" x1="342" y1="486.305" x2="386" y2="476.805"/>
	<line fill="none" stroke="#2E3192" stroke-miterlimit="10" x1="342" y1="486.305" x2="330.75" y2="455.805"/>
	<line fill="none" stroke="#2E3192" stroke-miterlimit="10" x1="342" y1="486.305" x2="337" y2="516.805"/>
	<line fill="none" stroke="#2E3192" stroke-miterlimit="10" x1="605.313" y1="497.305" x2="652" y2="467.305"/>
	<line fill="none" stroke="#2E3192" stroke-miterlimit="10" x1="605.313" y1="497.305" x2="569" y2="467.305"/>
	<line fill="none" stroke="#2E3192" stroke-miterlimit="10" x1="605.313" y1="497.305" x2="614" y2="540"/>
	<line fill="none" stroke="#2E3192" stroke-miterlimit="10" x1="637" y1="534.055" x2="641" y2="497.305"/>
	<line fill="none" stroke="#2E3192" stroke-miterlimit="10" x1="637" y1="534.055" x2="669.248" y2="544.67"/>
	<line fill="none" stroke="#2E3192" stroke-miterlimit="10" x1="637" y1="534.055" x2="614" y2="540"/>
	<line fill="none" stroke="#2E3192" stroke-miterlimit="10" x1="639" y1="578.805" x2="677.219" y2="559.305"/>
	<line fill="none" stroke="#2E3192" stroke-miterlimit="10" x1="639" y1="578.805" x2="614" y2="553.305"/>
	<line fill="none" stroke="#2E3192" stroke-miterlimit="10" x1="639" y1="578.805" x2="645.609" y2="607.484"/>
	<line fill="none" stroke="#2E3192" stroke-miterlimit="10" x1="671.5" y1="620.805" x2="677.219" y2="561.305"/>
	<line fill="none" stroke="#2E3192" stroke-miterlimit="10" x1="671.5" y1="620.805" x2="720.254" y2="639.605"/>
	<line fill="none" stroke="#2E3192" stroke-miterlimit="10" x1="671.5" y1="620.805" x2="636.747" y2="633.32"/>
	<line fill="none" stroke="#2E3192" stroke-miterlimit="10" x1="669.248" y1="674.055" x2="636.747" y2="641.805"/>
	<line fill="none" stroke="#2E3192" stroke-miterlimit="10" x1="669.248" y1="674.055" x2="724" y2="644.405"/>
	<line fill="none" stroke="#2E3192" stroke-miterlimit="10" x1="669.248" y1="674.055" x2="674.359" y2="710.68"/>
	<line fill="none" stroke="#2E3192" stroke-miterlimit="10" x1="720.254" y1="761.805" x2="767.5" y2="726.805"/>
	<line fill="none" stroke="#2E3192" stroke-miterlimit="10" x1="720.254" y1="761.805" x2="685" y2="724.805"/>
	<line fill="none" stroke="#2E3192" stroke-miterlimit="10" x1="720.254" y1="761.805" x2="720.254" y2="795.768"/>
	<line fill="none" stroke="#2E3192" stroke-miterlimit="10" x1="545.625" y1="712.18" x2="548" y2="671.305"/>
	<line fill="none" stroke="#2E3192" stroke-miterlimit="10" x1="545.625" y1="712.18" x2="581" y2="721.805"/>
	<line fill="none" stroke="#2E3192" stroke-miterlimit="10" x1="545.625" y1="712.18" x2="521" y2="723.805"/>
	<line fill="none" stroke="#2E3192" stroke-miterlimit="10" x1="499" y1="702.555" x2="548" y2="671.305"/>
	<line fill="none" stroke="#2E3192" stroke-miterlimit="10" x1="499" y1="702.555" x2="469.791" y2="675.305"/>
	<line fill="none" stroke="#2E3192" stroke-miterlimit="10" x1="499" y1="702.555" x2="510" y2="749.805"/>
	<line fill="none" stroke="#2E3192" stroke-miterlimit="10" x1="712" y1="704.555" x2="674.5" y2="715.805"/>
	<line fill="none" stroke="#2E3192" stroke-miterlimit="10" x1="712" y1="704.555" x2="724" y2="644.405"/>
	<line fill="none" stroke="#2E3192" stroke-miterlimit="10" x1="712" y1="704.555" x2="762" y2="718.805"/>
	<line fill="none" stroke="#2E3192" stroke-miterlimit="10" x1="815.841" y1="767.305" x2="887" y2="720.805"/>
	<line fill="none" stroke="#2E3192" stroke-miterlimit="10" x1="815.841" y1="767.305" x2="822" y2="823.805"/>
	<line fill="none" stroke="#2E3192" stroke-miterlimit="10" x1="815.841" y1="767.305" x2="767" y2="721.805"/>
	<line fill="none" stroke="#2E3192" stroke-miterlimit="10" x1="1009" y1="666.305" x2="1076.805" y2="624.805"/>
	<line fill="none" stroke="#2E3192" stroke-miterlimit="10" x1="1011.31" y1="670.055" x2="1005.581" y2="720.805"/>
	<line fill="none" stroke="#2E3192" stroke-miterlimit="10" x1="1011.31" y1="670.055" x2="953.805" y2="614.805"/>
	<line fill="none" stroke="#2E3192" stroke-miterlimit="10" x1="882" y1="659.23" x2="953.805" y2="614.805"/>
	<line fill="none" stroke="#2E3192" stroke-miterlimit="10" x1="882" y1="659.23" x2="830" y2="610.805"/>
	<line fill="none" stroke="#2E3192" stroke-miterlimit="10" x1="882" y1="659.23" x2="887" y2="715.805"/>
	<line fill="none" stroke="#2E3192" stroke-miterlimit="10" x1="815.841" y1="695.43" x2="825" y2="610.805"/>
	<line fill="none" stroke="#2E3192" stroke-miterlimit="10" x1="815.841" y1="695.43" x2="887" y2="715.805"/>
	<line fill="none" stroke="#2E3192" stroke-miterlimit="10" x1="815.841" y1="695.43" x2="762" y2="718.805"/>
	<line fill="none" stroke="#2E3192" stroke-miterlimit="10" x1="753.5" y1="645.555" x2="762" y2="718.805"/>
	<line fill="none" stroke="#2E3192" stroke-miterlimit="10" x1="754.378" y1="653.118" x2="824" y2="605.805"/>
	<line fill="none" stroke="#2E3192" stroke-miterlimit="10" x1="754.378" y1="653.118" x2="702" y2="604.805"/>
	<line fill="none" stroke="#2E3192" stroke-miterlimit="10" x1="754.378" y1="578.805" x2="825" y2="610.805"/>
	<line fill="none" stroke="#2E3192" stroke-miterlimit="10" x1="754.378" y1="578.805" x2="766" y2="503.805"/>
	<line fill="none" stroke="#2E3192" stroke-miterlimit="10" x1="754.378" y1="578.805" x2="704.862" y2="600.163"/>
	<line fill="none" stroke="#2E3192" stroke-miterlimit="10" x1="693.25" y1="541.305" x2="765.5" y2="501.805"/>
	<line fill="none" stroke="#2E3192" stroke-miterlimit="10" x1="693.25" y1="541.305" x2="645.609" y2="495.055"/>
	<line fill="none" stroke="#2E3192" stroke-miterlimit="10" x1="693.25" y1="541.305" x2="699.25" y2="599.756"/>
	<line fill="none" stroke="#2E3192" stroke-miterlimit="10" x1="704.862" y1="467.305" x2="769" y2="502.805"/>
	<line fill="none" stroke="#2E3192" stroke-miterlimit="10" x1="704.862" y1="467.305" x2="720.75" y2="396.805"/>
	<line fill="none" stroke="#2E3192" stroke-miterlimit="10" x1="704.862" y1="467.305" x2="652" y2="483.805"/>
	<line fill="none" stroke="#2E3192" stroke-miterlimit="10" x1="667" y1="411.305" x2="724" y2="390.805"/>
	<line fill="none" stroke="#2E3192" stroke-miterlimit="10" x1="667" y1="411.305" x2="636" y2="371.805"/>
	<line fill="none" stroke="#2E3192" stroke-miterlimit="10" x1="667" y1="411.305" x2="667" y2="457.305"/>
	<line fill="none" stroke="#2E3192" stroke-miterlimit="10" x1="772" y1="455.805" x2="822" y2="436.18"/>
	<line fill="none" stroke="#2E3192" stroke-miterlimit="10" x1="772" y1="455.805" x2="741" y2="412.805"/>
	<line fill="none" stroke="#2E3192" stroke-miterlimit="10" x1="772" y1="455.805" x2="769" y2="502.805"/>
	<line fill="none" stroke="#2E3192" stroke-miterlimit="10" x1="809" y1="486.305" x2="815.841" y2="446.805"/>
	<line fill="none" stroke="#2E3192" stroke-miterlimit="10" x1="809" y1="486.305" x2="840" y2="501.555"/>
	<line fill="none" stroke="#2E3192" stroke-miterlimit="10" x1="809" y1="486.305" x2="784" y2="497.305"/>
	<line fill="none" stroke="#2E3192" stroke-miterlimit="10" x1="820.42" y1="544.67" x2="890.437" y2="501.805"/>
	<line fill="none" stroke="#2E3192" stroke-miterlimit="10" x1="820.42" y1="544.67" x2="766" y2="503.805"/>
	<line fill="none" stroke="#2E3192" stroke-miterlimit="10" x1="820.42" y1="544.67" x2="827.75" y2="604.805"/>
	<line fill="none" stroke="#2E3192" stroke-miterlimit="10" x1="882" y1="585.055" x2="887.398" y2="511.555"/>
	<line fill="none" stroke="#2E3192" stroke-miterlimit="10" x1="882" y1="585.055" x2="953.805" y2="614.805"/>
	<line fill="none" stroke="#2E3192" stroke-miterlimit="10" x1="882" y1="585.055" x2="829" y2="604.805"/>
	<line fill="none" stroke="#2E3192" stroke-miterlimit="10" x1="649.75" y1="293.805" x2="625.875" y2="226.805"/>
	<line fill="none" stroke="#2E3192" stroke-miterlimit="10" x1="649.75" y1="293.805" x2="728.189" y2="283.305"/>
	<line fill="none" stroke="#2E3192" stroke-miterlimit="10" x1="649.75" y1="293.805" x2="630.75" y2="347.805"/>
	<line fill="none" stroke="#2E3192" stroke-miterlimit="10" x1="695.877" y1="352.805" x2="734.5" y2="281.243"/>
	<line fill="none" stroke="#2E3192" stroke-miterlimit="10" x1="695.877" y1="352.805" x2="741" y2="400.805"/>
	<line fill="none" stroke="#2E3192" stroke-miterlimit="10" x1="695.877" y1="352.805" x2="642.305" y2="349.805"/>
	<line fill="none" stroke="#2E3192" stroke-miterlimit="10" x1="784" y1="407.805" x2="797" y2="352.805"/>
	<line fill="none" stroke="#2E3192" stroke-miterlimit="10" x1="785.596" y1="401.055" x2="827" y2="432.805"/>
	<line fill="none" stroke="#2E3192" stroke-miterlimit="10" x1="785.596" y1="401.055" x2="741" y2="412.805"/>
	<line fill="none" stroke="#2E3192" stroke-miterlimit="10" x1="861.328" y1="429.305" x2="877.16" y2="396.805"/>
	<line fill="none" stroke="#2E3192" stroke-miterlimit="10" x1="861.328" y1="429.305" x2="890.437" y2="457.305"/>
	<line fill="none" stroke="#2E3192" stroke-miterlimit="10" x1="861.328" y1="429.305" x2="837.417" y2="431.805"/>
	<line fill="none" stroke="#2E3192" stroke-miterlimit="10" x1="950.873" y1="551.305" x2="1016.805" y2="506.805"/>
	<line fill="none" stroke="#2E3192" stroke-miterlimit="10" x1="950.873" y1="551.305" x2="890.437" y2="506.805"/>
	<line fill="none" stroke="#2E3192" stroke-miterlimit="10" x1="950.873" y1="551.305" x2="950.873" y2="605.805"/>
	<line fill="none" stroke="#2E3192" stroke-miterlimit="10" x1="1011.31" y1="594.805" x2="1021" y2="511.805"/>
	<line fill="none" stroke="#2E3192" stroke-miterlimit="10" x1="1011.31" y1="594.805" x2="1070" y2="622.805"/>
	<line fill="none" stroke="#2E3192" stroke-miterlimit="10" x1="1011.31" y1="594.805" x2="951.873" y2="611.805"/>
	<line fill="none" stroke="#2E3192" stroke-miterlimit="10" x1="760.189" y1="360.305" x2="800.5" y2="347.805"/>
	<line fill="none" stroke="#2E3192" stroke-miterlimit="10" x1="760.189" y1="360.305" x2="741" y2="338.805"/>
	<line fill="none" stroke="#2E3192" stroke-miterlimit="10" x1="760.189" y1="360.305" x2="758" y2="390.805"/>
	<line fill="none" stroke="#2E3192" stroke-miterlimit="10" x1="323" y1="599.756" x2="323" y2="578.805"/>
	<line fill="none" stroke="#2E3192" stroke-miterlimit="10" x1="323" y1="599.756" x2="342" y2="604.805"/>
	<line fill="none" stroke="#2E3192" stroke-miterlimit="10" x1="323" y1="599.756" x2="311" y2="604.805"/>
	<line fill="none" stroke="#2E3192" stroke-miterlimit="10" x1="953.805" y1="477.555" x2="1013.798" y2="501.555"/>
	<line fill="none" stroke="#2E3192" stroke-miterlimit="10" x1="953.805" y1="477.555" x2="953.805" y2="396.805"/>
	<line fill="none" stroke="#2E3192" stroke-miterlimit="10" x1="953.805" y1="477.555" x2="890.437" y2="501.805"/>
	<line fill="none" stroke="#2E3192" stroke-miterlimit="10" x1="1016.154" y1="436.18" x2="1074.805" y2="396.805"/>
	<line fill="none" stroke="#2E3192" stroke-miterlimit="10" x1="1016.154" y1="436.18" x2="953.805" y2="396.805"/>
	<line fill="none" stroke="#2E3192" stroke-miterlimit="10" x1="1016.154" y1="436.18" x2="1021" y2="506.805"/>
	<line fill="none" stroke="#2E3192" stroke-miterlimit="10" x1="1075.444" y1="506.805" x2="1124" y2="475.055"/>
	<line fill="none" stroke="#2E3192" stroke-miterlimit="10" x1="1075.444" y1="506.805" x2="1034.374" y2="474.305"/>
	<line fill="none" stroke="#2E3192" stroke-miterlimit="10" x1="1075.444" y1="506.805" x2="1075.444" y2="548.805"/>
	<line fill="none" stroke="#2E3192" stroke-miterlimit="10" x1="1156.5" y1="548.305" x2="1140.75" y2="511.805"/>
	<line fill="none" stroke="#2E3192" stroke-miterlimit="10" x1="1156.5" y1="548.305" x2="1196" y2="553.305"/>
	<line fill="none" stroke="#2E3192" stroke-miterlimit="10" x1="1156.5" y1="548.305" x2="1132.5" y2="570.805"/>
	<line fill="none" stroke="#2E3192" stroke-miterlimit="10" x1="1122" y1="425.305" x2="1083" y2="390.305"/>
	<line fill="none" stroke="#2E3192" stroke-miterlimit="10" x1="1122" y1="425.305" x2="1173" y2="400.805"/>
	<line fill="none" stroke="#2E3192" stroke-miterlimit="10" x1="1122" y1="425.305" x2="1117" y2="466.305"/>
	<line fill="none" stroke="#2E3192" stroke-miterlimit="10" x1="1130.5" y1="374.305" x2="1140" y2="319.805"/>
	<line fill="none" stroke="#2E3192" stroke-miterlimit="10" x1="1130.5" y1="374.305" x2="1163.75" y2="396.805"/>
	<line fill="none" stroke="#2E3192" stroke-miterlimit="10" x1="1130.5" y1="374.305" x2="1088" y2="385.805"/>
	<line fill="none" stroke="#2E3192" stroke-miterlimit="10" x1="1202" y1="347.055" x2="1233" y2="330.805"/>
	<line fill="none" stroke="#2E3192" stroke-miterlimit="10" x1="1202" y1="347.055" x2="1183" y2="325.805"/>
	<line fill="none" stroke="#2E3192" stroke-miterlimit="10" x1="1202" y1="342.805" x2="1199" y2="373.805"/>
	<line fill="none" stroke="#2E3192" stroke-miterlimit="10" x1="1261" y1="385.555" x2="1293" y2="370.805"/>
	<line fill="none" stroke="#2E3192" stroke-miterlimit="10" x1="1267.5" y1="385.805" x2="1242" y2="369.305"/>
	<line fill="none" stroke="#2E3192" stroke-miterlimit="10" x1="1267.5" y1="385.805" x2="1259" y2="406.93"/>
	<line fill="none" stroke="#2E3192" stroke-miterlimit="10" x1="1257" y1="451.805" x2="1259" y2="412.805"/>
	<line fill="none" stroke="#2E3192" stroke-miterlimit="10" x1="1257" y1="451.805" x2="1228" y2="461.805"/>
	<line fill="none" stroke="#2E3192" stroke-miterlimit="10" x1="1257" y1="451.805" x2="1289" y2="466.305"/>
	<line fill="none" stroke="#2E3192" stroke-miterlimit="10" x1="1256" y1="489.555" x2="1287" y2="469.305"/>
	<line fill="none" stroke="#2E3192" stroke-miterlimit="10" x1="1256" y1="489.555" x2="1223" y2="466.305"/>
	<line fill="none" stroke="#2E3192" stroke-miterlimit="10" x1="1256" y1="489.555" x2="1256" y2="520.805"/>
	<line fill="none" stroke="#2E3192" stroke-miterlimit="10" x1="1163.75" y1="460.18" x2="1173" y2="407.805"/>
	<line fill="none" stroke="#2E3192" stroke-miterlimit="10" x1="1163.75" y1="460.18" x2="1124" y2="475.055"/>
	<line fill="none" stroke="#2E3192" stroke-miterlimit="10" x1="1163.75" y1="460.18" x2="1210" y2="480.055"/>
	<line fill="none" stroke="#2E3192" stroke-miterlimit="10" x1="1079.805" y1="455.805" x2="1079.805" y2="396.805"/>
	<line fill="none" stroke="#2E3192" stroke-miterlimit="10" x1="1079.805" y1="455.805" x2="1124" y2="475.055"/>
	<line fill="none" stroke="#2E3192" stroke-miterlimit="10" x1="1079.805" y1="455.805" x2="1034.374" y2="474.305"/>
</g>
<g id="Layer_3">
	<polygon fill="#6CBE45" stroke="#EE1C4E" stroke-miterlimit="10" points="416,792.805 456.912,844.352 445,812.805 	"/>
	<polygon fill="#6CBE45" stroke="#EE1C4E" stroke-miterlimit="10" points="477.5,782.055 456.912,844.352 445,812.805 	"/>
	<polygon fill="#6CBE45" stroke="#EE1C4E" stroke-miterlimit="10" points="416,792.805 475.085,784.34 445.543,812.282 	"/>
</g>
</svg>
