<?xml version="1.0" encoding="utf-8"?>
<!-- Generator: Adobe Illustrator 15.1.0, SVG Export Plug-In . SVG Version: 6.00 Build 0)  -->
<!DOCTYPE svg PUBLIC "-//W3C//DTD SVG 1.1//EN" "http://www.w3.org/Graphics/SVG/1.1/DTD/svg11.dtd">
<svg version="1.1" xmlns="http://www.w3.org/2000/svg" xmlns:xlink="http://www.w3.org/1999/xlink" x="0px" y="0px" width="1920px"
	 height="1080px" viewBox="0 0 1920 1080" enable-background="new 0 0 1920 1080" xml:space="preserve">
<g id="Layer_3">
	<polygon fill="#6CBE45" stroke="#EE1C4E" stroke-miterlimit="10" points="416,792.805 456.912,844.352 445,812.805 	"/>
	<polygon fill="#6CBE45" stroke="#EE1C4E" stroke-miterlimit="10" points="477.5,782.055 456.912,844.352 445,812.805 	"/>
	<polygon fill="#8DC63F" stroke="#EE1C4E" stroke-miterlimit="10" points="416,792.805 475.085,784.34 445.543,812.282 	"/>
	<path fill="#8DC63F" stroke="#EE1C4E" stroke-miterlimit="10" d="M457,757.055"/>
	<polyline fill="#8DC63F" stroke="#EE1C4E" stroke-miterlimit="10" points="363.75,693.305 388.889,657.062 386,713.805 
		360.5,692.861 362,691.743 387.5,656.944 336.771,684.305 	"/>
	<polyline fill="#8DC63F" stroke="#EE1C4E" stroke-miterlimit="10" points="340.484,686.93 382.656,713.805 360.5,692.861 	"/>
	<polyline fill="#8DC63F" stroke="#EE1C4E" stroke-miterlimit="10" points="432.681,720.805 471.143,685.305 469.732,688.474 
		455.348,720.805 	"/>
	<polyline fill="#8DC63F" stroke="#EE1C4E" stroke-miterlimit="10" points="435.685,721.805 456.912,720.805 476.25,735.31 	"/>
	<polyline fill="#8DC63F" stroke="#EE1C4E" stroke-miterlimit="10" points="471.143,685.305 476.147,734.305 457.321,719.784 	"/>
	<polyline fill="#8DC63F" stroke="#EE1C4E" stroke-miterlimit="10" points="323,772.805 323,760.805 342,772.805 	"/>
	<polyline fill="#8DC63F" stroke="#EE1C4E" stroke-miterlimit="10" points="317.545,783.805 323,773.805 342,773.805 	"/>
	<path fill="#8DC63F" stroke="#EE1C4E" stroke-miterlimit="10" d="M323,760.805"/>
	<path fill="#8DC63F" stroke="#EE1C4E" stroke-miterlimit="10" d="M323,760.805"/>
	<polyline fill="#8DC63F" stroke="#EE1C4E" stroke-miterlimit="10" points="317,782.055 323,763.055 323,773.805 	"/>
	<polyline fill="#8DC63F" stroke="#EE1C4E" stroke-miterlimit="10" points="312.165,602.281 323,578.805 323,598.555 	"/>
	<polyline fill="#8DC63F" stroke="#EE1C4E" stroke-miterlimit="10" points="313.25,605.305 323,599.756 341.4,603.984 	"/>
	<polyline fill="#8DC63F" stroke="#EE1C4E" stroke-miterlimit="10" points="323,578.805 340.338,602.531 324.5,599.756 	"/>
	<polyline fill="#8DC63F" stroke="#EE1C4E" stroke-miterlimit="10" points="324.5,455.805 342,486.305 337,516.805 	"/>
	<polyline fill="#8DC63F" stroke="#EE1C4E" stroke-miterlimit="10" points="326,455.805 384.703,477.085 342,485.055 	"/>
	<polyline fill="#8DC63F" stroke="#EE1C4E" stroke-miterlimit="10" points="342,486.305 384.703,477.085 337.5,515.805 	"/>
	<polyline fill="#8DC63F" stroke="#EE1C4E" stroke-miterlimit="10" points="444.797,465.93 466.581,455.805 473,407.805 	"/>
	<polyline fill="#8DC63F" stroke="#EE1C4E" stroke-miterlimit="10" points="465.734,456.261 473.336,408.579 504,463.555 	"/>
	<path fill="#8DC63F" stroke="#EE1C4E" stroke-miterlimit="10" d="M467.25,455.805"/>
	<polyline fill="#8DC63F" stroke="#EE1C4E" stroke-miterlimit="10" points="467.25,455.805 504,463.361 444.797,465.93 	"/>
	<polyline fill="#8DC63F" stroke="#EE1C4E" stroke-miterlimit="10" points="510,558.305 584.715,509.805 458,509.555 	"/>
	<polyline fill="#8DC63F" stroke="#EE1C4E" stroke-miterlimit="10" points="584.25,510.805 522.25,618.805 511.5,558.305 	"/>
	<polyline fill="#8DC63F" stroke="#EE1C4E" stroke-miterlimit="10" points="509,559.305 521.895,616.805 462,514.656 	"/>
	<polyline fill="#8DC63F" stroke="#EE1C4E" stroke-miterlimit="10" points="455.75,599.756 485.5,613.805 462.408,564.18 	"/>
	<polyline fill="#8DC63F" stroke="#EE1C4E" stroke-miterlimit="10" points="455.75,600.759 433,610.805 454.465,600.163 
		462,563.305 436.408,605.484 	"/>
	<polyline fill="#8DC63F" stroke="#EE1C4E" stroke-miterlimit="10" points="454.234,598.984 433,608.805 484.75,613.93 	"/>
	<polyline fill="#8DC63F" stroke="#EE1C4E" stroke-miterlimit="10" points="462,671.305 462.438,671.675 499,702.555 510,748.555 
		463.682,674.055 	"/>
	<polyline fill="#8DC63F" stroke="#EE1C4E" stroke-miterlimit="10" points="499,700.555 546.813,672.18 462,670.055 	"/>
	<polyline fill="#8DC63F" stroke="#EE1C4E" stroke-miterlimit="10" points="511.5,746.805 546.813,674.055 499.75,702.055 	"/>
	<polyline fill="#8DC63F" stroke="#EE1C4E" stroke-miterlimit="10" points="524,618.805 630.715,614.805 569,591.805 	"/>
	<path fill="#8DC63F" stroke="#EE1C4E" stroke-miterlimit="10" d="M641.624,618.805"/>
	<path fill="#8DC63F" stroke="#EE1C4E" stroke-miterlimit="10" d="M585.715,510.805"/>
	<polyline fill="#8DC63F" points="585.715,512.805 644.43,617.305 569.144,593.44 	"/>
	<polyline fill="#8DC63F" points="568,591.055 584.14,512.805 524,615.756 	"/>
	<polyline fill="#8DC63F" points="570.169,665.605 641.805,616.506 525.552,620.685 	"/>
	<polyline fill="#8DC63F" points="586.114,728.4 649.25,614.805 570,666.304 	"/>
	<polyline fill="#8DC63F" points="569,665.605 526.857,623.969 584.715,728.057 	"/>
	<polyline fill="#8DC63F" points="580.5,721.805 548,666.805 545.72,710.555 	"/>
	<path fill="#8DC63F" d="M524,724.805c0.5-1.5,21.625-11,21.625-11l32.875,8"/>
	<polyline fill="#8DC63F" points="524,721.805 545.625,712.18 548,671.602 	"/>
	<polyline fill="#8DC63F" points="674.874,718.993 625.379,701.555 637.503,643.555 	"/>
	<polyline fill="#8DC63F" points="592.684,718.805 636.747,640.605 636.39,642.494 625,702.555 591.818,720.805 624.091,703.055 
		674.359,719.305 	"/>
	<polyline fill="#8DC63F" points="649.75,292.305 627.174,227.457 730.75,281.243 649.75,293.805 630.75,347.805 728.189,283.305 	
		"/>
	<polyline fill="#8DC63F" points="624.75,227.457 649,293.805 630.75,345.305 	"/>
	<polyline fill="#8DC63F" points="695.5,353.305 733.099,282.2 636.813,348.25 	"/>
	<polygon fill="#8DC63F" points="695.75,352.805 734.5,281.243 741,399.305 	"/>
	<polyline fill="#8DC63F" points="642.305,349.805 695.75,352.805 738.057,399.305 	"/>
	<polyline fill="#8DC63F" points="742.311,340.274 760.189,360.305 758,390.305 	"/>
	<polyline fill="#8DC63F" points="799.5,347.805 760.189,359.305 742.311,338.805 	"/>
	<polyline fill="#8DC63F" points="759.095,390.196 798.791,349.555 760.189,360.305 	"/>
	<polyline fill="#8DC63F" points="741,412.805 795.616,352.805 785.596,401.055 	"/>
	<line fill="#8DC63F" x1="825.25" y1="430.555" x2="798.791" y2="349.555"/>
	<polyline fill="#8DC63F" points="637,370.805 721.377,390.805 667,411.305 	"/>
	<path fill="#8DC63F" d="M665.923,454.333"/>
	<polyline fill="#8DC63F" points="772,455.805 825.25,432.805 742.311,413.805 	"/>
	<polyline fill="#8DC63F" points="768.309,499.805 770.5,455.805 741,412.805 	"/>
	<path fill="#8DC63F" d="M822,436.18"/>
	<line fill="#8DC63F" x1="772" y1="501.555" x2="822" y2="436.18"/>
	<polyline fill="#8DC63F" points="766,499.805 705.031,466.555 723.75,389.805 	"/>
	<path fill="#8DC63F" d="M772,499.805"/>
	<polyline fill="#8DC63F" points="704.862,467.305 763.58,499.805 653.124,483.974 	"/>
	<polyline fill="#8DC63F" points="720.75,396.805 705.031,466.555 653.124,482.354 	"/>
	<polyline fill="#8DC63F" points="877.16,397.729 890.238,455.805 862.5,429.305 	"/>
	<polyline fill="#8DC63F" points="809,486.305 815.841,449.305 844.25,501.555 	"/>
	<polyline fill="#8DC63F" points="781.75,494.555 808,486.305 813.848,449.305 	"/>
	<polyline fill="#8DC63F" points="837.417,501.805 809,487.555 784.75,495.555 	"/>
	<polyline fill="#8DC63F" points="767.706,506.805 827.75,604.805 820.42,544.67 	"/>
	<polyline fill="#8DC63F" points="887.398,501.805 767.706,503.805 820.42,543.555 	"/>
	<polyline fill="#8DC63F" points="773,456.305 822,437.18 769.092,501.369 	"/>
	<polyline fill="#8DC63F" points="840,431.535 861.328,429.305 875.883,397.729 837.417,430.555 	"/>
	<line fill="#8DC63F" x1="887.398" y1="454.383" x2="837.417" y2="431.805"/>
	<polyline fill="#8DC63F" points="693.25,540 765.5,501.805 645.609,495.055 	"/>
	<polyline fill="#8DC63F" points="693.25,541.305 763.58,503.653 699.472,600.163 	"/>
	<polyline fill="#8DC63F" points="645.609,496.305 692.25,541.305 697.83,597.148 	"/>
	<polyline fill="#8DC63F" points="605.313,497.305 652,467.305 614,537.028 	"/>
	<polyline fill="#8DC63F" points="570,467.305 649.25,467.305 605.313,496.305 	"/>
	<polyline fill="#8DC63F" points="637.163,532.555 641,497.305 668.641,544.555 	"/>
	<polyline fill="#8DC63F" points="644.609,611.484 614,553.305 639,578.805 	"/>
	<polyline fill="#8DC63F" points="637,534.055 616.467,539.363 665.86,543.555 	"/>
	<polyline fill="#8DC63F" points="669.248,674.055 721.876,645.555 641,643.555 	"/>
	<path fill="#8DC63F" d="M641.805,646.824"/>
	<path fill="#8DC63F" d="M674.874,710.43"/>
	<polyline fill="#8DC63F" points="641.805,646.824 674.255,709.93 668.5,674.055 	"/>
	<polyline fill="#8DC63F" points="721.876,645.555 674.874,710.43 670.25,674.055 	"/>
	<polyline fill="#8DC63F" points="599.857,775.805 666,726.805 552.5,724.805 	"/>
	<polyline fill="#8DC63F" points="667,729.305 601.75,777.305 609,832.805 	"/>
	<polyline fill="#8DC63F" points="552.5,726.18 598.75,777.305 607.5,830.076 	"/>
	<polyline fill="#8DC63F" points="680.157,723.305 669.248,802.805 617,816.805 	"/>
	<polyline fill="#8DC63F" points="669.385,802.805 680.5,721.805 731.943,816.805 	"/>
	<path fill="#8DC63F" d="M618.25,818.805"/>
	<polyline fill="#8DC63F" points="720.75,761.438 765.348,728.4 722.254,797.218 	"/>
	<polyline fill="#8DC63F" points="720.271,761.774 767.5,726.805 685,724.805 	"/>
	<polyline fill="#8DC63F" points="719.491,793.81 719.491,761.004 686.786,728.4 	"/>
	<polyline fill="#8DC63F" points="615.25,819.805 740.113,821.805 669.25,802.555 	"/>
	<polyline fill="#8DC63F" points="722.391,646.824 712,704.555 677.219,714.719 	"/>
	<polyline fill="#8DC63F" points="724,646.824 712,704.555 760.5,717.993 	"/>
	<polyline fill="#8DC63F" points="675.682,716.993 760.5,718.305 712,703.618 	"/>
	<polyline fill="#8DC63F" points="769.146,723.805 815.841,767.305 821.728,821.305 	"/>
	<polyline fill="#8DC63F" points="822,823.805 885.47,721.805 815.841,767.305 	"/>
	<polyline fill="#8DC63F" points="767,721.805 884.5,720.805 815.841,766.055 	"/>
	<polyline fill="#8DC63F" points="703.139,605.305 816.643,610.805 754.5,652.308 	"/>
	<polyline fill="#8DC63F" points="759.891,709.008 703.488,607.484 754.378,653.118 818.026,609.865 762,715.805 	"/>
	<polyline fill="#8DC63F" points="815.841,695.43 825,610.805 763.151,718.305 	"/>
	<polyline fill="#8DC63F" points="885.47,714.719 816.643,695.43 825,610.805 	"/>
	<polyline fill="#8DC63F" points="831.074,611.805 951.873,614.805 882,657.555 	"/>
	<polyline fill="#8DC63F" points="883,659.23 950.873,617.77 887,713.555 	"/>
	<polyline fill="#8DC63F" points="881,659.23 831.713,613.96 885.47,712.986 	"/>
	<polyline fill="#8DC63F" points="955.253,617.77 1010.31,668.055 1005.581,718.805 	"/>
	<polyline fill="#8DC63F" points="955.253,615.037 1008.394,666.305 1072.518,626.117 	"/>
	<polyline fill="#8DC63F" points="1005.581,720.805 1010.31,666.305 1075.383,626.805 	"/>
	<polyline fill="#8DC63F" points="955.503,610.805 1011.31,594.805 1070,622.805 	"/>
	<polyline fill="#8DC63F" points="1069.155,620.805 1011.402,594.014 1021,511.805 	"/>
	<polyline fill="#8DC63F" points="956.133,609.805 1011.31,594.805 1020.883,512.805 	"/>
	<polyline fill="#8DC63F" points="950.873,551.305 951.873,609.805 1018.885,505.776 	"/>
	<polyline fill="#8DC63F" points="950.194,550.805 1013.885,507.805 895.086,510.228 	"/>
	<polyline fill="#8DC63F" points="881.074,585.042 887.398,511.555 830,603.305 	"/>
	<polyline fill="#8DC63F" points="831.713,604.805 882,585.055 944.15,610.805 	"/>
	<polyline fill="#8DC63F" points="887.932,511.555 947.5,611.305 882.5,585.055 	"/>
	<polyline fill="#8DC63F" points="827.75,603.305 888.937,502.805 821,544.727 	"/>
	<polyline fill="#8DC63F" points="754.378,578.805 766,503.805 706.238,598.93 	"/>
	<polyline fill="#8DC63F" points="754.75,578.555 766,504.805 821,607.484 	"/>
	<polyline fill="#8DC63F" points="754.378,578.805 819.643,608.805 706.352,600.163 	"/>
	<polyline fill="#8DC63F" points="605,496.805 570.857,469.555 612.25,536.055 	"/>
	<polyline fill="#8DC63F" points="641,497.305 636,533.555 614.75,540.028 	"/>
	<polyline fill="#8DC63F" points="639.5,577.805 676.255,560.305 647.127,609.305 	"/>
	<polyline fill="#8DC63F" points="639.163,578.805 614.75,554.145 675.75,559.305 	"/>
	<polyline fill="#8DC63F" points="671.5,620.805 677.5,561.659 719.195,639.197 	"/>
	<polyline fill="#8DC63F" points="639.609,631.807 671.641,620.805 676.255,563.305 	"/>
	<polyline fill="#8DC63F" points="639.609,632.749 671.016,620.969 716,638.984 	"/>
	<polyline fill="#8DC63F" points="667.5,411.632 714.807,393.055 667.72,456.305 	"/>
	<polyline fill="#8DC63F" points="637.359,375.555 665.923,456.305 667,411.805 	"/>
	<polyline fill="#8DC63F" points="786,401.805 797.791,349.555 826.5,431.805 	"/>
	<polyline fill="#8DC63F" points="743.5,412.805 784.75,401.305 825.841,431.805 	"/>
	<polyline fill="#8DC63F" points="840,431.805 861.328,430.555 888,455.805 	"/>
	<polyline fill="#8DC63F" points="898.25,513.055 950.764,608.484 950.764,551.305 	"/>
</g>
<g id="Layer_1">
	<line fill="none" stroke="#000000" stroke-miterlimit="10" x1="953.805" y1="396.805" x2="1016.805" y2="506.805"/>
	<line fill="none" stroke="#000000" stroke-miterlimit="10" x1="1016.805" y1="506.805" x2="1079.805" y2="396.805"/>
	<line fill="none" stroke="#000000" stroke-miterlimit="10" x1="1079.805" y1="396.805" x2="953.805" y2="396.805"/>
	<line fill="none" stroke="#000000" stroke-miterlimit="10" x1="1021" y1="506.805" x2="1070" y2="622.805"/>
	<line fill="none" stroke="#EE1C4E" stroke-miterlimit="10" x1="1079.805" y1="626.805" x2="952.805" y2="614.805"/>
	<line fill="#2E3192" stroke="#2E3192" stroke-miterlimit="10" x1="1076.805" y1="624.805" x2="1005" y2="725.805"/>
	<line fill="none" stroke="#EE1C4E" stroke-miterlimit="10" x1="1009" y1="727.805" x2="953.805" y2="614.805"/>
	<line fill="none" stroke="#EE1C4E" stroke-miterlimit="10" x1="952.805" y1="614.805" x2="887" y2="715.805"/>
	<line fill="none" stroke="#EE1C4E" stroke-miterlimit="10" x1="887" y1="715.805" x2="830" y2="610.805"/>
	<line fill="none" stroke="#EE1C4E" stroke-miterlimit="10" x1="826" y1="610.805" x2="951.873" y2="611.805"/>
	<line fill="none" stroke="#EE1C4E" stroke-miterlimit="10" x1="890.437" y1="501.805" x2="1011.31" y2="507.805"/>
	<line fill="none" stroke="#EE1C4E" stroke-miterlimit="10" x1="890.437" y1="501.805" x2="952.805" y2="614.805"/>
	<line fill="none" stroke="#EE1C4E" stroke-miterlimit="10" x1="952.805" y1="614.805" x2="829" y2="604.805"/>
	<line fill="none" stroke="#EE1C4E" stroke-miterlimit="10" x1="827.75" y1="604.805" x2="890.437" y2="506.805"/>
	<line fill="none" stroke="#EE1C4E" stroke-miterlimit="10" x1="890.437" y1="501.805" x2="772" y2="501.805"/>
	<line fill="none" stroke="#EE1C4E" stroke-miterlimit="10" x1="766" y1="503.805" x2="824" y2="605.805"/>
	<line fill="none" stroke="#EE1C4E" stroke-miterlimit="10" x1="887" y1="720.805" x2="767" y2="721.805"/>
	<line fill="none" stroke="#EE1C4E" stroke-miterlimit="10" x1="762" y1="718.805" x2="825" y2="610.805"/>
	<line fill="none" stroke="#EE1C4E" stroke-miterlimit="10" x1="767" y1="721.805" x2="702" y2="604.805"/>
	<line fill="none" stroke="#EE1C4E" stroke-miterlimit="10" x1="704.862" y1="600.163" x2="829" y2="610.805"/>
	<line fill="none" stroke="#EE1C4E" stroke-miterlimit="10" x1="702" y1="604.805" x2="765.5" y2="501.805"/>
	<line fill="none" stroke="#EE1C4E" stroke-miterlimit="10" x1="772" y1="501.805" x2="827" y2="432.805"/>
	<line fill="none" stroke="#EE1C4E" stroke-miterlimit="10" x1="827" y1="432.805" x2="741" y2="412.805"/>
	<line fill="none" stroke="#EE1C4E" stroke-miterlimit="10" x1="738" y1="413.805" x2="769" y2="502.805"/>
	<line fill="none" stroke="#EE1C4E" stroke-miterlimit="10" x1="772" y1="501.805" x2="652" y2="483.805"/>
	<line fill="none" stroke="#EE1C4E" stroke-miterlimit="10" x1="652" y1="483.805" x2="724" y2="390.805"/>
	<line fill="none" stroke="#EE1C4E" stroke-miterlimit="10" x1="724" y1="390.805" x2="637" y2="370.805"/>
	<line fill="none" stroke="#EE1C4E" stroke-miterlimit="10" x1="636" y1="371.805" x2="667" y2="457.305"/>
	<line fill="none" stroke="#EE1C4E" stroke-miterlimit="10" x1="741" y1="400.805" x2="637" y2="347.805"/>
	<line fill="none" stroke="#EE1C4E" stroke-miterlimit="10" x1="637" y1="347.805" x2="741" y2="276.805"/>
	<line fill="none" stroke="#EE1C4E" stroke-miterlimit="10" x1="741" y1="276.805" x2="741" y2="400.805"/>
	<line fill="none" stroke="#EE1C4E" stroke-miterlimit="10" x1="741" y1="330.805" x2="800.5" y2="347.805"/>
	<line fill="none" stroke="#EE1C4E" stroke-miterlimit="10" x1="800.5" y1="347.805" x2="758.5" y2="390.805"/>
	<line fill="none" stroke="#EE1C4E" stroke-miterlimit="10" x1="758" y1="390.805" x2="741" y2="338.805"/>
	<line fill="none" stroke="#EE1C4E" stroke-miterlimit="10" x1="954.873" y1="611.805" x2="1021" y2="506.805"/>
	<line fill="none" stroke="#EE1C4E" stroke-miterlimit="10" x1="767" y1="721.805" x2="680.5" y2="720.805"/>
	<line fill="none" stroke="#EE1C4E" stroke-miterlimit="10" x1="674.5" y1="718.805" x2="724" y2="644.405"/>
	<line fill="none" stroke="#EE1C4E" stroke-miterlimit="10" x1="724" y1="644.405" x2="636" y2="636.805"/>
	<line fill="none" stroke="#EE1C4E" stroke-miterlimit="10" x1="636" y1="636.805" x2="674.5" y2="715.805"/>
	<line fill="none" stroke="#EE1C4E" stroke-miterlimit="10" x1="641" y1="492.805" x2="702" y2="604.805"/>
	<line fill="none" stroke="#EE1C4E" stroke-miterlimit="10" x1="677.219" y1="561.305" x2="590" y2="723.805"/>
	<line fill="none" stroke="#EE1C4E" stroke-miterlimit="10" x1="611" y1="553.305" x2="644.43" y2="614.805"/>
	<line fill="none" stroke="#EE1C4E" stroke-miterlimit="10" x1="614" y1="553.305" x2="677.219" y2="559.305"/>
	<line fill="none" stroke="#EE1C4E" stroke-miterlimit="10" x1="647.43" y1="614.805" x2="524" y2="618.805"/>
	<line fill="none" stroke="#EE1C4E" stroke-miterlimit="10" x1="524" y1="618.805" x2="585.715" y2="507.805"/>
	<line fill="none" stroke="#EE1C4E" stroke-miterlimit="10" x1="583.715" y1="509.805" x2="612" y2="555.305"/>
	<line fill="none" stroke="#EE1C4E" stroke-miterlimit="10" x1="584.715" y1="509.805" x2="461" y2="509.805"/>
	<line fill="none" stroke="#EE1C4E" stroke-miterlimit="10" x1="590" y1="721.805" x2="671.5" y2="727.805"/>
	<line fill="none" stroke="#EE1C4E" stroke-miterlimit="10" x1="685" y1="724.805" x2="723.75" y2="802.805"/>
	<line fill="none" stroke="#EE1C4E" stroke-miterlimit="10" x1="720.75" y1="801.805" x2="767.5" y2="726.805"/>
	<line fill="none" stroke="#EE1C4E" stroke-miterlimit="10" x1="723.75" y1="802.805" x2="736.625" y2="824.805"/>
	<line fill="none" stroke="#EE1C4E" stroke-miterlimit="10" x1="738.625" y1="823.805" x2="614" y2="818.805"/>
	<line fill="none" stroke="#EE1C4E" stroke-miterlimit="10" x1="614" y1="818.805" x2="680.5" y2="720.805"/>
	<path fill="none" stroke="#EE1C4E" stroke-miterlimit="10" d="M609,832.805"/>
	<line fill="none" stroke="#EE1C4E" stroke-miterlimit="10" x1="609" y1="832.805" x2="548" y2="721.805"/>
	<line fill="none" stroke="#EE1C4E" stroke-miterlimit="10" x1="548" y1="721.805" x2="590" y2="721.805"/>
	<line fill="none" stroke="#EE1C4E" stroke-miterlimit="10" x1="548" y1="721.805" x2="524" y2="724.805"/>
	<line fill="none" stroke="#EE1C4E" stroke-miterlimit="10" x1="521" y1="723.805" x2="510" y2="744.805"/>
	<line fill="none" stroke="#EE1C4E" stroke-miterlimit="10" x1="510" y1="749.805" x2="462" y2="671.305"/>
	<line fill="none" stroke="#EE1C4E" stroke-miterlimit="10" x1="462" y1="671.305" x2="548" y2="671.305"/>
	<line fill="none" stroke="#EE1C4E" stroke-miterlimit="10" x1="386" y1="715.805" x2="389" y2="654.805"/>
	<line fill="none" stroke="#EE1C4E" stroke-miterlimit="10" x1="389" y1="654.805" x2="335" y2="685.305"/>
	<line fill="none" stroke="#EE1C4E" stroke-miterlimit="10" x1="335" y1="685.305" x2="386" y2="715.805"/>
	<line fill="none" stroke="#EE1C4E" stroke-miterlimit="10" x1="311" y1="604.805" x2="342" y2="604.805"/>
	<line fill="none" stroke="#EE1C4E" stroke-miterlimit="10" x1="342" y1="604.805" x2="323" y2="578.805"/>
	<line fill="none" stroke="#EE1C4E" stroke-miterlimit="10" x1="323" y1="578.805" x2="311" y2="604.805"/>
	<line fill="none" stroke="#EE1C4E" stroke-miterlimit="10" x1="435" y1="607.805" x2="462" y2="563.305"/>
	<line fill="none" stroke="#EE1C4E" stroke-miterlimit="10" x1="462" y1="563.305" x2="486" y2="614.805"/>
	<line fill="none" stroke="#EE1C4E" stroke-miterlimit="10" x1="337.5" y1="517.805" x2="386" y2="476.805"/>
	<line fill="none" stroke="#EE1C4E" stroke-miterlimit="10" x1="386" y1="476.805" x2="324.5" y2="455.805"/>
	<line fill="none" stroke="#EE1C4E" stroke-miterlimit="10" x1="324.5" y1="455.805" x2="337" y2="516.805"/>
	<line fill="none" stroke="#EE1C4E" stroke-miterlimit="10" x1="443" y1="467.305" x2="474" y2="407.805"/>
	<line fill="none" stroke="#EE1C4E" stroke-miterlimit="10" x1="473" y1="407.805" x2="505" y2="464.555"/>
	<line fill="none" stroke="#EE1C4E" stroke-miterlimit="10" x1="505" y1="464.555" x2="443" y2="467.305"/>
	<line fill="none" stroke="#EE1C4E" stroke-miterlimit="10" x1="669.248" y1="544.67" x2="614" y2="540"/>
	<line fill="none" stroke="#EE1C4E" stroke-miterlimit="10" x1="614" y1="540" x2="641" y2="492.805"/>
	<line fill="none" stroke="#EE1C4E" stroke-miterlimit="10" x1="569" y1="467.305" x2="652" y2="467.305"/>
	<line fill="none" stroke="#EE1C4E" stroke-miterlimit="10" x1="569" y1="467.305" x2="614" y2="540"/>
	<line fill="none" stroke="#EE1C4E" stroke-miterlimit="10" x1="658.25" y1="467.305" x2="641" y2="492.805"/>
	<line fill="none" stroke="#EE1C4E" stroke-miterlimit="10" x1="800.5" y1="347.805" x2="827" y2="432.805"/>
	<line fill="none" stroke="#EE1C4E" stroke-miterlimit="10" x1="815.841" y1="446.805" x2="846" y2="501.805"/>
	<line fill="none" stroke="#EE1C4E" stroke-miterlimit="10" x1="953.805" y1="396.805" x2="890.437" y2="501.805"/>
	<line fill="none" stroke="#EE1C4E" stroke-miterlimit="10" x1="953.805" y1="396.805" x2="1021" y2="506.805"/>
	<line fill="none" stroke="#EE1C4E" stroke-miterlimit="10" x1="1021" y1="506.805" x2="1079.805" y2="396.805"/>
	<line fill="none" stroke="#EE1C4E" stroke-miterlimit="10" x1="1140" y1="319.805" x2="1088" y2="385.805"/>
	<line fill="none" stroke="#EE1C4E" stroke-miterlimit="10" x1="1088" y1="385.805" x2="1173" y2="400.805"/>
	<line fill="none" stroke="#EE1C4E" stroke-miterlimit="10" x1="1140" y1="319.805" x2="1173" y2="400.805"/>
	<line fill="none" stroke="#EE1C4E" stroke-miterlimit="10" x1="1173" y1="400.805" x2="1125" y2="467.305"/>
	<line fill="none" stroke="#EE1C4E" stroke-miterlimit="10" x1="1117" y1="466.305" x2="1083" y2="390.305"/>
	<line fill="none" stroke="#EE1C4E" stroke-miterlimit="10" x1="1122" y1="474.305" x2="1038.374" y2="474.305"/>
	<line fill="none" stroke="#EE1C4E" stroke-miterlimit="10" x1="1034.374" y1="474.305" x2="1074.805" y2="551.305"/>
	<line fill="none" stroke="#EE1C4E" stroke-miterlimit="10" x1="1075.444" y1="548.805" x2="1122" y2="474.305"/>
	<line fill="none" stroke="#EE1C4E" stroke-miterlimit="10" x1="1124" y1="475.055" x2="1210" y2="480.055"/>
	<line fill="none" stroke="#EE1C4E" stroke-miterlimit="10" x1="1210" y1="480.055" x2="1173" y2="400.805"/>
	<line fill="none" stroke="#EE1C4E" stroke-miterlimit="10" x1="882" y1="393.305" x2="890.437" y2="457.305"/>
	<line fill="none" stroke="#EE1C4E" stroke-miterlimit="10" x1="882" y1="393.305" x2="832.219" y2="429.305"/>
	<line fill="none" stroke="#EE1C4E" stroke-miterlimit="10" x1="832.219" y1="429.305" x2="890.437" y2="457.305"/>
	<line fill="none" stroke="#EE1C4E" stroke-miterlimit="10" x1="1199" y1="373.805" x2="1181" y2="325.805"/>
	<line fill="none" stroke="#EE1C4E" stroke-miterlimit="10" x1="1202" y1="373.805" x2="1238" y2="333.805"/>
	<line fill="none" stroke="#EE1C4E" stroke-miterlimit="10" x1="1238" y1="330.805" x2="1183" y2="325.805"/>
	<line fill="none" stroke="#EE1C4E" stroke-miterlimit="10" x1="1257" y1="412.805" x2="1240" y2="364.805"/>
	<line fill="none" stroke="#EE1C4E" stroke-miterlimit="10" x1="1242" y1="364.805" x2="1293" y2="370.805"/>
	<line fill="none" stroke="#EE1C4E" stroke-miterlimit="10" x1="1293" y1="370.805" x2="1259" y2="412.805"/>
	<line fill="none" stroke="#EE1C4E" stroke-miterlimit="10" x1="1259" y1="412.555" x2="1225" y2="461.805"/>
	<line fill="none" stroke="#EE1C4E" stroke-miterlimit="10" x1="1228" y1="461.805" x2="1289" y2="467.305"/>
	<line fill="none" stroke="#EE1C4E" stroke-miterlimit="10" x1="1289" y1="467.305" x2="1261" y2="412.805"/>
	<line fill="none" stroke="#EE1C4E" stroke-miterlimit="10" x1="1287" y1="469.305" x2="1258" y2="520.805"/>
	<line fill="none" stroke="#EE1C4E" stroke-miterlimit="10" x1="1256" y1="520.805" x2="1223" y2="466.305"/>
	<line fill="none" stroke="#EE1C4E" stroke-miterlimit="10" x1="1227" y1="464.305" x2="1289" y2="466.305"/>
	<line fill="none" stroke="#EE1C4E" stroke-miterlimit="10" x1="1140.75" y1="511.805" x2="1132.5" y2="570.805"/>
	<line fill="none" stroke="#EE1C4E" stroke-miterlimit="10" x1="1130.5" y1="570.805" x2="1197" y2="553.305"/>
	<line fill="none" stroke="#EE1C4E" stroke-miterlimit="10" x1="1196" y1="553.305" x2="1140.75" y2="511.805"/>
	<line fill="none" stroke="#EE1C4E" stroke-miterlimit="10" x1="887" y1="720.805" x2="824" y2="824.805"/>
	<line fill="none" stroke="#EE1C4E" stroke-miterlimit="10" x1="822" y1="823.805" x2="767" y2="721.805"/>
	<line fill="none" stroke="#EE1C4E" stroke-miterlimit="10" x1="767" y1="721.805" x2="887" y2="720.805"/>
	<line fill="none" stroke="#EE1C4E" stroke-miterlimit="10" x1="479.25" y1="783.805" x2="457" y2="844.805"/>
	<line fill="none" stroke="#EE1C4E" stroke-miterlimit="10" x1="457" y1="844.805" x2="416" y2="792.805"/>
	<line fill="none" stroke="#EE1C4E" stroke-miterlimit="10" x1="417" y1="791.805" x2="479.25" y2="783.805"/>
	<line fill="none" stroke="#EE1C4E" stroke-miterlimit="10" x1="476.25" y1="735.31" x2="471.143" y2="685.305"/>
	<line fill="none" stroke="#EE1C4E" stroke-miterlimit="10" x1="471.143" y1="684.305" x2="432.681" y2="720.805"/>
	<line fill="none" stroke="#EE1C4E" stroke-miterlimit="10" x1="432.681" y1="720.805" x2="476.25" y2="735.31"/>
	<line fill="none" stroke="#EE1C4E" stroke-miterlimit="10" x1="630.75" y1="347.805" x2="621" y2="218.805"/>
	<line fill="none" stroke="#EE1C4E" stroke-miterlimit="10" x1="734.5" y1="281.243" x2="625.875" y2="226.805"/>
	<line fill="none" stroke="#EE1C4E" stroke-miterlimit="10" x1="581" y1="721.805" x2="524" y2="618.805"/>
	<line fill="none" stroke="#EE1C4E" stroke-miterlimit="10" x1="522.25" y1="618.805" x2="458" y2="509.555"/>
	<line fill="none" stroke="#EE1C4E" stroke-miterlimit="10" x1="323" y1="760.805" x2="342" y2="773.805"/>
	<line fill="none" stroke="#EE1C4E" stroke-miterlimit="10" x1="342" y1="773.805" x2="317" y2="784.805"/>
	<line fill="none" stroke="#EE1C4E" stroke-miterlimit="10" x1="317" y1="784.805" x2="323" y2="760.805"/>
	<line fill="none" stroke="#EE1C4E" stroke-miterlimit="10" x1="636.747" y1="633.32" x2="720.254" y2="639.605"/>
	<line fill="none" stroke="#EE1C4E" stroke-miterlimit="10" x1="521" y1="723.805" x2="546.813" y2="672.18"/>
</g>
<g id="Layer_2">
	<line fill="none" stroke="#2E3192" stroke-miterlimit="10" x1="510" y1="558.305" x2="584.715" y2="509.805"/>
	<line fill="none" stroke="#2E3192" stroke-miterlimit="10" x1="510" y1="558.305" x2="461" y2="514.656"/>
	<line fill="none" stroke="#2E3192" stroke-miterlimit="10" x1="510" y1="558.305" x2="521" y2="611.805"/>
	<line fill="none" stroke="#2E3192" stroke-miterlimit="10" x1="569" y1="591.805" x2="584.715" y2="509.805"/>
	<line fill="none" stroke="#2E3192" stroke-miterlimit="10" x1="569" y1="591.805" x2="641.624" y2="618.805"/>
	<line fill="none" stroke="#2E3192" stroke-miterlimit="10" x1="569" y1="591.805" x2="522.25" y2="618.805"/>
	<line fill="none" stroke="#2E3192" stroke-miterlimit="10" x1="569" y1="664.805" x2="641.624" y2="618.805"/>
	<line fill="none" stroke="#2E3192" stroke-miterlimit="10" x1="569" y1="664.805" x2="522.25" y2="618.805"/>
	<line fill="none" stroke="#2E3192" stroke-miterlimit="10" x1="569" y1="664.805" x2="585" y2="721.805"/>
	<line fill="none" stroke="#2E3192" stroke-miterlimit="10" x1="625" y1="702.555" x2="636.747" y2="641.805"/>
	<line fill="none" stroke="#2E3192" stroke-miterlimit="10" x1="625" y1="702.555" x2="674.5" y2="718.805"/>
	<line fill="none" stroke="#2E3192" stroke-miterlimit="10" x1="625" y1="702.555" x2="590" y2="721.805"/>
	<line fill="none" stroke="#2E3192" stroke-miterlimit="10" x1="599.857" y1="777.305" x2="667" y2="727.805"/>
	<line fill="none" stroke="#2E3192" stroke-miterlimit="10" x1="599.857" y1="777.305" x2="552.5" y2="724.805"/>
	<line fill="none" stroke="#2E3192" stroke-miterlimit="10" x1="599.857" y1="777.305" x2="609" y2="832.805"/>
	<line fill="none" stroke="#2E3192" stroke-miterlimit="10" x1="669.248" y1="802.805" x2="680.5" y2="720.805"/>
	<line fill="none" stroke="#2E3192" stroke-miterlimit="10" x1="669.248" y1="802.805" x2="736.625" y2="818.805"/>
	<line fill="none" stroke="#2E3192" stroke-miterlimit="10" x1="669.248" y1="802.805" x2="614" y2="818.805"/>
	<line fill="none" stroke="#2E3192" stroke-miterlimit="10" x1="474" y1="784.805" x2="445" y2="812.805"/>
	<line fill="none" stroke="#2E3192" stroke-miterlimit="10" x1="445" y1="812.805" x2="417" y2="791.805"/>
	<line fill="none" stroke="#2E3192" stroke-miterlimit="10" x1="456.912" y1="844.352" x2="445" y2="812.805"/>
	<line fill="none" stroke="#2E3192" stroke-miterlimit="10" x1="456.912" y1="720.805" x2="471.143" y2="685.305"/>
	<line fill="none" stroke="#2E3192" stroke-miterlimit="10" x1="456.912" y1="720.805" x2="432.681" y2="720.805"/>
	<line fill="none" stroke="#2E3192" stroke-miterlimit="10" x1="456.912" y1="720.805" x2="476.25" y2="735.31"/>
	<line fill="none" stroke="#2E3192" stroke-miterlimit="10" x1="362" y1="693.305" x2="389" y2="654.805"/>
	<line fill="none" stroke="#2E3192" stroke-miterlimit="10" x1="362" y1="693.305" x2="386" y2="715.805"/>
	<line fill="none" stroke="#2E3192" stroke-miterlimit="10" x1="362" y1="693.305" x2="335" y2="685.305"/>
	<line fill="none" stroke="#2E3192" stroke-miterlimit="10" x1="323" y1="773.805" x2="342" y2="773.805"/>
	<line fill="none" stroke="#2E3192" stroke-miterlimit="10" x1="323" y1="773.805" x2="323" y2="760.805"/>
	<line fill="none" stroke="#2E3192" stroke-miterlimit="10" x1="323" y1="773.805" x2="317" y2="784.805"/>
	<line fill="none" stroke="#2E3192" stroke-miterlimit="10" x1="454.465" y1="600.163" x2="459.5" y2="567.425"/>
	<line fill="none" stroke="#2E3192" stroke-miterlimit="10" x1="454.465" y1="600.163" x2="486" y2="614.805"/>
	<line fill="none" stroke="#2E3192" stroke-miterlimit="10" x1="454.465" y1="600.163" x2="435" y2="607.805"/>
	<line fill="none" stroke="#2E3192" stroke-miterlimit="10" x1="466.581" y1="455.805" x2="473" y2="407.805"/>
	<line fill="none" stroke="#2E3192" stroke-miterlimit="10" x1="466.581" y1="455.805" x2="505" y2="464.555"/>
	<line fill="none" stroke="#2E3192" stroke-miterlimit="10" x1="466.581" y1="455.805" x2="443" y2="467.305"/>
	<line fill="none" stroke="#2E3192" stroke-miterlimit="10" x1="342" y1="486.305" x2="386" y2="476.805"/>
	<line fill="none" stroke="#2E3192" stroke-miterlimit="10" x1="342" y1="486.305" x2="330.75" y2="455.805"/>
	<line fill="none" stroke="#2E3192" stroke-miterlimit="10" x1="342" y1="486.305" x2="337" y2="516.805"/>
	<line fill="none" stroke="#2E3192" stroke-miterlimit="10" x1="605.313" y1="497.305" x2="652" y2="467.305"/>
	<line fill="none" stroke="#2E3192" stroke-miterlimit="10" x1="605.313" y1="497.305" x2="569" y2="467.305"/>
	<line fill="none" stroke="#2E3192" stroke-miterlimit="10" x1="605.313" y1="497.305" x2="614" y2="540"/>
	<line fill="none" stroke="#2E3192" stroke-miterlimit="10" x1="637" y1="534.055" x2="641" y2="497.305"/>
	<line fill="none" stroke="#2E3192" stroke-miterlimit="10" x1="637" y1="534.055" x2="669.248" y2="544.67"/>
	<line fill="none" stroke="#2E3192" stroke-miterlimit="10" x1="637" y1="534.055" x2="614" y2="540"/>
	<line fill="none" stroke="#2E3192" stroke-miterlimit="10" x1="639" y1="578.805" x2="677.219" y2="559.305"/>
	<line fill="none" stroke="#2E3192" stroke-miterlimit="10" x1="639" y1="578.805" x2="614" y2="553.305"/>
	<line fill="none" stroke="#2E3192" stroke-miterlimit="10" x1="639" y1="578.805" x2="645.609" y2="607.484"/>
	<line fill="none" stroke="#2E3192" stroke-miterlimit="10" x1="671.5" y1="620.805" x2="677.219" y2="561.305"/>
	<line fill="none" stroke="#2E3192" stroke-miterlimit="10" x1="671.5" y1="620.805" x2="720.254" y2="639.605"/>
	<line fill="none" stroke="#2E3192" stroke-miterlimit="10" x1="671.5" y1="620.805" x2="636.747" y2="633.32"/>
	<line fill="none" stroke="#2E3192" stroke-miterlimit="10" x1="669.248" y1="674.055" x2="636.747" y2="641.805"/>
	<line fill="none" stroke="#2E3192" stroke-miterlimit="10" x1="669.248" y1="674.055" x2="724" y2="644.405"/>
	<line fill="none" stroke="#2E3192" stroke-miterlimit="10" x1="669.248" y1="674.055" x2="674.359" y2="710.68"/>
	<line fill="none" stroke="#2E3192" stroke-miterlimit="10" x1="720.254" y1="761.805" x2="767.5" y2="726.805"/>
	<line fill="none" stroke="#2E3192" stroke-miterlimit="10" x1="720.254" y1="761.805" x2="685" y2="724.805"/>
	<line fill="none" stroke="#2E3192" stroke-miterlimit="10" x1="720.254" y1="761.805" x2="720.254" y2="795.768"/>
	<line fill="none" stroke="#2E3192" stroke-miterlimit="10" x1="545.625" y1="712.18" x2="548" y2="671.305"/>
	<line fill="none" stroke="#2E3192" stroke-miterlimit="10" x1="545.625" y1="712.18" x2="581" y2="721.805"/>
	<line fill="none" stroke="#2E3192" stroke-miterlimit="10" x1="545.625" y1="712.18" x2="521" y2="723.805"/>
	<line fill="none" stroke="#2E3192" stroke-miterlimit="10" x1="499" y1="702.555" x2="548" y2="671.305"/>
	<line fill="none" stroke="#2E3192" stroke-miterlimit="10" x1="499" y1="702.555" x2="469.791" y2="675.305"/>
	<line fill="none" stroke="#2E3192" stroke-miterlimit="10" x1="499" y1="702.555" x2="510" y2="749.805"/>
	<line fill="none" stroke="#2E3192" stroke-miterlimit="10" x1="712" y1="704.555" x2="674.5" y2="715.805"/>
	<line fill="none" stroke="#2E3192" stroke-miterlimit="10" x1="712" y1="704.555" x2="724" y2="644.405"/>
	<line fill="none" stroke="#2E3192" stroke-miterlimit="10" x1="712" y1="704.555" x2="762" y2="718.805"/>
	<line fill="none" stroke="#2E3192" stroke-miterlimit="10" x1="815.841" y1="767.305" x2="887" y2="720.805"/>
	<line fill="none" stroke="#2E3192" stroke-miterlimit="10" x1="815.841" y1="767.305" x2="822" y2="823.805"/>
	<line fill="none" stroke="#2E3192" stroke-miterlimit="10" x1="815.841" y1="767.305" x2="767" y2="721.805"/>
	<line fill="none" stroke="#2E3192" stroke-miterlimit="10" x1="1009" y1="666.305" x2="1076.805" y2="624.805"/>
	<line fill="none" stroke="#2E3192" stroke-miterlimit="10" x1="1011.31" y1="670.055" x2="1005.581" y2="720.805"/>
	<line fill="none" stroke="#2E3192" stroke-miterlimit="10" x1="1011.31" y1="670.055" x2="953.805" y2="614.805"/>
	<line fill="none" stroke="#2E3192" stroke-miterlimit="10" x1="882" y1="659.23" x2="953.805" y2="614.805"/>
	<line fill="none" stroke="#2E3192" stroke-miterlimit="10" x1="882" y1="659.23" x2="830" y2="610.805"/>
	<line fill="none" stroke="#2E3192" stroke-miterlimit="10" x1="882" y1="659.23" x2="887" y2="715.805"/>
	<line fill="none" stroke="#2E3192" stroke-miterlimit="10" x1="815.841" y1="695.43" x2="825" y2="610.805"/>
	<line fill="none" stroke="#2E3192" stroke-miterlimit="10" x1="815.841" y1="695.43" x2="887" y2="715.805"/>
	<line fill="none" stroke="#2E3192" stroke-miterlimit="10" x1="815.841" y1="695.43" x2="762" y2="718.805"/>
	<line fill="none" stroke="#2E3192" stroke-miterlimit="10" x1="753.5" y1="645.555" x2="762" y2="718.805"/>
	<line fill="none" stroke="#2E3192" stroke-miterlimit="10" x1="754.378" y1="653.118" x2="824" y2="605.805"/>
	<line fill="none" stroke="#2E3192" stroke-miterlimit="10" x1="754.378" y1="653.118" x2="702" y2="604.805"/>
	<line fill="none" stroke="#2E3192" stroke-miterlimit="10" x1="754.378" y1="578.805" x2="825" y2="610.805"/>
	<line fill="none" stroke="#2E3192" stroke-miterlimit="10" x1="754.378" y1="578.805" x2="766" y2="503.805"/>
	<line fill="none" stroke="#2E3192" stroke-miterlimit="10" x1="754.378" y1="578.805" x2="704.862" y2="600.163"/>
	<line fill="none" stroke="#2E3192" stroke-miterlimit="10" x1="693.25" y1="541.305" x2="765.5" y2="501.805"/>
	<line fill="none" stroke="#2E3192" stroke-miterlimit="10" x1="693.25" y1="541.305" x2="645.609" y2="495.055"/>
	<line fill="none" stroke="#2E3192" stroke-miterlimit="10" x1="693.25" y1="541.305" x2="699.25" y2="599.756"/>
	<line fill="none" stroke="#2E3192" stroke-miterlimit="10" x1="704.862" y1="467.305" x2="769" y2="502.805"/>
	<line fill="none" stroke="#2E3192" stroke-miterlimit="10" x1="704.862" y1="467.305" x2="720.75" y2="396.805"/>
	<line fill="none" stroke="#2E3192" stroke-miterlimit="10" x1="704.862" y1="467.305" x2="652" y2="483.805"/>
	<line fill="none" stroke="#2E3192" stroke-miterlimit="10" x1="667" y1="411.305" x2="724" y2="390.805"/>
	<line fill="none" stroke="#2E3192" stroke-miterlimit="10" x1="667" y1="411.305" x2="636" y2="371.805"/>
	<line fill="none" stroke="#2E3192" stroke-miterlimit="10" x1="667" y1="411.305" x2="667" y2="457.305"/>
	<line fill="none" stroke="#2E3192" stroke-miterlimit="10" x1="772" y1="455.805" x2="822" y2="436.18"/>
	<line fill="none" stroke="#2E3192" stroke-miterlimit="10" x1="772" y1="455.805" x2="741" y2="412.805"/>
	<line fill="none" stroke="#2E3192" stroke-miterlimit="10" x1="772" y1="455.805" x2="769" y2="502.805"/>
	<line fill="none" stroke="#2E3192" stroke-miterlimit="10" x1="809" y1="486.305" x2="815.841" y2="446.805"/>
	<line fill="none" stroke="#2E3192" stroke-miterlimit="10" x1="809" y1="486.305" x2="840" y2="501.555"/>
	<line fill="none" stroke="#2E3192" stroke-miterlimit="10" x1="809" y1="486.305" x2="784" y2="497.305"/>
	<line fill="none" stroke="#2E3192" stroke-miterlimit="10" x1="820.42" y1="544.67" x2="890.437" y2="501.805"/>
	<line fill="none" stroke="#2E3192" stroke-miterlimit="10" x1="820.42" y1="544.67" x2="766" y2="503.805"/>
	<line fill="none" stroke="#2E3192" stroke-miterlimit="10" x1="820.42" y1="544.67" x2="827.75" y2="604.805"/>
	<line fill="none" stroke="#2E3192" stroke-miterlimit="10" x1="882" y1="585.055" x2="887.398" y2="511.555"/>
	<line fill="none" stroke="#2E3192" stroke-miterlimit="10" x1="882" y1="585.055" x2="953.805" y2="614.805"/>
	<line fill="none" stroke="#2E3192" stroke-miterlimit="10" x1="882" y1="585.055" x2="829" y2="604.805"/>
	<line fill="none" stroke="#2E3192" stroke-miterlimit="10" x1="649.75" y1="293.805" x2="625.875" y2="226.805"/>
	<line fill="none" stroke="#2E3192" stroke-miterlimit="10" x1="649.75" y1="293.805" x2="728.189" y2="283.305"/>
	<line fill="none" stroke="#2E3192" stroke-miterlimit="10" x1="649.75" y1="293.805" x2="630.75" y2="347.805"/>
	<line fill="none" stroke="#2E3192" stroke-miterlimit="10" x1="695.877" y1="352.805" x2="734.5" y2="281.243"/>
	<line fill="none" stroke="#2E3192" stroke-miterlimit="10" x1="695.877" y1="352.805" x2="741" y2="400.805"/>
	<line fill="none" stroke="#2E3192" stroke-miterlimit="10" x1="695.877" y1="352.805" x2="642.305" y2="349.805"/>
	<line fill="none" stroke="#2E3192" stroke-miterlimit="10" x1="784" y1="407.805" x2="797" y2="352.805"/>
	<line fill="none" stroke="#2E3192" stroke-miterlimit="10" x1="785.596" y1="401.055" x2="827" y2="432.805"/>
	<line fill="none" stroke="#2E3192" stroke-miterlimit="10" x1="785.596" y1="401.055" x2="741" y2="412.805"/>
	<line fill="none" stroke="#2E3192" stroke-miterlimit="10" x1="861.328" y1="429.305" x2="877.16" y2="396.805"/>
	<line fill="none" stroke="#2E3192" stroke-miterlimit="10" x1="861.328" y1="429.305" x2="890.437" y2="457.305"/>
	<line fill="none" stroke="#2E3192" stroke-miterlimit="10" x1="861.328" y1="429.305" x2="837.417" y2="431.805"/>
	<line fill="none" stroke="#2E3192" stroke-miterlimit="10" x1="950.873" y1="551.305" x2="1016.805" y2="506.805"/>
	<line fill="none" stroke="#2E3192" stroke-miterlimit="10" x1="950.873" y1="551.305" x2="890.437" y2="506.805"/>
	<line fill="none" stroke="#2E3192" stroke-miterlimit="10" x1="950.873" y1="551.305" x2="950.873" y2="605.805"/>
	<line fill="none" stroke="#2E3192" stroke-miterlimit="10" x1="1011.31" y1="594.805" x2="1021" y2="511.805"/>
	<line fill="none" stroke="#2E3192" stroke-miterlimit="10" x1="1011.31" y1="594.805" x2="1070" y2="622.805"/>
	<line fill="none" stroke="#2E3192" stroke-miterlimit="10" x1="1011.31" y1="594.805" x2="951.873" y2="611.805"/>
	<line fill="none" stroke="#2E3192" stroke-miterlimit="10" x1="760.189" y1="360.305" x2="800.5" y2="347.805"/>
	<line fill="none" stroke="#2E3192" stroke-miterlimit="10" x1="760.189" y1="360.305" x2="741" y2="338.805"/>
	<line fill="none" stroke="#2E3192" stroke-miterlimit="10" x1="760.189" y1="360.305" x2="758" y2="390.805"/>
	<line fill="none" stroke="#2E3192" stroke-miterlimit="10" x1="323" y1="599.756" x2="323" y2="578.805"/>
	<line fill="none" stroke="#2E3192" stroke-miterlimit="10" x1="323" y1="599.756" x2="342" y2="604.805"/>
	<line fill="none" stroke="#2E3192" stroke-miterlimit="10" x1="323" y1="599.756" x2="311" y2="604.805"/>
	<line fill="none" stroke="#2E3192" stroke-miterlimit="10" x1="953.805" y1="477.555" x2="1013.798" y2="501.555"/>
	<line fill="none" stroke="#2E3192" stroke-miterlimit="10" x1="953.805" y1="477.555" x2="953.805" y2="396.805"/>
	<line fill="none" stroke="#2E3192" stroke-miterlimit="10" x1="953.805" y1="477.555" x2="890.437" y2="501.805"/>
	<line fill="none" stroke="#2E3192" stroke-miterlimit="10" x1="1016.154" y1="436.18" x2="1074.805" y2="396.805"/>
	<line fill="none" stroke="#2E3192" stroke-miterlimit="10" x1="1016.154" y1="436.18" x2="953.805" y2="396.805"/>
	<line fill="none" stroke="#2E3192" stroke-miterlimit="10" x1="1016.154" y1="436.18" x2="1021" y2="506.805"/>
	<line fill="none" stroke="#2E3192" stroke-miterlimit="10" x1="1075.444" y1="506.805" x2="1124" y2="475.055"/>
	<line fill="none" stroke="#2E3192" stroke-miterlimit="10" x1="1075.444" y1="506.805" x2="1034.374" y2="474.305"/>
	<line fill="none" stroke="#2E3192" stroke-miterlimit="10" x1="1075.444" y1="506.805" x2="1075.444" y2="548.805"/>
	<line fill="none" stroke="#2E3192" stroke-miterlimit="10" x1="1156.5" y1="548.305" x2="1140.75" y2="511.805"/>
	<line fill="none" stroke="#2E3192" stroke-miterlimit="10" x1="1156.5" y1="548.305" x2="1196" y2="553.305"/>
	<line fill="none" stroke="#2E3192" stroke-miterlimit="10" x1="1156.5" y1="548.305" x2="1132.5" y2="570.805"/>
	<line fill="none" stroke="#2E3192" stroke-miterlimit="10" x1="1122" y1="425.305" x2="1083" y2="390.305"/>
	<line fill="none" stroke="#2E3192" stroke-miterlimit="10" x1="1122" y1="425.305" x2="1173" y2="400.805"/>
	<line fill="none" stroke="#2E3192" stroke-miterlimit="10" x1="1122" y1="425.305" x2="1117" y2="466.305"/>
	<line fill="none" stroke="#2E3192" stroke-miterlimit="10" x1="1130.5" y1="374.305" x2="1140" y2="319.805"/>
	<line fill="none" stroke="#2E3192" stroke-miterlimit="10" x1="1130.5" y1="374.305" x2="1163.75" y2="396.805"/>
	<line fill="none" stroke="#2E3192" stroke-miterlimit="10" x1="1130.5" y1="374.305" x2="1088" y2="385.805"/>
	<line fill="none" stroke="#2E3192" stroke-miterlimit="10" x1="1202" y1="347.055" x2="1233" y2="330.805"/>
	<line fill="none" stroke="#2E3192" stroke-miterlimit="10" x1="1202" y1="347.055" x2="1183" y2="325.805"/>
	<line fill="none" stroke="#2E3192" stroke-miterlimit="10" x1="1202" y1="342.805" x2="1199" y2="373.805"/>
	<line fill="none" stroke="#2E3192" stroke-miterlimit="10" x1="1261" y1="385.555" x2="1293" y2="370.805"/>
	<line fill="none" stroke="#2E3192" stroke-miterlimit="10" x1="1267.5" y1="385.805" x2="1242" y2="369.305"/>
	<line fill="none" stroke="#2E3192" stroke-miterlimit="10" x1="1267.5" y1="385.805" x2="1259" y2="406.93"/>
	<line fill="none" stroke="#2E3192" stroke-miterlimit="10" x1="1257" y1="451.805" x2="1259" y2="412.805"/>
	<line fill="none" stroke="#2E3192" stroke-miterlimit="10" x1="1257" y1="451.805" x2="1228" y2="461.805"/>
	<line fill="none" stroke="#2E3192" stroke-miterlimit="10" x1="1257" y1="451.805" x2="1289" y2="466.305"/>
	<line fill="none" stroke="#2E3192" stroke-miterlimit="10" x1="1256" y1="489.555" x2="1287" y2="469.305"/>
	<line fill="none" stroke="#2E3192" stroke-miterlimit="10" x1="1256" y1="489.555" x2="1223" y2="466.305"/>
	<line fill="none" stroke="#2E3192" stroke-miterlimit="10" x1="1256" y1="489.555" x2="1256" y2="520.805"/>
	<line fill="none" stroke="#2E3192" stroke-miterlimit="10" x1="1163.75" y1="460.18" x2="1173" y2="407.805"/>
	<line fill="none" stroke="#2E3192" stroke-miterlimit="10" x1="1163.75" y1="460.18" x2="1124" y2="475.055"/>
	<line fill="none" stroke="#2E3192" stroke-miterlimit="10" x1="1163.75" y1="460.18" x2="1210" y2="480.055"/>
	<line fill="none" stroke="#2E3192" stroke-miterlimit="10" x1="1079.805" y1="455.805" x2="1079.805" y2="396.805"/>
	<line fill="none" stroke="#2E3192" stroke-miterlimit="10" x1="1079.805" y1="455.805" x2="1124" y2="475.055"/>
	<line fill="none" stroke="#2E3192" stroke-miterlimit="10" x1="1079.805" y1="455.805" x2="1034.374" y2="474.305"/>
</g>
</svg>
