<?xml version="1.0" encoding="utf-8"?>
<!-- Generator: Adobe Illustrator 15.0.0, SVG Export Plug-In . SVG Version: 6.00 Build 0)  -->
<!DOCTYPE svg PUBLIC "-//W3C//DTD SVG 1.1//EN" "http://www.w3.org/Graphics/SVG/1.1/DTD/svg11.dtd">
<svg version="1.1" id="Layer_2" xmlns="http://www.w3.org/2000/svg" xmlns:xlink="http://www.w3.org/1999/xlink" x="0px" y="0px"
	 width="714px" height="715px" viewBox="0 0 714 715" enable-background="new 0 0 714 715" xml:space="preserve">
<polygon fill="#EE2C24" stroke="#000000" stroke-miterlimit="10" points="475,465.25 511.75,473.75 516.5,511.5 506.75,528.25 
	480.5,529 455.75,499 "/>
<polygon fill="#EE2C24" stroke="#000000" stroke-miterlimit="10" points="481,534 507.25,534.5 517.25,553.5 499.75,569 
	486.5,569.75 474.75,551.25 "/>
<polygon fill="#EE2C24" stroke="#000000" stroke-miterlimit="10" points="540.25,594.75 502.5,592.5 500.25,575 511.5,566.5 
	527.25,554.25 538.25,560.25 549.75,573.25 "/>
<polygon fill="#EE2C24" stroke="#000000" stroke-miterlimit="10" points="519.75,514.5 511,531 520.25,547.5 531.5,550.75 
	543.25,544.5 550.75,531 546.5,518 531,509.25 "/>
<polygon fill="#EE2C24" stroke="#000000" stroke-miterlimit="10" points="475.25,531.75 452,504.25 427.75,502.25 419.75,521.75 
	419.75,539.5 441.5,559 461.75,551 "/>
<polygon fill="#EE2C24" stroke="#000000" stroke-miterlimit="10" points="514.75,464.75 476,457.5 466.75,439.75 478.75,416.75 
	521,405.5 544,421.25 "/>
<polygon fill="#EE2C24" stroke="#000000" stroke-miterlimit="10" points="459.5,443.75 468.25,461.25 448,495.5 427.5,494.5 
	418.25,468.5 433.5,442.25 "/>
<polygon fill="#EE2C24" stroke="#000000" stroke-miterlimit="10" points="468,554.75 436,567.75 432.25,596.75 468.25,616.25 
	495.75,611.25 494.75,578.25 482.25,575.5 "/>
<polygon fill="#EE2C24" stroke="#000000" stroke-miterlimit="10" points="471.75,622.5 497.25,617.75 523.5,641.25 515.5,650.75 
	491.5,651 476,640.75 "/>
<polygon fill="#EE2C24" stroke="#000000" stroke-miterlimit="10" points="504.25,598.5 503.75,615 528.5,637.75 555.25,636.5 
	561.25,617.25 545.25,600.25 "/>
<polygon fill="#EE2C24" stroke="#000000" stroke-miterlimit="10" points="465.25,619.75 468.25,638.25 453.75,645.75 446.25,663.75 
	407,645 408,613.5 430,604.25 "/>
<polygon fill="#EE2C24" stroke="#000000" stroke-miterlimit="10" points="427.25,596 429,563.5 409.75,541.25 385.75,541.5 
	372.5,558.5 378,579.5 396.25,580.75 409.25,604.5 "/>
<polygon fill="#EE2C24" stroke="#000000" stroke-miterlimit="10" points="374.25,587.25 393.5,590 404.5,611.25 400.5,642.5 
	394.25,647 373.75,641.25 353.75,605.75 "/>
<polygon fill="#EE2C24" stroke="#000000" stroke-miterlimit="10" points="471,644.5 457.5,650 452,665.75 479.25,678.5 
	487.75,658.75 "/>
<polygon fill="#EE2C24" stroke="#000000" stroke-miterlimit="10" points="517,658 494.5,658.25 486,682 506,700 534.5,689.75 "/>
<polygon fill="#EE2C24" stroke="#000000" stroke-miterlimit="10" points="523,657 538.5,688.25 560.25,689.5 577.5,661.5 
	559.75,645.25 529.25,645.5 "/>
<polygon fill="#EE2C24" stroke="#000000" stroke-miterlimit="10" points="572.25,705.75 562.25,695.5 538.5,694.25 513.25,708.75 
	513.5,716.75 558.25,717.5 "/>
<polygon fill="#EE2C24" stroke="#000000" stroke-miterlimit="10" points="581.5,701.25 572.5,691.5 588.25,662 601.25,658.5 
	621.25,682.75 606.75,685 "/>
<polygon fill="#EE2C24" stroke="#000000" stroke-miterlimit="10" points="573.5,719.25 581.5,708 607.75,691.25 627,697.5 
	614.25,718.5 "/>
<polygon fill="#EE2C24" stroke="#000000" stroke-miterlimit="10" points="601,649 587.25,649.25 566,635.5 568.25,619.25 
	604.5,608.25 618,613.75 623.25,631 "/>
<polygon fill="#EE2C24" stroke="#000000" stroke-miterlimit="10" points="626.75,635 607,655.5 627,673.5 652.75,656.5 650.75,641 
	"/>
<polygon fill="#EE2C24" stroke="#000000" stroke-miterlimit="10" points="554.5,576 548,595 564.25,609.25 600,601.25 601.25,585 
	585,568.75 "/>
<polygon fill="#EE2C24" stroke="#000000" stroke-miterlimit="10" points="582,560.75 555,567.25 544,553.5 556.75,525.25 
	579.5,524.5 586.5,536.25 "/>
<polygon fill="#EE2C24" stroke="#000000" stroke-miterlimit="10" points="593.25,538.75 588.5,561.5 603.25,576.75 619.25,569.75 
	638.75,549 620.5,532 "/>
<polygon fill="#EE2C24" stroke="#000000" stroke-miterlimit="10" points="628,679.75 655,660.25 676.75,662.75 659.75,689.75 
	637.25,695.5 625.5,688.5 "/>
<polygon fill="#EE2C24" stroke="#000000" stroke-miterlimit="10" points="656.25,697.75 636.5,701.5 627.25,719.5 666.25,721.5 
	669,711.75 "/>
<polygon fill="#EE2C24" stroke="#000000" stroke-miterlimit="10" points="663,694 680.25,673.25 700.5,683.25 689.5,707 
	673.5,711.75 "/>
<polygon fill="#EE2C24" stroke="#000000" stroke-miterlimit="10" points="716.75,672.5 704.75,677.75 684.5,667.75 683,654 
	692.75,643.5 717.5,632 "/>
<polygon fill="#EE2C24" stroke="#000000" stroke-miterlimit="10" points="717,681.25 708.75,682.5 687.5,717.25 716.75,719 "/>
<polygon fill="#EE2C24" stroke="#000000" stroke-miterlimit="10" points="675.25,613.25 656.75,635.75 658.5,652.75 681.25,650.75 
	706,629.5 703.5,619 686.75,608.75 "/>
<polygon fill="#EE2C24" stroke="#000000" stroke-miterlimit="10" points="651.75,633.25 673,607.5 659.75,593.75 625,610.25 
	627,629.25 "/>
<polygon fill="#EE2C24" stroke="#000000" stroke-miterlimit="10" points="641.25,557.25 624.25,574 607.5,583 607,600 621,606.25 
	657.25,589.75 660.25,568.75 "/>
<polygon fill="#EE2C24" stroke="#000000" stroke-miterlimit="10" points="665.25,569.75 663,588.25 676.25,604 693.75,599.75 
	708.25,579.5 688.5,550.5 "/>
<polygon fill="#EE2C24" stroke="#000000" stroke-miterlimit="10" points="717,613.25 707.5,616.25 695,606.5 711.25,582.5 717,584 
	"/>
<polygon fill="#EE2C24" stroke="#000000" stroke-miterlimit="10" points="716.5,537.5 699.5,538.5 694,547.75 711.25,575.75 
	715.75,576.25 "/>
<polygon fill="#EE2C24" stroke="#000000" stroke-miterlimit="10" points="685,519.25 692.75,540.5 664.75,563.25 646.5,554 
	644,546.5 672,516.75 "/>
<polygon fill="#EE2C24" stroke="#000000" stroke-miterlimit="10" points="641.5,543 625.75,530.25 631,500 650.75,493.5 
	669.25,514.5 "/>
<polygon fill="#EE2C24" stroke="#000000" stroke-miterlimit="10" points="657.5,489.25 674.75,512 685.5,512.5 703,492 697.5,478 
	669.75,471.5 "/>
<polygon fill="#EE2C24" stroke="#000000" stroke-miterlimit="10" points="717,494 707,493 690.75,518.5 696.5,536.5 716.25,532.5 
	"/>
<polygon fill="#EE2C24" stroke="#000000" stroke-miterlimit="10" points="589.75,499 584,521 591.75,533 621,527.25 626.25,502 
	613.25,489 "/>
<polygon fill="#EE2C24" stroke="#000000" stroke-miterlimit="10" points="586.25,496.5 579.5,518.5 555,520 540.25,504.75 
	521.5,500.25 517.5,468.25 530.75,459.5 565.5,478.25 "/>
<polygon fill="#EE2C24" stroke="#000000" stroke-miterlimit="10" points="548,426 582.5,448.5 576.75,470.75 567.75,476.25 
	531.25,454.75 "/>
<polygon fill="#EE2C24" stroke="#000000" stroke-miterlimit="10" points="578.75,477.5 589.25,448.75 613.5,449.5 617,480.25 
	589.75,493 "/>
<polygon fill="#EE2C24" stroke="#000000" stroke-miterlimit="10" points="616.25,448 621.705,480.69 629,494.75 654.5,486.5 
	664.75,467.25 655.5,441.25 623.75,433 "/>
<polygon fill="#EE2C24" stroke="#000000" stroke-miterlimit="10" points="665.5,447.25 679,438.25 698.25,443.25 704.5,461.25 
	694.75,472.5 670.25,468 "/>
<polygon fill="#EE2C24" stroke="#000000" stroke-miterlimit="10" points="620,427.5 608.25,444 588.5,442 549.5,415 580,400.75 
	605.75,410.75 "/>
<polygon fill="#EE2C24" stroke="#000000" stroke-miterlimit="10" points="441.5,668.5 406.75,651.25 400,654 402.5,688 437.5,695.5 
	"/>
<polygon fill="#EE2C24" stroke="#000000" stroke-miterlimit="10" points="447.75,673 443,700.25 498.75,727 505,707.25 481,685.5 
	"/>
<polygon fill="#EE2C24" stroke="#000000" stroke-miterlimit="10" points="439.5,702.5 404,694.25 392.25,701.5 400.25,721.25 
	440,721.75 "/>
<polygon fill="#EE2C24" stroke="#000000" stroke-miterlimit="10" points="396,653.5 373.25,647.5 355,668.75 384,696 399.25,689.5 
	"/>
<polygon fill="#EE2C24" stroke="#000000" stroke-miterlimit="10" points="350,609.25 369,644.5 352.25,657.5 324.5,638 
	327.5,610.75 "/>
<polygon fill="#EE2C24" stroke="#000000" stroke-miterlimit="10" points="370.75,582.25 351.25,600 328,602.75 312.25,573 
	328.5,550.75 365,560.25 "/>
<polygon fill="#EE2C24" stroke="#000000" stroke-miterlimit="10" points="363.5,500.25 380.5,535.25 367.25,551.5 331.75,543.75 
	330.75,509.5 "/>
<polygon fill="#EE2C24" stroke="#000000" stroke-miterlimit="10" points="415.25,473 399,467 374,476.75 368,497.75 386.5,531.75 
	410.25,534 422.5,499.25 "/>
<polygon fill="#EE2C24" stroke="#000000" stroke-miterlimit="10" points="379.5,703.25 354.25,679.5 323.5,681.5 318.25,690.5 
	335,713.25 365.5,716.75 "/>
<polygon fill="#EE2C24" stroke="#000000" stroke-miterlimit="10" points="383.75,706 389,706.75 393.25,720.25 371,720.25 "/>
<polygon fill="#EE2C24" stroke="#000000" stroke-miterlimit="10" points="320.75,644.75 350.5,664 352.5,674.25 325.75,677 
	314.25,652.5 "/>
<polygon fill="#EE2C24" stroke="#000000" stroke-miterlimit="10" points="329,716.75 316.75,694.5 302.5,686.75 292.25,703.25 
	295.5,717.25 "/>
<polygon fill="#EE2C24" stroke="#000000" stroke-miterlimit="10" points="298.25,638.5 315.25,660.5 321,679 315.5,687.25 
	298.75,677 286.5,653 "/>
<polygon fill="#EE2C24" stroke="#000000" stroke-miterlimit="10" points="271.5,667 288.25,667.25 295.25,680 300.25,685 
	285.25,705.5 271.25,689.75 "/>
<polygon fill="#EE2C24" stroke="#000000" stroke-miterlimit="10" points="283.5,661.75 281,648.75 260.75,629.75 249.25,628 
	244,645 246,671.25 266,677.25 269.75,662 "/>
<polygon fill="#EE2C24" stroke="#000000" stroke-miterlimit="10" points="292.25,620.25 276.25,604.25 264.75,607.25 262,625.75 
	285.25,646.75 294,633 "/>
<polygon fill="#EE2C24" stroke="#000000" stroke-miterlimit="10" points="308.5,576.25 323.25,605.75 319.25,636.25 311.5,645 
	299.5,633.25 294.75,612.75 282,602.75 295.25,576 "/>
<polygon fill="#EE2C24" stroke="#000000" stroke-miterlimit="10" points="293.5,569.25 279.25,600.5 265.75,602.25 247.5,576 
	249.25,549.25 276.5,544.25 "/>
<polygon fill="#EE2C24" stroke="#000000" stroke-miterlimit="10" points="261.75,604.5 258.75,624 250.25,623.5 231,598 231,583 
	246,579.25 "/>
<polygon fill="#EE2C24" stroke="#000000" stroke-miterlimit="10" points="247.75,624.75 232,603.5 223.25,603.75 223.5,616 
	241,640.25 248.5,625.75 "/>
<polygon fill="#EE2C24" stroke="#000000" stroke-miterlimit="10" points="325.75,508 325,546.5 309.75,569 298.5,568.25 285.25,545 
	294.5,498.25 312.5,494.25 "/>
<polygon fill="#EE2C24" stroke="#000000" stroke-miterlimit="10" points="270.75,479.25 288,498.25 282.5,539.5 252.5,543 
	244.75,523.5 255,505.5 258.5,488 "/>
<polygon fill="#EE2C24" stroke="#000000" stroke-miterlimit="10" points="228,579.75 244.5,576.25 246.5,546.75 240,520.75 
	222.75,514 208.75,541 213.25,560 "/>
<polygon fill="#EE2C24" stroke="#000000" stroke-miterlimit="10" points="251.5,487.5 250.75,505.25 242.75,516.75 222.5,510.5 
	213.5,479.25 227,469.5 "/>
<polygon fill="#EE2C24" stroke="#000000" stroke-miterlimit="10" points="244,423.75 263.5,437.25 272.25,472.25 255.75,484 
	229.75,465.5 227,439.25 "/>
<polygon fill="#EE2C24" stroke="#000000" stroke-miterlimit="10" points="222,439 225.25,464.75 211.5,475 199.5,461.75 203,438 "/>
<polygon fill="#EE2C24" stroke="#000000" stroke-miterlimit="10" points="269.75,438.5 278.25,474 294.25,492.75 314.5,488.25 
	316,453.75 282.75,428.25 "/>
<polygon fill="#EE2C24" stroke="#000000" stroke-miterlimit="10" points="320.5,451.5 329.5,439 351.75,439.25 368.75,473.75 
	364.25,493.25 331.5,505 319.75,491 "/>
<polygon fill="#EE2C24" stroke="#000000" stroke-miterlimit="10" points="266.5,430.25 245,418.25 241,405.75 246.75,389 
	273.75,388 284.25,400.25 279.25,422.25 "/>
<polygon fill="#EE2C24" stroke="#000000" stroke-miterlimit="10" points="287.5,401.5 285,422.5 316,447.5 326,434.5 321,424 
	323.75,398.25 313.75,384.5 291.5,390.5 "/>
<polygon fill="#EE2C24" stroke="#000000" stroke-miterlimit="10" points="350.5,402.25 329.5,398.75 324.75,422.5 330.5,435.25 
	352.5,435.5 359.5,422.25 "/>
<polygon fill="#EE2C24" stroke="#000000" stroke-miterlimit="10" points="364.5,425.5 357,439.25 372.75,470 396.5,463 388,426.75 
	"/>
<polygon fill="#EE2C24" stroke="#000000" stroke-miterlimit="10" points="393,424.5 409.5,410.25 432.25,436.5 415,466.25 
	401.5,462 "/>
<polygon fill="#EE2C24" stroke="#000000" stroke-miterlimit="10" points="414.5,406 436.25,435.5 463,437.75 474.25,411.5 
	449.25,387.25 424.5,390.75 "/>
<polygon fill="#EE2C24" stroke="#000000" stroke-miterlimit="10" points="407.75,361 417.25,386.75 408,402.75 389.75,422.25 
	365.75,420.25 355.25,398.75 372.5,386.25 382,369 "/>
<polygon fill="#EE2C24" stroke="#000000" stroke-miterlimit="10" points="368.25,351.75 376,364.75 369.75,382.5 352.75,395.25 
	327.5,394.25 317.25,381.75 317,355.25 333.75,339.25 351.75,351.5 "/>
<polygon fill="#EE2C24" stroke="#000000" stroke-miterlimit="10" points="312.75,353.25 310,378.5 285.75,386.75 276.75,379 
	277.5,363.75 295.5,345.75 "/>
<polygon fill="#EE2C24" stroke="#000000" stroke-miterlimit="10" points="315.25,349.5 332.5,332.75 330.75,325.75 313.25,319.25 
	298.25,329.5 296.75,341.25 "/>
<polygon fill="#EE2C24" stroke="#000000" stroke-miterlimit="10" points="273.25,364.25 270.5,384.5 248,386.25 246.5,371.75 
	262.5,358 "/>
<polygon fill="#EE2C24" stroke="#000000" stroke-miterlimit="10" points="212.75,403 236.5,407.5 240,421.5 225,436.25 
	207.5,434.25 "/>
<polygon fill="#EE2C24" stroke="#000000" stroke-miterlimit="10" points="212.25,397.75 235.75,402.25 243.25,387.25 242,371 
	232.75,363.25 214.25,369.5 "/>
<polygon fill="#EE2C24" stroke="#000000" stroke-miterlimit="10" points="234.25,359.25 244.75,368.5 263.75,352.5 259.5,340 
	243.25,337.25 236.25,347.75 "/>
<polygon fill="#EE2C24" stroke="#000000" stroke-miterlimit="10" points="267.75,354.5 276,360.25 292,343.75 294,327.75 
	279,320.25 263.25,338.5 "/>
<polygon fill="#EE2C24" stroke="#000000" stroke-miterlimit="10" points="242,333.5 262,337 278.25,315.75 273,299.75 242.25,306.5 
	"/>
<polygon fill="#EE2C24" stroke="#000000" stroke-miterlimit="10" points="280.5,306 281.25,316 297.75,325 313.25,314.5 
	310.75,296.75 "/>
<polygon fill="#EE2C24" stroke="#000000" stroke-miterlimit="10" points="279.5,301 314,292.25 325.5,269.75 316.75,254 
	284.25,269.75 277.25,287.5 "/>
<polygon fill="#EE2C24" stroke="#000000" stroke-miterlimit="10" points="316,295.75 316.75,317 336.25,324.5 358.25,297 
	349.25,270.5 329.25,272 "/>
<polygon fill="#EE2C24" stroke="#000000" stroke-miterlimit="10" points="284.75,265.25 317.75,249.75 319,239 299.75,226.25 
	283.25,235 "/>
<polygon fill="#EE2C24" stroke="#000000" stroke-miterlimit="10" points="346.5,227.25 324.25,238.5 321,251.75 329,268.25 350,266 
	361.75,245.75 "/>
<polygon fill="#EE2C24" stroke="#000000" stroke-miterlimit="10" points="361.25,300.25 338,329 338.5,335 354.25,347 370,347.25 
	394,313.5 383,294.25 "/>
<polygon fill="#EE2C24" stroke="#000000" stroke-miterlimit="10" points="374.25,350.75 381.5,364 410,356.5 415.75,321.25 
	398.75,317 "/>
<polygon fill="#EE2C24" stroke="#000000" stroke-miterlimit="10" points="423,318 413.333,359.333 422.667,386 448.667,383 
	467,349.333 450.333,319.667 "/>
<polygon fill="#EE2C24" stroke="#000000" stroke-miterlimit="10" points="455,385 479,411.333 517.333,401 512,367 490.333,351.333 
	471.667,353 "/>
<polygon fill="#EE2C24" stroke="#000000" stroke-miterlimit="10" points="518,365.333 522.333,401.333 542.667,413 580.667,393.667 
	561.333,360 539.333,351.333 "/>
<polygon fill="#EE2C24" stroke="#000000" stroke-miterlimit="10" points="548.333,320 540.667,347.667 562.333,357 580,335.667 
	565.333,323.333 "/>
<polygon fill="#EE2C24" stroke="#000000" stroke-miterlimit="10" points="583.333,338.333 565,359.667 583,385.667 620,366.667 
	596.667,335 "/>
<polygon fill="#EE2C24" stroke="#000000" stroke-miterlimit="10" points="585,394.667 629,375.333 651.333,387.333 645,425.667 
	625.333,429.333 605.333,404.333 "/>
<polygon fill="#EE2C24" stroke="#000000" stroke-miterlimit="10" points="653.667,395.667 647.667,428.667 662,442.333 
	679.667,432.333 704,441.333 714,428 697,401 680,406.333 663.667,392.667 "/>
<polygon fill="#EE2C24" stroke="#000000" stroke-miterlimit="10" points="718,489.333 706.667,486.333 700.333,473.667 709,458.333 
	706.667,445.333 717.667,433.333 "/>
<polygon fill="#EE2C24" stroke="#000000" stroke-miterlimit="10" points="717,421.333 699.333,397.667 702,380.667 721,380.667 "/>
<polygon fill="#EE2C24" stroke="#000000" stroke-miterlimit="10" points="717.667,344.667 710,335.333 686,355.667 699.667,377 
	716.667,376.333 "/>
<polygon fill="#EE2C24" stroke="#000000" stroke-miterlimit="10" points="647,376 655,388.667 666,389 681,401.667 695,396.333 
	697.333,380.333 681,362 "/>
<polygon fill="#EE2C24" stroke="#000000" stroke-miterlimit="10" points="604.667,311.667 598.667,331.667 624,365.333 641,373.667 
	649.667,362.667 641,345.667 643.333,333.333 628.333,311 "/>
<polygon fill="#EE2C24" stroke="#000000" stroke-miterlimit="10" points="648.667,331 645.333,346.333 655.667,366 683.667,352 
	663.667,327 "/>
<polygon fill="#EE2C24" stroke="#000000" stroke-miterlimit="10" points="672.333,306 666.333,324.333 686.333,349 707.333,331 
	697.333,307.667 "/>
<polygon fill="#EE2C24" stroke="#000000" stroke-miterlimit="10" points="670.333,302.333 662.333,322.333 645.333,328.333 
	631.667,308.333 639.333,294.667 657.333,290.333 "/>
<polygon fill="#EE2C24" stroke="#000000" stroke-miterlimit="10" points="654.333,272.667 654,285.667 674,301 697.333,303 
	703.667,272.667 682.667,248.333 667.667,260.667 "/>
<polygon fill="#EE2C24" stroke="#000000" stroke-miterlimit="10" points="651,268 648.667,286.333 634.667,292.667 628.333,307 
	604,308.333 590.667,287.667 610.333,259.667 633.333,256 "/>
<polygon fill="#EE2C24" stroke="#000000" stroke-miterlimit="10" points="642.667,231 635,252.667 654,264.667 675,247.333 
	658.333,230.667 "/>
<polygon fill="#EE2C24" stroke="#000000" stroke-miterlimit="10" points="558.333,281 587,288.667 600.333,311.333 594.333,330 
	582.333,333 565.667,320.333 547.667,314.667 543,299.333 "/>
<polygon fill="#EE2C24" stroke="#000000" stroke-miterlimit="10" points="511.002,299.332 490.002,345.999 514.002,362.665 
	535.669,347.666 544.336,316.332 537.002,297.999 "/>
<polygon fill="#EE2C24" stroke="#000000" stroke-miterlimit="10" points="472.336,346.999 486.336,344.999 506.669,298.999 
	482.669,287.666 455.336,318.332 "/>
<polygon fill="#EE2C24" stroke="#000000" stroke-miterlimit="10" points="447.336,256.999 477.336,270.666 481.002,282.666 
	451.669,315.999 426.336,312.999 434.669,292.332 434.002,267.332 "/>
<polygon fill="#EE2C24" stroke="#000000" stroke-miterlimit="10" points="484.002,266.332 487.336,281.999 511.002,292.666 
	541.002,294.666 555.336,275.999 533.669,248.332 508.669,245.332 "/>
<polygon fill="#EE2C24" stroke="#000000" stroke-miterlimit="10" points="400.669,263.332 388.336,292.332 397.669,312.666 
	419.002,315.332 429.669,290.999 429.002,264.666 "/>
<polygon fill="#EE2C24" stroke="#000000" stroke-miterlimit="10" points="365.669,249.332 354.669,268.332 362.336,293.999 
	384.002,289.666 397.002,252.332 "/>
<polygon fill="#EE2C24" stroke="#000000" stroke-miterlimit="10" points="351.335,222.999 366.669,246.332 390.669,248.666 
	415.669,215.999 398.669,193.666 "/>
<polygon fill="#EE2C24" stroke="#000000" stroke-miterlimit="10" points="402.336,258.999 398.669,248.332 418.002,221.332 
	446.002,231.666 446.336,252.666 432.336,262.332 "/>
<polygon fill="#EE2C24" stroke="#000000" stroke-miterlimit="10" points="450.336,230.666 452.002,252.332 481.002,266.332 
	504.002,243.332 495.669,219.332 466.669,213.666 "/>
<polygon fill="#EE2C24" stroke="#000000" stroke-miterlimit="10" points="403.002,190.666 426.336,171.666 462.336,186.332 
	466.669,208.999 447.669,225.332 420.336,215.666 "/>
<polygon fill="#EE2C24" stroke="#000000" stroke-miterlimit="10" points="467.336,184.666 470.336,209.999 497.669,215.666 
	524.002,188.999 521.669,177.332 487.002,169.332 "/>
<polygon fill="#EE2C24" stroke="#000000" stroke-miterlimit="10" points="464.336,182.332 432.002,169.999 434.002,156.666 
	451.669,147.999 473.002,152.332 481.002,168.999 "/>
<polygon fill="#EE2C24" stroke="#000000" stroke-miterlimit="10" points="352.335,211.332 341.002,193.332 380.669,167.666 
	392.002,176.999 395.002,188.999 "/>
<polygon fill="#EE2C24" stroke="#000000" stroke-miterlimit="10" points="401.336,185.999 396.669,174.666 382.669,163.666 
	388.002,153.999 411.669,142.999 428.336,156.666 427.002,166.999 "/>
<polygon fill="#EE2C24" stroke="#000000" stroke-miterlimit="10" points="414.669,139.999 431.669,154.332 449.669,143.999 
	447.669,124.999 424.669,121.999 "/>
<polygon fill="#EE2C24" stroke="#000000" stroke-miterlimit="10" points="453.002,126.666 452.669,143.999 473.002,148.999 
	495.669,135.999 496.336,125.999 474.336,118.999 "/>
<polygon fill="#EE2C24" stroke="#000000" stroke-miterlimit="10" points="477.336,152.332 484.669,167.332 499.669,165.332 
	511.336,145.332 498.336,138.666 "/>
<polygon fill="#EE2C24" stroke="#000000" stroke-miterlimit="10" points="515.669,146.666 504.336,167.666 524.669,175.332 
	541.336,162.999 533.336,145.666 "/>
<polygon fill="#EE2C24" stroke="#000000" stroke-miterlimit="10" points="500.669,136.666 515.002,143.332 537.336,137.666 
	537.002,121.666 519.669,114.666 501.002,124.666 "/>
<polygon fill="#EE2C24" stroke="#000000" stroke-miterlimit="10" points="477.335,112.332 452.668,122.999 426.002,118.666 
	424.335,109.999 439.002,88.999 463.335,87.332 480.335,99.666 "/>
<polygon fill="#EE2C24" stroke="#000000" stroke-miterlimit="10" points="485.002,100.999 480.335,115.666 498.002,122.999 
	519.668,111.332 521.335,96.666 513.002,92.999 "/>
<polygon fill="#EE2C24" stroke="#000000" stroke-miterlimit="10" points="468.335,85.666 483.335,94.999 513.002,89.332 
	513.335,77.666 498.335,72.332 474.668,74.666 "/>
<polygon fill="#EE2C24" stroke="#000000" stroke-miterlimit="10" points="528.002,194.666 501.668,219.666 510.002,240.666 
	534.335,244.666 556.002,223.332 550.668,201.332 "/>
<polygon fill="#EE2C24" stroke="#000000" stroke-miterlimit="10" points="526.668,178.332 528.668,189.999 554.335,199.666 
	580.668,188.332 582.002,169.666 569.002,163.666 545.335,165.332 "/>
<polygon fill="#EE2C24" stroke="#000000" stroke-miterlimit="10" points="559.002,227.666 540.002,247.999 558.668,274.666 
	587.002,283.332 606.002,259.999 581.668,235.666 "/>
<polygon fill="#EE2C24" stroke="#000000" stroke-miterlimit="10" points="557.335,203.332 561.335,223.666 584.668,233.666 
	605.668,209.999 585.002,192.666 "/>
<polygon fill="#EE2C24" stroke="#000000" stroke-miterlimit="10" points="610.335,212.332 589.335,236.332 608.668,256.666 
	629.335,250.666 637.335,229.332 623.335,212.332 "/>
<polygon fill="#EE2C24" stroke="#000000" stroke-miterlimit="10" points="628.003,209.665 640.67,226.665 658.003,226.331 
	665.003,203.665 638.003,195.998 "/>
<polygon fill="#EE2C24" stroke="#000000" stroke-miterlimit="10" points="669.67,204.665 662.003,227.998 678.337,244.331 
	690.67,236.665 691.003,216.331 "/>
<polygon fill="#EE2C24" stroke="#000000" stroke-miterlimit="10" points="696.337,218.331 692.67,241.665 695.67,257.331 
	715.67,270.665 716.003,213.331 "/>
<polygon fill="#EE2C24" stroke="#000000" stroke-miterlimit="10" points="539.003,143.998 545.337,161.998 571.337,160.665 
	569.003,143.331 "/>
<polygon fill="#EE2C24" stroke="#000000" stroke-miterlimit="10" points="587.67,171.665 586.67,188.331 610.003,207.331 
	623.337,207.331 631.337,193.665 607.003,170.331 "/>
<polygon fill="#EE2C24" stroke="#000000" stroke-miterlimit="10" points="609.67,166.998 635.337,191.665 668.337,199.331 
	666.337,169.331 640.67,165.998 622.003,153.665 "/>
<polygon fill="#EE2C24" stroke="#000000" stroke-miterlimit="10" points="673.337,170.665 674.337,200.665 695.337,213.665 
	711.003,208.665 706.67,176.998 686.003,166.331 "/>
<polygon fill="#EE2C24" stroke="#000000" stroke-miterlimit="10" points="576.67,161.998 585.67,167.331 605.003,165.665 
	622.337,150.665 622.67,134.665 602.67,120.665 585.67,122.331 574.337,143.331 "/>
<polygon fill="#EE2C24" stroke="#000000" stroke-miterlimit="10" points="542.003,122.665 542.003,137.998 571.003,140.998 
	582.003,121.998 569.67,114.331 "/>
<polygon fill="#EE2C24" stroke="#000000" stroke-miterlimit="10" points="526.67,97.998 524.003,111.665 540.003,119.665 
	573.003,109.998 563.337,91.665 "/>
<polygon fill="#EE2C24" stroke="#000000" stroke-miterlimit="10" points="519.003,78.998 518.003,89.331 525.337,93.998 
	569.003,88.331 570.003,73.665 552.003,65.998 "/>
<polygon fill="#EE2C24" stroke="#000000" stroke-miterlimit="10" points="572.003,91.998 577.67,112.665 585.337,119.331 
	601.67,117.331 618.67,101.331 602.337,89.665 "/>
<polygon fill="#EE2C24" stroke="#000000" stroke-miterlimit="10" points="607.337,119.331 627.337,134.665 644.67,128.998 
	635.003,104.998 621.337,105.998 "/>
<polygon fill="#EE2C24" stroke="#000000" stroke-miterlimit="10" points="629.67,139.665 628.337,151.998 643.67,162.665 
	669.337,167.665 682.67,158.998 671.003,140.665 645.67,133.998 "/>
<polygon fill="#EE2C24" stroke="#000000" stroke-miterlimit="10" points="639.337,105.331 648.67,129.665 671.337,137.665 
	678.67,125.331 673.67,112.331 651.003,100.665 "/>
<polygon fill="#EE2C24" stroke="#000000" stroke-miterlimit="10" points="682.337,128.665 675.337,139.331 686.003,158.998 
	700.67,149.998 700.67,139.665 "/>
<polygon fill="#EE2C24" stroke="#000000" stroke-miterlimit="10" points="688.67,162.665 703.003,153.331 717.67,164.331 
	717.003,177.331 708.003,176.331 "/>
<polygon fill="#EE2C24" stroke="#000000" stroke-miterlimit="10" points="574.003,75.331 575.67,86.331 600.003,86.998 
	624.67,74.665 615.337,64.331 595.003,63.331 "/>
<polygon fill="#EE2C24" stroke="#000000" stroke-miterlimit="10" points="554.337,63.331 572.67,70.998 591.67,60.998 
	579.337,51.998 554.337,54.665 "/>
<polygon fill="#EE2C24" stroke="#000000" stroke-miterlimit="10" points="613.337,87.998 630.337,77.665 658.67,83.331 
	651.003,97.331 637.337,102.331 621.67,101.665 "/>
<polygon fill="#EE2C24" stroke="#000000" stroke-miterlimit="10" points="584.337,51.331 596.003,60.331 614.337,62.331 
	624.67,55.665 601.003,47.331 "/>
<polygon fill="#EE2C24" stroke="#000000" stroke-miterlimit="10" points="622.003,64.331 629.003,73.331 648.003,72.331 
	647.67,67.665 628.67,57.998 "/>
<polygon fill="#EE2C24" stroke="#000000" stroke-miterlimit="10" points="664.337,86.331 655.337,98.331 676.337,111.331 
	693.337,109.665 685.67,92.998 "/>
<polygon fill="#EE2C24" stroke="#000000" stroke-miterlimit="10" points="679.003,114.331 682.003,125.665 705.003,139.665 
	717.67,142.331 717.003,129.998 694.67,113.665 "/>
<polygon fill="#EE2C24" stroke="#000000" stroke-miterlimit="10" points="693.337,95.665 698.003,112.331 716.337,124.665 
	716.003,103.998 701.003,93.998 "/>
<polygon fill="#EE2C24" stroke="#000000" stroke-miterlimit="10" points="652.003,69.331 652.003,76.331 660.67,81.331 
	688.337,91.331 704.003,87.665 697.003,76.998 662.67,67.665 "/>
<polygon fill="#EE2C24" stroke="#000000" stroke-miterlimit="10" points="503.003,69.331 517.337,76.331 549.003,62.998 
	549.003,56.998 532.003,51.665 506.67,58.665 "/>
</svg>
