<?xml version="1.0" encoding="utf-8"?>
<!-- Generator: Adobe Illustrator 16.0.0, SVG Export Plug-In . SVG Version: 6.00 Build 0)  -->
<!DOCTYPE svg PUBLIC "-//W3C//DTD SVG 1.1//EN" "http://www.w3.org/Graphics/SVG/1.1/DTD/svg11.dtd">
<svg version="1.1" id="pyramids" xmlns="http://www.w3.org/2000/svg" xmlns:xlink="http://www.w3.org/1999/xlink" x="0px" y="0px"
	 width="1024px" height="650px" viewBox="-4.75 0 1024 650" enable-background="new -4.75 0 1024 650" xml:space="preserve">
<g id="polygons">
	<polygon fill="#F04D44" points="122.226,580.058 163.138,631.604 151.226,600.058 	"/>
	<polygon fill="#F04D44" points="183.726,569.308 163.138,631.604 151.226,600.058 	"/>
	<polygon fill="#F04D44" points="122.226,580.058 181.311,571.593 151.769,599.535 	"/>
	<path fill="#F04D44" d="M163.226,544.308"/>
	<polyline fill="#F04D44" points="69.976,480.558 95.115,444.314 92.226,501.058 66.726,480.114 68.226,478.996 93.726,444.197 
		42.998,471.558 	"/>
	<polyline fill="#F04D44" points="46.71,474.183 88.882,501.058 66.726,480.114 	"/>
	<polyline fill="#F04D44" points="138.907,508.058 177.369,472.558 175.958,475.727 161.574,508.058 	"/>
	<polyline fill="#F04D44" points="141.911,509.058 163.138,508.058 182.476,522.563 	"/>
	<polyline fill="#F04D44" points="177.369,472.558 182.374,521.558 163.547,507.037 	"/>
	<polyline fill="#F04D44" points="29.226,560.058 29.226,548.058 48.226,560.058 	"/>
	<polyline fill="#F04D44" points="23.771,571.058 29.226,561.058 48.226,561.058 	"/>
	<path fill="#F04D44" d="M29.226,548.058"/>
	<path fill="#F04D44" d="M29.226,548.058"/>
	<polyline fill="#F04D44" points="23.226,569.308 29.226,550.308 29.226,561.058 	"/>
	<polyline fill="#F04D44" points="18.391,389.534 29.226,366.059 29.226,385.809 	"/>
	<polyline fill="#F04D44" points="19.476,392.559 29.226,387.009 47.626,391.236 	"/>
	<polyline fill="#F04D44" points="29.226,366.059 46.564,389.784 30.726,387.009 	"/>
	<polyline fill="#F04D44" points="30.726,243.058 48.226,273.558 43.226,304.058 	"/>
	<polyline fill="#F04D44" points="32.226,243.058 90.929,264.338 48.226,272.308 	"/>
	<polyline fill="#F04D44" points="48.226,273.558 90.929,264.338 43.726,303.058 	"/>
	<polyline fill="#F04D44" points="151.023,253.183 172.807,243.058 179.226,195.058 	"/>
	<polyline fill="#F04D44" points="171.96,243.514 179.562,195.832 210.226,250.808 	"/>
	<path fill="#F04D44" d="M173.476,243.058"/>
	<polyline fill="#F04D44" points="173.476,243.058 210.226,250.614 151.023,253.183 	"/>
	<polyline fill="#F04D44" points="216.226,345.559 290.941,297.058 164.226,296.808 	"/>
	<polyline fill="#F04D44" points="290.476,298.058 228.476,406.059 217.726,345.559 	"/>
	<polyline fill="#F04D44" points="215.226,346.559 228.121,404.059 168.226,301.909 	"/>
	<polyline fill="#F04D44" points="161.976,387.009 191.726,401.059 168.634,351.434 	"/>
	<polyline fill="#F04D44" points="161.976,388.012 139.226,398.059 160.691,387.416 168.226,350.559 142.634,392.736 	"/>
	<polyline fill="#F04D44" points="160.46,386.236 139.226,396.059 190.976,401.184 	"/>
	<polyline fill="#F04D44" points="168.226,458.558 168.664,458.928 205.226,489.808 216.226,535.808 169.908,461.308 	"/>
	<polyline fill="#F04D44" points="205.226,487.808 253.039,459.433 168.226,457.308 	"/>
	<polyline fill="#F04D44" points="217.726,534.058 253.039,461.308 205.976,489.308 	"/>
	<polyline fill="#F04D44" points="230.226,406.059 336.941,402.059 275.226,379.059 	"/>
	<path fill="#F04D44" d="M347.85,406.059"/>
	<path fill="#F04D44" d="M291.941,298.058"/>
	<polyline fill="#F04D44" points="291.941,295.058 355.656,404.559 275.37,380.693 	"/>
	<polyline fill="#F04D44" points="274.226,378.309 290.366,300.058 230.226,403.009 	"/>
	<polyline fill="#F04D44" points="276.395,452.857 348.031,403.759 231.778,407.938 	"/>
	<polyline fill="#F04D44" points="292.34,515.653 355.476,402.059 276.226,453.557 	"/>
	<polyline fill="#F04D44" points="275.226,452.857 233.083,411.223 290.941,515.31 	"/>
	<polyline fill="#F04D44" points="286.726,509.058 254.226,454.058 251.946,497.808 	"/>
	<path fill="#F04D44" d="M230.226,512.058c0.5-1.5,21.625-11,21.625-11l32.875,8"/>
	<polyline fill="#F04D44" points="230.226,509.058 251.851,499.433 254.226,458.854 	"/>
	<polyline fill="#F04D44" points="381.1,506.246 331.605,488.808 343.729,430.808 	"/>
	<polyline fill="#F04D44" points="298.91,506.058 342.973,427.857 342.616,429.747 331.226,489.808 298.044,508.058 
		330.317,490.308 380.585,506.558 	"/>
	<polyline fill="#F04D44" points="355.976,79.558 333.4,14.71 436.976,68.496 355.976,81.058 336.976,135.058 434.416,70.558 	"/>
	<polyline fill="#F04D44" points="330.976,14.71 355.226,81.058 336.976,132.558 	"/>
	<polyline fill="#F04D44" points="401.726,140.558 439.325,69.453 343.039,135.503 	"/>
	<polygon fill="#F04D44" points="401.976,140.058 440.726,68.496 447.226,186.558 	"/>
	<polyline fill="#F04D44" points="348.531,137.058 401.976,140.058 444.283,186.558 	"/>
	<polyline fill="#F04D44" points="448.537,127.527 466.416,147.558 464.226,177.558 	"/>
	<polyline fill="#F04D44" points="505.726,135.058 466.416,146.558 448.537,126.058 	"/>
	<polyline fill="#F04D44" points="465.321,177.449 505.017,136.808 466.416,147.558 	"/>
	<polyline fill="#F04D44" points="447.226,200.058 501.842,140.058 491.822,188.308 	"/>
	<line fill="#F04D44" x1="531.476" y1="217.808" x2="505.017" y2="136.808"/>
	<polyline fill="#F04D44" points="343.226,158.058 427.603,178.058 373.226,198.558 	"/>
	<path fill="#F04D44" d="M372.149,241.586"/>
	<polyline fill="#F04D44" points="478.226,243.058 531.476,220.058 448.537,201.058 	"/>
	<polyline fill="#F04D44" points="474.535,287.058 476.726,243.058 447.226,200.058 	"/>
	<path fill="#F04D44" d="M528.226,223.433"/>
	<line fill="#F04D44" x1="478.226" y1="288.808" x2="528.226" y2="223.433"/>
	<polyline fill="#F04D44" points="472.226,287.058 411.257,253.808 429.976,177.058 	"/>
	<path fill="#F04D44" d="M478.226,287.058"/>
	<polyline fill="#F04D44" points="411.088,254.558 469.806,287.058 359.35,271.227 	"/>
	<polyline fill="#F04D44" points="426.976,184.058 411.257,253.808 359.35,269.607 	"/>
	<polyline fill="#F04D44" points="583.386,184.982 596.464,243.058 568.726,216.558 	"/>
	<polyline fill="#F04D44" points="515.226,273.558 522.067,236.558 550.476,288.808 	"/>
	<polyline fill="#F04D44" points="487.976,281.808 514.226,273.558 520.074,236.558 	"/>
	<polyline fill="#F04D44" points="543.643,289.058 515.226,274.808 490.976,282.808 	"/>
	<polyline fill="#F04D44" points="473.932,294.058 533.976,392.059 526.646,331.923 	"/>
	<polyline fill="#F04D44" points="593.625,289.058 473.932,291.058 526.646,330.809 	"/>
	<polyline fill="#F04D44" points="479.226,243.558 528.226,224.433 475.318,288.622 	"/>
	<polyline fill="#F04D44" points="546.226,218.788 567.554,216.558 582.109,184.982 543.643,217.808 	"/>
	<line fill="#F04D44" x1="593.625" y1="241.636" x2="543.643" y2="219.058"/>
	<polyline fill="#F04D44" points="399.476,327.253 471.726,289.058 351.835,282.308 	"/>
	<polyline fill="#F04D44" points="399.476,328.559 469.806,290.906 405.698,387.416 	"/>
	<polyline fill="#F04D44" points="351.835,283.558 398.476,328.559 404.056,384.4 	"/>
	<polyline fill="#F04D44" points="311.539,284.558 358.226,254.558 320.226,324.281 	"/>
	<polyline fill="#F04D44" points="276.226,254.558 355.476,254.558 311.539,283.558 	"/>
	<polyline fill="#F04D44" points="343.389,319.809 347.226,284.558 374.867,331.809 	"/>
	<polyline fill="#F04D44" points="350.835,398.736 320.226,340.559 345.226,366.059 	"/>
	<polyline fill="#F04D44" points="343.226,321.309 322.693,326.616 372.086,330.809 	"/>
	<polyline fill="#F04D44" points="375.474,461.308 428.102,432.808 341.226,425.808 	"/>
	<path fill="#F04D44" d="M348.031,434.077"/>
	<path fill="#F04D44" d="M381.1,497.683"/>
	<polyline fill="#F04D44" points="348.031,434.077 380.481,497.183 374.726,461.308 	"/>
	<polyline fill="#F04D44" points="428.102,432.808 382.1,504.683 376.476,461.308 	"/>
	<polyline fill="#F04D44" points="306.083,563.058 372.226,514.058 258.726,512.058 	"/>
	<polyline fill="#F04D44" points="373.226,516.558 307.976,564.558 315.226,620.058 	"/>
	<polyline fill="#F04D44" points="258.726,513.433 304.976,564.558 313.726,617.329 	"/>
	<polyline fill="#F04D44" points="386.383,510.558 375.474,590.058 323.226,604.058 	"/>
	<polyline fill="#F04D44" points="375.611,590.058 386.726,509.058 441.169,609.058 	"/>
	<path fill="#F04D44" d="M324.476,606.058"/>
	<polyline fill="#F04D44" points="426.976,548.691 471.574,515.653 428.48,584.471 	"/>
	<polyline fill="#F04D44" points="426.498,549.027 473.726,514.058 391.226,512.058 	"/>
	<polyline fill="#F04D44" points="425.717,581.063 425.717,548.257 393.012,515.653 	"/>
	<polyline fill="#F04D44" points="321.476,607.058 446.339,609.058 375.476,589.808 	"/>
	<polyline fill="#F04D44" points="428.617,434.077 418.226,491.808 383.445,501.972 	"/>
	<polyline fill="#F04D44" points="430.226,434.077 418.226,491.808 471.726,505.246 	"/>
	<polyline fill="#F04D44" points="381.908,504.246 466.726,505.558 418.226,490.871 	"/>
	<polyline fill="#F04D44" points="475.373,511.058 522.067,554.558 527.955,608.558 	"/>
	<polyline fill="#F04D44" points="528.226,611.058 591.696,509.058 522.067,554.558 	"/>
	<polyline fill="#F04D44" points="473.226,509.058 590.726,508.058 522.067,553.308 	"/>
	<polyline fill="#F04D44" points="409.365,392.559 529.869,399.059 460.726,439.561 	"/>
	<polyline fill="#F04D44" points="466.117,496.261 409.714,394.736 460.604,440.371 533.252,394.118 468.226,503.058 	"/>
	<polyline fill="#F04D44" points="522.067,482.683 531.226,398.059 469.377,505.558 	"/>
	<polyline fill="#F04D44" points="591.696,501.972 522.869,482.683 531.226,398.059 	"/>
	<polyline fill="#F04D44" points="533.3,399.059 658.099,402.059 588.226,444.808 	"/>
	<polyline fill="#F04D44" points="589.226,446.482 657.099,405.023 593.226,500.808 	"/>
	<polyline fill="#F04D44" points="587.226,446.482 532.939,399.213 591.696,500.239 	"/>
	<polyline fill="#F04D44" points="661.479,405.023 716.536,455.308 711.807,506.058 	"/>
	<polyline fill="#F04D44" points="661.479,402.29 714.62,453.558 778.744,413.37 	"/>
	<polyline fill="#F04D44" points="711.807,508.058 716.536,453.558 781.609,414.058 	"/>
	<polyline fill="#F04D44" points="661.729,398.059 717.536,382.059 776.226,410.059 	"/>
	<polyline fill="#F04D44" points="775.381,408.059 717.628,381.268 727.226,299.058 	"/>
	<polyline fill="#F04D44" points="662.359,397.059 717.536,382.059 728.109,294.058 	"/>
	<polyline fill="#F04D44" points="657.872,337.499 658.872,399.999 725.885,293.969 	"/>
	<polyline fill="#F04D44" points="656.42,338.059 720.111,295.058 594.313,290.48 	"/>
	<polyline fill="#F04D44" points="587.3,372.295 596.625,295.808 536.226,390.559 	"/>
	<polyline fill="#F04D44" points="537.939,392.059 588.226,372.309 650.376,398.059 	"/>
	<polyline fill="#F04D44" points="596.158,290.808 657.726,399.559 588.726,372.309 	"/>
	<polyline fill="#F04D44" points="533.976,390.559 595.164,290.058 527.226,331.979 	"/>
	<polyline fill="#F04D44" points="460.604,366.059 472.226,291.058 412.464,386.184 	"/>
	<polyline fill="#F04D44" points="460.976,365.809 472.226,292.058 527.226,394.736 	"/>
	<polyline fill="#F04D44" points="460.604,366.059 525.869,396.059 412.578,387.416 	"/>
	<polyline fill="#F04D44" points="311.226,284.058 277.083,256.808 318.476,323.309 	"/>
	<polyline fill="#F04D44" points="347.226,284.558 342.226,320.809 320.976,327.281 	"/>
	<polyline fill="#F04D44" points="345.726,365.059 382.481,347.559 353.353,402.559 	"/>
	<polyline fill="#F04D44" points="345.389,366.059 320.976,341.398 381.976,346.559 	"/>
	<polyline fill="#F04D44" points="377.726,408.059 383.726,348.912 425.421,426.45 	"/>
	<polyline fill="#F04D44" points="345.835,419.06 377.867,408.059 382.481,350.559 	"/>
	<polyline fill="#F04D44" points="345.835,420.002 377.242,408.223 422.226,426.237 	"/>
	<polyline fill="#F04D44" points="373.726,198.885 421.033,180.308 373.946,243.558 	"/>
	<polyline fill="#F04D44" points="343.585,162.808 372.149,243.558 373.226,199.058 	"/>
	<polyline fill="#F04D44" points="492.226,189.058 504.017,136.808 532.726,219.058 	"/>
	<polyline fill="#F04D44" points="449.726,200.058 490.976,188.558 532.067,219.058 	"/>
	<polyline fill="#F04D44" points="546.226,219.058 567.554,217.808 594.226,243.058 	"/>
	<polyline fill="#F04D44" points="604.476,300.308 656.99,395.736 656.99,338.559 	"/>
</g>
<g id="outlines">
	
		<line fill="#F04D44" stroke="#6B6B6B" stroke-width="2" stroke-miterlimit="10" x1="660.28" y1="183.554" x2="723.28" y2="293.554"/>
	
		<line fill="#F04D44" stroke="#6B6B6B" stroke-width="2" stroke-miterlimit="10" x1="723.28" y1="293.554" x2="786.28" y2="183.554"/>
	
		<line fill="#F04D44" stroke="#6B6B6B" stroke-width="2" stroke-miterlimit="10" x1="786.28" y1="183.554" x2="660.28" y2="183.554"/>
	
		<line fill="#F04D44" stroke="#6B6B6B" stroke-width="2" stroke-miterlimit="10" x1="727.476" y1="293.554" x2="776.476" y2="409.555"/>
	
		<line fill="#F04D44" stroke="#6B6B6B" stroke-width="2" stroke-miterlimit="10" x1="786.28" y1="413.555" x2="659.28" y2="401.555"/>
	
		<line fill="#F04D44" stroke="#6B6B6B" stroke-width="2" stroke-miterlimit="10" x1="783.28" y1="411.555" x2="711.476" y2="512.555"/>
	
		<line fill="#F04D44" stroke="#6B6B6B" stroke-width="2" stroke-miterlimit="10" x1="715.476" y1="514.555" x2="660.28" y2="401.555"/>
	
		<line fill="#F04D44" stroke="#6B6B6B" stroke-width="2" stroke-miterlimit="10" x1="659.28" y1="401.555" x2="593.476" y2="502.555"/>
	
		<line fill="#F04D44" stroke="#6B6B6B" stroke-width="2" stroke-miterlimit="10" x1="593.476" y1="502.555" x2="531.476" y2="397.555"/>
	
		<line fill="#F04D44" stroke="#6B6B6B" stroke-width="2" stroke-miterlimit="10" x1="532.476" y1="397.555" x2="658.349" y2="398.555"/>
	
		<line fill="#F04D44" stroke="#6B6B6B" stroke-width="2" stroke-miterlimit="10" x1="596.913" y1="288.554" x2="717.785" y2="294.554"/>
	
		<line fill="#F04D44" stroke="#6B6B6B" stroke-width="2" stroke-miterlimit="10" x1="596.913" y1="288.554" x2="659.28" y2="401.555"/>
	
		<line fill="#F04D44" stroke="#6B6B6B" stroke-width="2" stroke-miterlimit="10" x1="659.28" y1="401.555" x2="535.476" y2="391.555"/>
	
		<line fill="#F04D44" stroke="#6B6B6B" stroke-width="2" stroke-miterlimit="10" x1="534.226" y1="391.555" x2="596.913" y2="293.554"/>
	
		<line fill="#F04D44" stroke="#6B6B6B" stroke-width="2" stroke-miterlimit="10" x1="596.913" y1="288.554" x2="478.476" y2="288.554"/>
	
		<line fill="#F04D44" stroke="#6B6B6B" stroke-width="2" stroke-miterlimit="10" x1="472.476" y1="290.554" x2="529.476" y2="396.555"/>
	
		<line fill="#F04D44" stroke="#6B6B6B" stroke-width="2" stroke-miterlimit="10" x1="593.476" y1="507.555" x2="473.476" y2="508.555"/>
	
		<line fill="#F04D44" stroke="#6B6B6B" stroke-width="2" stroke-miterlimit="10" x1="468.476" y1="505.555" x2="531.476" y2="397.555"/>
	
		<line fill="#F04D44" stroke="#6B6B6B" stroke-width="2" stroke-miterlimit="10" x1="473.476" y1="508.555" x2="408.476" y2="391.555"/>
	
		<line fill="#F04D44" stroke="#6B6B6B" stroke-width="2" stroke-miterlimit="10" x1="411.338" y1="386.912" x2="535.476" y2="397.555"/>
	
		<line fill="#F04D44" stroke="#6B6B6B" stroke-width="2" stroke-miterlimit="10" x1="408.476" y1="391.555" x2="471.976" y2="288.554"/>
	
		<line fill="#F04D44" stroke="#6B6B6B" stroke-width="2" stroke-miterlimit="10" x1="478.476" y1="288.554" x2="533.476" y2="219.554"/>
	
		<line fill="#F04D44" stroke="#6B6B6B" stroke-width="2" stroke-miterlimit="10" x1="533.476" y1="219.554" x2="447.476" y2="199.554"/>
	
		<line fill="#F04D44" stroke="#6B6B6B" stroke-width="2" stroke-miterlimit="10" x1="444.476" y1="200.554" x2="475.476" y2="289.554"/>
	
		<line fill="#F04D44" stroke="#6B6B6B" stroke-width="2" stroke-miterlimit="10" x1="478.476" y1="288.554" x2="358.476" y2="270.554"/>
	
		<line fill="#F04D44" stroke="#6B6B6B" stroke-width="2" stroke-miterlimit="10" x1="358.476" y1="270.554" x2="430.476" y2="177.555"/>
	
		<line fill="#F04D44" stroke="#6B6B6B" stroke-width="2" stroke-miterlimit="10" x1="430.476" y1="177.555" x2="343.476" y2="157.555"/>
	
		<line fill="#F04D44" stroke="#6B6B6B" stroke-width="2" stroke-miterlimit="10" x1="342.476" y1="158.555" x2="373.476" y2="244.054"/>
	
		<line fill="#F04D44" stroke="#6B6B6B" stroke-width="2" stroke-miterlimit="10" x1="447.476" y1="187.554" x2="343.476" y2="134.555"/>
	
		<line fill="#F04D44" stroke="#6B6B6B" stroke-width="2" stroke-miterlimit="10" x1="343.476" y1="134.555" x2="440.476" y2="68.555"/>
	
		<line fill="#F04D44" stroke="#6B6B6B" stroke-width="2" stroke-miterlimit="10" x1="440.476" y1="68.555" x2="447.476" y2="187.554"/>
	
		<line fill="#F04D44" stroke="#6B6B6B" stroke-width="2" stroke-miterlimit="10" x1="448.476" y1="125.555" x2="506.976" y2="134.555"/>
	
		<line fill="#F04D44" stroke="#6B6B6B" stroke-width="2" stroke-miterlimit="10" x1="506.976" y1="134.555" x2="464.976" y2="177.555"/>
	
		<line fill="#F04D44" stroke="#6B6B6B" stroke-width="2" stroke-miterlimit="10" x1="464.476" y1="177.555" x2="447.476" y2="125.555"/>
	
		<line fill="#F04D44" stroke="#6B6B6B" stroke-width="2" stroke-miterlimit="10" x1="661.349" y1="398.555" x2="727.476" y2="293.554"/>
	
		<line fill="#F04D44" stroke="#6B6B6B" stroke-width="2" stroke-miterlimit="10" x1="473.476" y1="508.555" x2="386.976" y2="507.555"/>
	
		<line fill="#F04D44" stroke="#6B6B6B" stroke-width="2" stroke-miterlimit="10" x1="380.976" y1="505.555" x2="430.476" y2="431.154"/>
	
		<line fill="#F04D44" stroke="#6B6B6B" stroke-width="2" stroke-miterlimit="10" x1="430.476" y1="431.154" x2="342.476" y2="423.555"/>
	
		<line fill="#F04D44" stroke="#6B6B6B" stroke-width="2" stroke-miterlimit="10" x1="342.476" y1="423.555" x2="380.976" y2="502.555"/>
	
		<line fill="#F04D44" stroke="#6B6B6B" stroke-width="2" stroke-miterlimit="10" x1="347.476" y1="279.554" x2="408.476" y2="391.555"/>
	
		<line fill="#F04D44" stroke="#6B6B6B" stroke-width="2" stroke-miterlimit="10" x1="383.694" y1="348.055" x2="296.476" y2="510.555"/>
	
		<line fill="#F04D44" stroke="#6B6B6B" stroke-width="2" stroke-miterlimit="10" x1="320.476" y1="340.055" x2="353.905" y2="401.555"/>
	
		<line fill="#F04D44" stroke="#6B6B6B" stroke-width="2" stroke-miterlimit="10" x1="320.476" y1="340.055" x2="383.694" y2="346.055"/>
	
		<line fill="#F04D44" stroke="#6B6B6B" stroke-width="2" stroke-miterlimit="10" x1="347.905" y1="401.555" x2="230.476" y2="405.555"/>
	
		<line fill="#F04D44" stroke="#6B6B6B" stroke-width="2" stroke-miterlimit="10" x1="230.476" y1="405.555" x2="292.19" y2="294.554"/>
	
		<line fill="#F04D44" stroke="#6B6B6B" stroke-width="2" stroke-miterlimit="10" x1="292.19" y1="294.554" x2="320.476" y2="340.055"/>
	
		<line fill="#F04D44" stroke="#6B6B6B" stroke-width="2" stroke-miterlimit="10" x1="291.19" y1="296.554" x2="167.476" y2="296.554"/>
	
		<line fill="#F04D44" stroke="#6B6B6B" stroke-width="2" stroke-miterlimit="10" x1="296.476" y1="508.555" x2="377.976" y2="514.555"/>
	
		<line fill="#F04D44" stroke="#6B6B6B" stroke-width="2" stroke-miterlimit="10" x1="391.476" y1="511.555" x2="430.226" y2="589.555"/>
	
		<line fill="#F04D44" stroke="#6B6B6B" stroke-width="2" stroke-miterlimit="10" x1="427.226" y1="588.555" x2="473.976" y2="513.555"/>
	
		<line fill="#F04D44" stroke="#6B6B6B" stroke-width="2" stroke-miterlimit="10" x1="430.226" y1="589.555" x2="443.101" y2="611.555"/>
	
		<line fill="#F04D44" stroke="#6B6B6B" stroke-width="2" stroke-miterlimit="10" x1="445.101" y1="610.555" x2="320.476" y2="605.555"/>
	
		<line fill="#F04D44" stroke="#6B6B6B" stroke-width="2" stroke-miterlimit="10" x1="320.476" y1="605.555" x2="386.976" y2="507.555"/>
	<path fill="#F04D44" stroke="#6B6B6B" stroke-width="2" stroke-miterlimit="10" d="M315.476,619.555"/>
	
		<line fill="#F04D44" stroke="#6B6B6B" stroke-width="2" stroke-miterlimit="10" x1="315.476" y1="619.555" x2="254.476" y2="508.555"/>
	
		<line fill="#F04D44" stroke="#6B6B6B" stroke-width="2" stroke-miterlimit="10" x1="254.476" y1="508.555" x2="296.476" y2="508.555"/>
	
		<line fill="#F04D44" stroke="#6B6B6B" stroke-width="2" stroke-miterlimit="10" x1="254.476" y1="508.555" x2="230.476" y2="511.555"/>
	
		<line fill="#F04D44" stroke="#6B6B6B" stroke-width="2" stroke-miterlimit="10" x1="227.476" y1="510.555" x2="216.476" y2="531.555"/>
	
		<line fill="#F04D44" stroke="#6B6B6B" stroke-width="2" stroke-miterlimit="10" x1="216.476" y1="536.555" x2="168.476" y2="458.055"/>
	
		<line fill="#F04D44" stroke="#6B6B6B" stroke-width="2" stroke-miterlimit="10" x1="168.476" y1="458.055" x2="254.476" y2="458.055"/>
	
		<line fill="#F04D44" stroke="#6B6B6B" stroke-width="2" stroke-miterlimit="10" x1="92.476" y1="502.555" x2="95.476" y2="441.555"/>
	
		<line fill="#F04D44" stroke="#6B6B6B" stroke-width="2" stroke-miterlimit="10" x1="95.476" y1="441.555" x2="41.476" y2="472.055"/>
	
		<line fill="#F04D44" stroke="#6B6B6B" stroke-width="2" stroke-miterlimit="10" x1="41.476" y1="472.055" x2="92.476" y2="502.555"/>
	
		<line fill="#F04D44" stroke="#6B6B6B" stroke-width="2" stroke-miterlimit="10" x1="17.476" y1="391.555" x2="48.476" y2="391.555"/>
	
		<line fill="#F04D44" stroke="#6B6B6B" stroke-width="2" stroke-miterlimit="10" x1="48.476" y1="391.555" x2="29.476" y2="365.555"/>
	
		<line fill="#F04D44" stroke="#6B6B6B" stroke-width="2" stroke-miterlimit="10" x1="29.476" y1="365.555" x2="17.476" y2="391.555"/>
	
		<line fill="#F04D44" stroke="#6B6B6B" stroke-width="2" stroke-miterlimit="10" x1="141.476" y1="394.555" x2="168.476" y2="350.055"/>
	
		<line fill="#F04D44" stroke="#6B6B6B" stroke-width="2" stroke-miterlimit="10" x1="168.476" y1="350.055" x2="192.476" y2="401.555"/>
	
		<line fill="#F04D44" stroke="#6B6B6B" stroke-width="2" stroke-miterlimit="10" x1="192.476" y1="403.555" x2="139.476" y2="397.555"/>
	
		<line fill="#F04D44" stroke="#6B6B6B" stroke-width="2" stroke-miterlimit="10" x1="43.976" y1="304.554" x2="92.476" y2="263.554"/>
	
		<line fill="#F04D44" stroke="#6B6B6B" stroke-width="2" stroke-miterlimit="10" x1="92.476" y1="263.554" x2="30.976" y2="242.554"/>
	
		<line fill="#F04D44" stroke="#6B6B6B" stroke-width="2" stroke-miterlimit="10" x1="30.976" y1="242.554" x2="43.476" y2="303.554"/>
	
		<line fill="#F04D44" stroke="#6B6B6B" stroke-width="2" stroke-miterlimit="10" x1="149.476" y1="254.054" x2="180.476" y2="194.554"/>
	
		<line fill="#F04D44" stroke="#6B6B6B" stroke-width="2" stroke-miterlimit="10" x1="179.476" y1="194.554" x2="211.476" y2="251.304"/>
	
		<line fill="#F04D44" stroke="#6B6B6B" stroke-width="2" stroke-miterlimit="10" x1="211.476" y1="251.304" x2="149.476" y2="254.054"/>
	
		<line fill="#F04D44" stroke="#6B6B6B" stroke-width="2" stroke-miterlimit="10" x1="375.724" y1="331.42" x2="320.476" y2="326.75"/>
	
		<line fill="#F04D44" stroke="#6B6B6B" stroke-width="2" stroke-miterlimit="10" x1="320.476" y1="326.75" x2="347.476" y2="279.554"/>
	
		<line fill="#F04D44" stroke="#6B6B6B" stroke-width="2" stroke-miterlimit="10" x1="275.476" y1="254.054" x2="358.476" y2="254.054"/>
	
		<line fill="#F04D44" stroke="#6B6B6B" stroke-width="2" stroke-miterlimit="10" x1="275.476" y1="254.054" x2="320.476" y2="326.75"/>
	
		<line fill="#F04D44" stroke="#6B6B6B" stroke-width="2" stroke-miterlimit="10" x1="364.726" y1="254.054" x2="347.476" y2="279.554"/>
	
		<line fill="#F04D44" stroke="#6B6B6B" stroke-width="2" stroke-miterlimit="10" x1="506.976" y1="134.555" x2="533.476" y2="219.554"/>
	
		<line fill="#F04D44" stroke="#6B6B6B" stroke-width="2" stroke-miterlimit="10" x1="522.316" y1="233.554" x2="552.476" y2="288.554"/>
	
		<line fill="#F04D44" stroke="#6B6B6B" stroke-width="2" stroke-miterlimit="10" x1="660.28" y1="183.554" x2="596.913" y2="288.554"/>
	
		<line fill="#F04D44" stroke="#6B6B6B" stroke-width="2" stroke-miterlimit="10" x1="660.28" y1="183.554" x2="727.476" y2="293.554"/>
	
		<line fill="#F04D44" stroke="#6B6B6B" stroke-width="2" stroke-miterlimit="10" x1="727.476" y1="293.554" x2="786.28" y2="183.554"/>
	
		<line fill="#F04D44" stroke="#6B6B6B" stroke-width="2" stroke-miterlimit="10" x1="846.476" y1="106.555" x2="794.476" y2="172.555"/>
	
		<line fill="#F04D44" stroke="#6B6B6B" stroke-width="2" stroke-miterlimit="10" x1="794.476" y1="172.555" x2="879.476" y2="187.554"/>
	
		<line fill="#F04D44" stroke="#6B6B6B" stroke-width="2" stroke-miterlimit="10" x1="846.476" y1="106.555" x2="879.476" y2="187.554"/>
	
		<line fill="#F04D44" stroke="#6B6B6B" stroke-width="2" stroke-miterlimit="10" x1="879.476" y1="187.554" x2="831.476" y2="254.054"/>
	
		<line fill="#F04D44" stroke="#6B6B6B" stroke-width="2" stroke-miterlimit="10" x1="823.476" y1="253.054" x2="789.476" y2="177.055"/>
	
		<line fill="#F04D44" stroke="#6B6B6B" stroke-width="2" stroke-miterlimit="10" x1="828.476" y1="261.054" x2="744.85" y2="261.054"/>
	
		<line fill="#F04D44" stroke="#6B6B6B" stroke-width="2" stroke-miterlimit="10" x1="740.85" y1="261.054" x2="781.28" y2="338.055"/>
	
		<line fill="#F04D44" stroke="#6B6B6B" stroke-width="2" stroke-miterlimit="10" x1="781.92" y1="335.555" x2="828.476" y2="261.054"/>
	
		<line fill="#F04D44" stroke="#6B6B6B" stroke-width="2" stroke-miterlimit="10" x1="830.476" y1="261.804" x2="916.476" y2="266.804"/>
	
		<line fill="#F04D44" stroke="#6B6B6B" stroke-width="2" stroke-miterlimit="10" x1="916.476" y1="266.804" x2="879.476" y2="187.554"/>
	
		<line fill="#F04D44" stroke="#6B6B6B" stroke-width="2" stroke-miterlimit="10" x1="583.476" y1="183.055" x2="596.913" y2="244.054"/>
	
		<line fill="#F04D44" stroke="#6B6B6B" stroke-width="2" stroke-miterlimit="10" x1="583.476" y1="183.055" x2="542.694" y2="219.054"/>
	
		<line fill="#F04D44" stroke="#6B6B6B" stroke-width="2" stroke-miterlimit="10" x1="542.694" y1="219.054" x2="596.913" y2="244.054"/>
	
		<line fill="#F04D44" stroke="#6B6B6B" stroke-width="2" stroke-miterlimit="10" x1="905.476" y1="160.555" x2="887.476" y2="112.555"/>
	
		<line fill="#F04D44" stroke="#6B6B6B" stroke-width="2" stroke-miterlimit="10" x1="908.476" y1="160.555" x2="944.476" y2="120.555"/>
	
		<line fill="#F04D44" stroke="#6B6B6B" stroke-width="2" stroke-miterlimit="10" x1="944.476" y1="117.555" x2="889.476" y2="112.555"/>
	
		<line fill="#F04D44" stroke="#6B6B6B" stroke-width="2" stroke-miterlimit="10" x1="963.476" y1="199.554" x2="946.476" y2="151.555"/>
	
		<line fill="#F04D44" stroke="#6B6B6B" stroke-width="2" stroke-miterlimit="10" x1="948.476" y1="151.555" x2="999.476" y2="157.555"/>
	
		<line fill="#F04D44" stroke="#6B6B6B" stroke-width="2" stroke-miterlimit="10" x1="999.476" y1="157.555" x2="965.476" y2="199.554"/>
	
		<line fill="#F04D44" stroke="#6B6B6B" stroke-width="2" stroke-miterlimit="10" x1="965.476" y1="199.304" x2="931.476" y2="248.554"/>
	
		<line fill="#F04D44" stroke="#6B6B6B" stroke-width="2" stroke-miterlimit="10" x1="934.476" y1="248.554" x2="995.476" y2="254.054"/>
	
		<line fill="#F04D44" stroke="#6B6B6B" stroke-width="2" stroke-miterlimit="10" x1="995.476" y1="254.054" x2="967.476" y2="199.554"/>
	
		<line fill="#F04D44" stroke="#6B6B6B" stroke-width="2" stroke-miterlimit="10" x1="993.476" y1="256.054" x2="964.476" y2="307.554"/>
	
		<line fill="#F04D44" stroke="#6B6B6B" stroke-width="2" stroke-miterlimit="10" x1="962.476" y1="307.554" x2="929.476" y2="253.054"/>
	
		<line fill="#F04D44" stroke="#6B6B6B" stroke-width="2" stroke-miterlimit="10" x1="933.476" y1="251.054" x2="995.476" y2="253.054"/>
	
		<line fill="#F04D44" stroke="#6B6B6B" stroke-width="2" stroke-miterlimit="10" x1="847.226" y1="298.554" x2="838.976" y2="357.555"/>
	
		<line fill="#F04D44" stroke="#6B6B6B" stroke-width="2" stroke-miterlimit="10" x1="836.976" y1="357.555" x2="903.476" y2="340.055"/>
	
		<line fill="#F04D44" stroke="#6B6B6B" stroke-width="2" stroke-miterlimit="10" x1="902.476" y1="340.055" x2="847.226" y2="298.554"/>
	
		<line fill="#F04D44" stroke="#6B6B6B" stroke-width="2" stroke-miterlimit="10" x1="593.476" y1="507.555" x2="530.476" y2="611.555"/>
	
		<line fill="#F04D44" stroke="#6B6B6B" stroke-width="2" stroke-miterlimit="10" x1="528.476" y1="610.555" x2="473.476" y2="508.555"/>
	
		<line fill="#F04D44" stroke="#6B6B6B" stroke-width="2" stroke-miterlimit="10" x1="473.476" y1="508.555" x2="593.476" y2="507.555"/>
	
		<line fill="#F04D44" stroke="#6B6B6B" stroke-width="2" stroke-miterlimit="10" x1="185.726" y1="570.555" x2="163.476" y2="631.555"/>
	
		<line fill="#F04D44" stroke="#6B6B6B" stroke-width="2" stroke-miterlimit="10" x1="163.476" y1="631.555" x2="122.476" y2="579.555"/>
	
		<line fill="#F04D44" stroke="#6B6B6B" stroke-width="2" stroke-miterlimit="10" x1="123.476" y1="578.555" x2="185.726" y2="570.555"/>
	
		<line fill="#F04D44" stroke="#6B6B6B" stroke-width="2" stroke-miterlimit="10" x1="182.726" y1="522.059" x2="177.618" y2="472.055"/>
	
		<line fill="#F04D44" stroke="#6B6B6B" stroke-width="2" stroke-miterlimit="10" x1="177.618" y1="471.055" x2="139.156" y2="507.555"/>
	
		<line fill="#F04D44" stroke="#6B6B6B" stroke-width="2" stroke-miterlimit="10" x1="139.156" y1="507.555" x2="182.726" y2="522.059"/>
	
		<line fill="#F04D44" stroke="#6B6B6B" stroke-width="2" stroke-miterlimit="10" x1="337.226" y1="134.555" x2="331.476" y2="14.555"/>
	
		<line fill="#F04D44" stroke="#6B6B6B" stroke-width="2" stroke-miterlimit="10" x1="440.976" y1="67.993" x2="332.351" y2="13.555"/>
	
		<line fill="#F04D44" stroke="#6B6B6B" stroke-width="2" stroke-miterlimit="10" x1="287.476" y1="508.555" x2="230.476" y2="405.555"/>
	
		<line fill="#F04D44" stroke="#6B6B6B" stroke-width="2" stroke-miterlimit="10" x1="228.726" y1="405.555" x2="164.476" y2="296.304"/>
	
		<line fill="#F04D44" stroke="#6B6B6B" stroke-width="2" stroke-miterlimit="10" x1="29.476" y1="547.555" x2="48.476" y2="560.555"/>
	
		<line fill="#F04D44" stroke="#6B6B6B" stroke-width="2" stroke-miterlimit="10" x1="48.476" y1="560.555" x2="23.476" y2="571.555"/>
	
		<line fill="#F04D44" stroke="#6B6B6B" stroke-width="2" stroke-miterlimit="10" x1="23.476" y1="571.555" x2="29.476" y2="547.555"/>
	
		<line fill="#F04D44" stroke="#6B6B6B" stroke-width="2" stroke-miterlimit="10" x1="343.223" y1="420.07" x2="426.729" y2="426.355"/>
</g>
<g id="edges">
	<line fill="#F04D44" stroke="#AFAFAF" stroke-miterlimit="10" x1="216.476" y1="345.055" x2="291.19" y2="296.554"/>
	<line fill="#F04D44" stroke="#AFAFAF" stroke-miterlimit="10" x1="216.476" y1="345.055" x2="167.476" y2="301.406"/>
	<line fill="#F04D44" stroke="#AFAFAF" stroke-miterlimit="10" x1="216.476" y1="345.055" x2="227.476" y2="398.555"/>
	<line fill="#F04D44" stroke="#AFAFAF" stroke-miterlimit="10" x1="275.476" y1="378.555" x2="291.19" y2="296.554"/>
	<line fill="#F04D44" stroke="#AFAFAF" stroke-miterlimit="10" x1="275.476" y1="378.555" x2="348.1" y2="405.555"/>
	<line fill="#F04D44" stroke="#AFAFAF" stroke-miterlimit="10" x1="275.476" y1="378.555" x2="228.726" y2="405.555"/>
	<line fill="#F04D44" stroke="#AFAFAF" stroke-miterlimit="10" x1="275.476" y1="451.555" x2="348.1" y2="405.555"/>
	<line fill="#F04D44" stroke="#AFAFAF" stroke-miterlimit="10" x1="275.476" y1="451.555" x2="228.726" y2="405.555"/>
	<line fill="#F04D44" stroke="#AFAFAF" stroke-miterlimit="10" x1="275.476" y1="451.555" x2="291.476" y2="508.555"/>
	<line fill="#F04D44" stroke="#AFAFAF" stroke-miterlimit="10" x1="331.476" y1="489.305" x2="343.223" y2="428.555"/>
	<line fill="#F04D44" stroke="#AFAFAF" stroke-miterlimit="10" x1="331.476" y1="489.305" x2="380.976" y2="505.555"/>
	<line fill="#F04D44" stroke="#AFAFAF" stroke-miterlimit="10" x1="331.476" y1="489.305" x2="296.476" y2="508.555"/>
	<line fill="#F04D44" stroke="#AFAFAF" stroke-miterlimit="10" x1="306.333" y1="564.055" x2="373.476" y2="514.555"/>
	<line fill="#F04D44" stroke="#AFAFAF" stroke-miterlimit="10" x1="306.333" y1="564.055" x2="258.976" y2="511.555"/>
	<line fill="#F04D44" stroke="#AFAFAF" stroke-miterlimit="10" x1="306.333" y1="564.055" x2="315.476" y2="619.555"/>
	<line fill="#F04D44" stroke="#AFAFAF" stroke-miterlimit="10" x1="375.724" y1="589.555" x2="386.976" y2="507.555"/>
	<line fill="#F04D44" stroke="#AFAFAF" stroke-miterlimit="10" x1="375.724" y1="589.555" x2="443.101" y2="610.555"/>
	<line fill="#F04D44" stroke="#AFAFAF" stroke-miterlimit="10" x1="375.724" y1="589.555" x2="320.476" y2="605.555"/>
	<line fill="#F04D44" stroke="#AFAFAF" stroke-miterlimit="10" x1="180.476" y1="571.555" x2="151.476" y2="599.555"/>
	<line fill="#F04D44" stroke="#AFAFAF" stroke-miterlimit="10" x1="151.476" y1="599.555" x2="123.476" y2="578.555"/>
	<line fill="#F04D44" stroke="#AFAFAF" stroke-miterlimit="10" x1="163.388" y1="631.102" x2="151.476" y2="599.555"/>
	<line fill="#F04D44" stroke="#AFAFAF" stroke-miterlimit="10" x1="163.388" y1="507.555" x2="177.618" y2="472.055"/>
	<line fill="#F04D44" stroke="#AFAFAF" stroke-miterlimit="10" x1="163.388" y1="507.555" x2="139.156" y2="507.555"/>
	<line fill="#F04D44" stroke="#AFAFAF" stroke-miterlimit="10" x1="163.388" y1="507.555" x2="182.726" y2="522.059"/>
	<line fill="#F04D44" stroke="#AFAFAF" stroke-miterlimit="10" x1="68.476" y1="480.055" x2="95.476" y2="441.555"/>
	<line fill="#F04D44" stroke="#AFAFAF" stroke-miterlimit="10" x1="68.476" y1="480.055" x2="92.476" y2="502.555"/>
	<line fill="#F04D44" stroke="#AFAFAF" stroke-miterlimit="10" x1="68.476" y1="480.055" x2="41.476" y2="472.055"/>
	<line fill="#F04D44" stroke="#AFAFAF" stroke-miterlimit="10" x1="29.476" y1="560.555" x2="48.476" y2="560.555"/>
	<line fill="#F04D44" stroke="#AFAFAF" stroke-miterlimit="10" x1="29.476" y1="560.555" x2="29.476" y2="547.555"/>
	<line fill="#F04D44" stroke="#AFAFAF" stroke-miterlimit="10" x1="29.476" y1="560.555" x2="23.476" y2="571.555"/>
	<line fill="#F04D44" stroke="#AFAFAF" stroke-miterlimit="10" x1="160.94" y1="386.912" x2="165.976" y2="354.174"/>
	<line fill="#F04D44" stroke="#AFAFAF" stroke-miterlimit="10" x1="160.94" y1="386.912" x2="192.476" y2="401.555"/>
	<line fill="#F04D44" stroke="#AFAFAF" stroke-miterlimit="10" x1="160.94" y1="386.912" x2="141.476" y2="394.555"/>
	<line fill="#F04D44" stroke="#AFAFAF" stroke-miterlimit="10" x1="173.057" y1="242.554" x2="179.476" y2="194.554"/>
	<line fill="#F04D44" stroke="#AFAFAF" stroke-miterlimit="10" x1="173.057" y1="242.554" x2="211.476" y2="251.304"/>
	<line fill="#F04D44" stroke="#AFAFAF" stroke-miterlimit="10" x1="173.057" y1="242.554" x2="149.476" y2="254.054"/>
	<line fill="#F04D44" stroke="#AFAFAF" stroke-miterlimit="10" x1="48.476" y1="273.054" x2="92.476" y2="263.554"/>
	<line fill="#F04D44" stroke="#AFAFAF" stroke-miterlimit="10" x1="48.476" y1="273.054" x2="31.226" y2="242.554"/>
	<line fill="#F04D44" stroke="#AFAFAF" stroke-miterlimit="10" x1="48.476" y1="273.054" x2="43.476" y2="303.554"/>
	<line fill="#F04D44" stroke="#AFAFAF" stroke-miterlimit="10" x1="311.788" y1="284.054" x2="358.476" y2="254.054"/>
	<line fill="#F04D44" stroke="#AFAFAF" stroke-miterlimit="10" x1="311.788" y1="284.054" x2="275.476" y2="254.054"/>
	<line fill="#F04D44" stroke="#AFAFAF" stroke-miterlimit="10" x1="311.788" y1="284.054" x2="320.476" y2="326.75"/>
	<line fill="#F04D44" stroke="#AFAFAF" stroke-miterlimit="10" x1="343.476" y1="320.804" x2="347.476" y2="284.054"/>
	<line fill="#F04D44" stroke="#AFAFAF" stroke-miterlimit="10" x1="343.476" y1="320.804" x2="375.724" y2="331.42"/>
	<line fill="#F04D44" stroke="#AFAFAF" stroke-miterlimit="10" x1="343.476" y1="320.804" x2="320.476" y2="326.75"/>
	<line fill="#F04D44" stroke="#AFAFAF" stroke-miterlimit="10" x1="345.476" y1="365.555" x2="383.694" y2="346.055"/>
	<line fill="#F04D44" stroke="#AFAFAF" stroke-miterlimit="10" x1="345.476" y1="365.555" x2="320.476" y2="340.055"/>
	<line fill="#F04D44" stroke="#AFAFAF" stroke-miterlimit="10" x1="345.476" y1="365.555" x2="353.085" y2="401.234"/>
	<line fill="#F04D44" stroke="#AFAFAF" stroke-miterlimit="10" x1="377.976" y1="407.555" x2="383.694" y2="348.055"/>
	<line fill="#F04D44" stroke="#AFAFAF" stroke-miterlimit="10" x1="377.976" y1="407.555" x2="426.729" y2="426.355"/>
	<line fill="#F04D44" stroke="#AFAFAF" stroke-miterlimit="10" x1="377.976" y1="407.555" x2="343.223" y2="420.07"/>
	<line fill="#F04D44" stroke="#AFAFAF" stroke-miterlimit="10" x1="375.724" y1="460.805" x2="343.223" y2="428.555"/>
	<line fill="#F04D44" stroke="#AFAFAF" stroke-miterlimit="10" x1="375.724" y1="460.805" x2="430.476" y2="431.154"/>
	<line fill="#F04D44" stroke="#AFAFAF" stroke-miterlimit="10" x1="375.724" y1="460.805" x2="380.835" y2="497.43"/>
	<line fill="#F04D44" stroke="#AFAFAF" stroke-miterlimit="10" x1="426.729" y1="548.555" x2="473.976" y2="513.555"/>
	<line fill="#F04D44" stroke="#AFAFAF" stroke-miterlimit="10" x1="426.729" y1="548.555" x2="391.476" y2="511.555"/>
	<line fill="#F04D44" stroke="#AFAFAF" stroke-miterlimit="10" x1="426.729" y1="548.555" x2="426.729" y2="582.518"/>
	<line fill="#F04D44" stroke="#AFAFAF" stroke-miterlimit="10" x1="252.101" y1="498.93" x2="254.476" y2="458.055"/>
	<line fill="#F04D44" stroke="#AFAFAF" stroke-miterlimit="10" x1="252.101" y1="498.93" x2="287.476" y2="508.555"/>
	<line fill="#F04D44" stroke="#AFAFAF" stroke-miterlimit="10" x1="252.101" y1="498.93" x2="227.476" y2="510.555"/>
	<line fill="#F04D44" stroke="#AFAFAF" stroke-miterlimit="10" x1="205.476" y1="489.305" x2="254.476" y2="458.055"/>
	<line fill="#F04D44" stroke="#AFAFAF" stroke-miterlimit="10" x1="205.476" y1="489.305" x2="176.267" y2="462.055"/>
	<line fill="#F04D44" stroke="#AFAFAF" stroke-miterlimit="10" x1="205.476" y1="489.305" x2="216.476" y2="536.555"/>
	<line fill="#F04D44" stroke="#AFAFAF" stroke-miterlimit="10" x1="418.476" y1="491.305" x2="380.976" y2="502.555"/>
	<line fill="#F04D44" stroke="#AFAFAF" stroke-miterlimit="10" x1="418.476" y1="491.305" x2="430.476" y2="431.154"/>
	<line fill="#F04D44" stroke="#AFAFAF" stroke-miterlimit="10" x1="418.476" y1="491.305" x2="468.476" y2="505.555"/>
	<line fill="#F04D44" stroke="#AFAFAF" stroke-miterlimit="10" x1="522.316" y1="554.055" x2="593.476" y2="507.555"/>
	<line fill="#F04D44" stroke="#AFAFAF" stroke-miterlimit="10" x1="522.316" y1="554.055" x2="528.476" y2="610.555"/>
	<line fill="#F04D44" stroke="#AFAFAF" stroke-miterlimit="10" x1="522.316" y1="554.055" x2="473.476" y2="508.555"/>
	<line fill="#F04D44" stroke="#AFAFAF" stroke-miterlimit="10" x1="715.476" y1="453.055" x2="783.28" y2="411.555"/>
	<line fill="#F04D44" stroke="#AFAFAF" stroke-miterlimit="10" x1="717.785" y1="456.805" x2="712.057" y2="507.555"/>
	<line fill="#F04D44" stroke="#AFAFAF" stroke-miterlimit="10" x1="717.785" y1="456.805" x2="660.28" y2="401.555"/>
	<line fill="#F04D44" stroke="#AFAFAF" stroke-miterlimit="10" x1="588.476" y1="445.98" x2="660.28" y2="401.555"/>
	<line fill="#F04D44" stroke="#AFAFAF" stroke-miterlimit="10" x1="588.476" y1="445.98" x2="532.476" y2="397.555"/>
	<line fill="#F04D44" stroke="#AFAFAF" stroke-miterlimit="10" x1="588.476" y1="445.98" x2="593.476" y2="502.555"/>
	<line fill="#F04D44" stroke="#AFAFAF" stroke-miterlimit="10" x1="522.316" y1="482.18" x2="531.476" y2="397.555"/>
	<line fill="#F04D44" stroke="#AFAFAF" stroke-miterlimit="10" x1="522.316" y1="482.18" x2="593.476" y2="502.555"/>
	<line fill="#F04D44" stroke="#AFAFAF" stroke-miterlimit="10" x1="522.316" y1="482.18" x2="468.476" y2="505.555"/>
	<line fill="#F04D44" stroke="#AFAFAF" stroke-miterlimit="10" x1="460.976" y1="438.305" x2="468.476" y2="505.555"/>
	<line fill="#F04D44" stroke="#AFAFAF" stroke-miterlimit="10" x1="460.854" y1="439.867" x2="530.476" y2="397.555"/>
	<line fill="#F04D44" stroke="#AFAFAF" stroke-miterlimit="10" x1="460.854" y1="439.867" x2="408.476" y2="391.555"/>
	<line fill="#F04D44" stroke="#AFAFAF" stroke-miterlimit="10" x1="460.854" y1="365.555" x2="531.476" y2="397.555"/>
	<line fill="#F04D44" stroke="#AFAFAF" stroke-miterlimit="10" x1="460.854" y1="365.555" x2="472.476" y2="290.554"/>
	<line fill="#F04D44" stroke="#AFAFAF" stroke-miterlimit="10" x1="460.854" y1="365.555" x2="411.338" y2="386.912"/>
	<line fill="#F04D44" stroke="#AFAFAF" stroke-miterlimit="10" x1="399.726" y1="328.055" x2="471.976" y2="288.554"/>
	<line fill="#F04D44" stroke="#AFAFAF" stroke-miterlimit="10" x1="399.726" y1="328.055" x2="352.085" y2="281.804"/>
	<line fill="#F04D44" stroke="#AFAFAF" stroke-miterlimit="10" x1="399.726" y1="328.055" x2="405.726" y2="386.506"/>
	<line fill="#F04D44" stroke="#AFAFAF" stroke-miterlimit="10" x1="411.338" y1="254.054" x2="475.476" y2="289.554"/>
	<line fill="#F04D44" stroke="#AFAFAF" stroke-miterlimit="10" x1="411.338" y1="254.054" x2="427.226" y2="183.554"/>
	<line fill="#F04D44" stroke="#AFAFAF" stroke-miterlimit="10" x1="411.338" y1="254.054" x2="358.476" y2="270.554"/>
	<line fill="#F04D44" stroke="#AFAFAF" stroke-miterlimit="10" x1="373.476" y1="198.054" x2="430.476" y2="177.555"/>
	<line fill="#F04D44" stroke="#AFAFAF" stroke-miterlimit="10" x1="373.476" y1="198.054" x2="342.476" y2="158.555"/>
	<line fill="#F04D44" stroke="#AFAFAF" stroke-miterlimit="10" x1="373.476" y1="198.054" x2="373.476" y2="244.054"/>
	<line fill="#F04D44" stroke="#AFAFAF" stroke-miterlimit="10" x1="478.476" y1="242.554" x2="528.476" y2="222.929"/>
	<line fill="#F04D44" stroke="#AFAFAF" stroke-miterlimit="10" x1="478.476" y1="242.554" x2="447.476" y2="199.554"/>
	<line fill="#F04D44" stroke="#AFAFAF" stroke-miterlimit="10" x1="478.476" y1="242.554" x2="475.476" y2="289.554"/>
	<line fill="#F04D44" stroke="#AFAFAF" stroke-miterlimit="10" x1="515.476" y1="273.054" x2="522.316" y2="233.554"/>
	<line fill="#F04D44" stroke="#AFAFAF" stroke-miterlimit="10" x1="515.476" y1="273.054" x2="546.476" y2="288.304"/>
	<line fill="#F04D44" stroke="#AFAFAF" stroke-miterlimit="10" x1="515.476" y1="273.054" x2="490.476" y2="284.054"/>
	<line fill="#F04D44" stroke="#AFAFAF" stroke-miterlimit="10" x1="526.896" y1="331.42" x2="596.913" y2="288.554"/>
	<line fill="#F04D44" stroke="#AFAFAF" stroke-miterlimit="10" x1="526.896" y1="331.42" x2="472.476" y2="290.554"/>
	<line fill="#F04D44" stroke="#AFAFAF" stroke-miterlimit="10" x1="526.896" y1="331.42" x2="534.226" y2="391.555"/>
	<line fill="#F04D44" stroke="#AFAFAF" stroke-miterlimit="10" x1="588.476" y1="371.805" x2="596.874" y2="295.304"/>
	<line fill="#F04D44" stroke="#AFAFAF" stroke-miterlimit="10" x1="588.476" y1="371.805" x2="660.28" y2="401.555"/>
	<line fill="#F04D44" stroke="#AFAFAF" stroke-miterlimit="10" x1="588.476" y1="371.805" x2="535.476" y2="391.555"/>
	<line fill="#F04D44" stroke="#AFAFAF" stroke-miterlimit="10" x1="356.226" y1="80.555" x2="332.351" y2="13.555"/>
	<line fill="#F04D44" stroke="#AFAFAF" stroke-miterlimit="10" x1="356.226" y1="80.555" x2="434.665" y2="70.055"/>
	<line fill="#F04D44" stroke="#AFAFAF" stroke-miterlimit="10" x1="356.226" y1="80.555" x2="337.226" y2="134.555"/>
	<line fill="#F04D44" stroke="#AFAFAF" stroke-miterlimit="10" x1="402.353" y1="139.555" x2="440.976" y2="67.993"/>
	<line fill="#F04D44" stroke="#AFAFAF" stroke-miterlimit="10" x1="402.353" y1="139.555" x2="447.476" y2="187.554"/>
	<line fill="#F04D44" stroke="#AFAFAF" stroke-miterlimit="10" x1="402.353" y1="139.555" x2="348.78" y2="136.555"/>
	<line fill="#F04D44" stroke="#AFAFAF" stroke-miterlimit="10" x1="490.476" y1="194.554" x2="503.476" y2="139.555"/>
	<line fill="#F04D44" stroke="#AFAFAF" stroke-miterlimit="10" x1="492.071" y1="187.804" x2="533.476" y2="219.554"/>
	<line fill="#F04D44" stroke="#AFAFAF" stroke-miterlimit="10" x1="492.071" y1="187.804" x2="447.476" y2="199.554"/>
	<line fill="#F04D44" stroke="#AFAFAF" stroke-miterlimit="10" x1="567.804" y1="216.054" x2="583.636" y2="183.554"/>
	<line fill="#F04D44" stroke="#AFAFAF" stroke-miterlimit="10" x1="567.804" y1="216.054" x2="596.913" y2="244.054"/>
	<line fill="#F04D44" stroke="#AFAFAF" stroke-miterlimit="10" x1="567.804" y1="216.054" x2="543.893" y2="218.554"/>
	<line fill="#F04D44" stroke="#AFAFAF" stroke-miterlimit="10" x1="657.349" y1="338.055" x2="723.28" y2="293.554"/>
	<line fill="#F04D44" stroke="#AFAFAF" stroke-miterlimit="10" x1="657.349" y1="338.055" x2="596.913" y2="293.554"/>
	<line fill="#F04D44" stroke="#AFAFAF" stroke-miterlimit="10" x1="657.349" y1="338.055" x2="657.349" y2="397.555"/>
	<line fill="#F04D44" stroke="#AFAFAF" stroke-miterlimit="10" x1="717.785" y1="381.555" x2="727.476" y2="298.554"/>
	<line fill="#F04D44" stroke="#AFAFAF" stroke-miterlimit="10" x1="717.785" y1="381.555" x2="776.476" y2="409.555"/>
	<line fill="#F04D44" stroke="#AFAFAF" stroke-miterlimit="10" x1="717.785" y1="381.555" x2="658.349" y2="398.555"/>
	<line fill="#F04D44" stroke="#AFAFAF" stroke-miterlimit="10" x1="466.665" y1="147.055" x2="506.976" y2="134.555"/>
	<line fill="#F04D44" stroke="#AFAFAF" stroke-miterlimit="10" x1="466.665" y1="147.055" x2="447.476" y2="125.555"/>
	<line fill="#F04D44" stroke="#AFAFAF" stroke-miterlimit="10" x1="466.665" y1="147.055" x2="464.476" y2="177.555"/>
	<line fill="#F04D44" stroke="#AFAFAF" stroke-miterlimit="10" x1="29.476" y1="386.506" x2="29.476" y2="365.555"/>
	<line fill="#F04D44" stroke="#AFAFAF" stroke-miterlimit="10" x1="29.476" y1="386.506" x2="48.476" y2="391.555"/>
	<line fill="#F04D44" stroke="#AFAFAF" stroke-miterlimit="10" x1="29.476" y1="386.506" x2="17.476" y2="391.555"/>
	<line fill="#F04D44" stroke="#AFAFAF" stroke-miterlimit="10" x1="660.28" y1="264.304" x2="720.273" y2="288.304"/>
	<line fill="#F04D44" stroke="#AFAFAF" stroke-miterlimit="10" x1="660.28" y1="264.304" x2="660.28" y2="183.554"/>
	<line fill="#F04D44" stroke="#AFAFAF" stroke-miterlimit="10" x1="660.28" y1="264.304" x2="598.913" y2="289.554"/>
	<line fill="#F04D44" stroke="#AFAFAF" stroke-miterlimit="10" x1="722.63" y1="222.929" x2="781.28" y2="183.554"/>
	<line fill="#F04D44" stroke="#AFAFAF" stroke-miterlimit="10" x1="722.63" y1="222.929" x2="660.28" y2="183.554"/>
	<line fill="#F04D44" stroke="#AFAFAF" stroke-miterlimit="10" x1="722.63" y1="222.929" x2="727.476" y2="293.554"/>
	<line fill="#F04D44" stroke="#AFAFAF" stroke-miterlimit="10" x1="781.92" y1="293.554" x2="830.476" y2="261.804"/>
	<line fill="#F04D44" stroke="#AFAFAF" stroke-miterlimit="10" x1="781.92" y1="293.554" x2="740.85" y2="261.054"/>
	<line fill="#F04D44" stroke="#AFAFAF" stroke-miterlimit="10" x1="781.92" y1="293.554" x2="781.92" y2="335.555"/>
	<line fill="#F04D44" stroke="#AFAFAF" stroke-miterlimit="10" x1="862.976" y1="335.055" x2="847.226" y2="298.554"/>
	<line fill="#F04D44" stroke="#AFAFAF" stroke-miterlimit="10" x1="862.976" y1="335.055" x2="902.476" y2="340.055"/>
	<line fill="#F04D44" stroke="#AFAFAF" stroke-miterlimit="10" x1="862.976" y1="335.055" x2="838.976" y2="357.555"/>
	<line fill="#F04D44" stroke="#AFAFAF" stroke-miterlimit="10" x1="828.476" y1="212.054" x2="789.476" y2="177.055"/>
	<line fill="#F04D44" stroke="#AFAFAF" stroke-miterlimit="10" x1="828.476" y1="212.054" x2="879.476" y2="187.554"/>
	<line fill="#F04D44" stroke="#AFAFAF" stroke-miterlimit="10" x1="828.476" y1="212.054" x2="823.476" y2="253.054"/>
	<line fill="#F04D44" stroke="#AFAFAF" stroke-miterlimit="10" x1="836.976" y1="161.055" x2="846.476" y2="106.555"/>
	<line fill="#F04D44" stroke="#AFAFAF" stroke-miterlimit="10" x1="836.976" y1="161.055" x2="870.226" y2="183.554"/>
	<line fill="#F04D44" stroke="#AFAFAF" stroke-miterlimit="10" x1="836.976" y1="161.055" x2="794.476" y2="172.555"/>
	<line fill="#F04D44" stroke="#AFAFAF" stroke-miterlimit="10" x1="908.476" y1="133.805" x2="939.476" y2="117.555"/>
	<line fill="#F04D44" stroke="#AFAFAF" stroke-miterlimit="10" x1="908.476" y1="133.805" x2="889.476" y2="112.555"/>
	<line fill="#F04D44" stroke="#AFAFAF" stroke-miterlimit="10" x1="908.476" y1="129.555" x2="905.476" y2="160.555"/>
	<line fill="#F04D44" stroke="#AFAFAF" stroke-miterlimit="10" x1="967.476" y1="172.305" x2="999.476" y2="157.555"/>
	<line fill="#F04D44" stroke="#AFAFAF" stroke-miterlimit="10" x1="973.976" y1="172.555" x2="948.476" y2="156.055"/>
	<line fill="#F04D44" stroke="#AFAFAF" stroke-miterlimit="10" x1="973.976" y1="172.555" x2="965.476" y2="193.679"/>
	<line fill="#F04D44" stroke="#AFAFAF" stroke-miterlimit="10" x1="963.476" y1="238.554" x2="965.476" y2="199.554"/>
	<line fill="#F04D44" stroke="#AFAFAF" stroke-miterlimit="10" x1="963.476" y1="238.554" x2="934.476" y2="248.554"/>
	<line fill="#F04D44" stroke="#AFAFAF" stroke-miterlimit="10" x1="963.476" y1="238.554" x2="995.476" y2="253.054"/>
	<line fill="#F04D44" stroke="#AFAFAF" stroke-miterlimit="10" x1="962.476" y1="276.304" x2="993.476" y2="256.054"/>
	<line fill="#F04D44" stroke="#AFAFAF" stroke-miterlimit="10" x1="962.476" y1="276.304" x2="929.476" y2="253.054"/>
	<line fill="#F04D44" stroke="#AFAFAF" stroke-miterlimit="10" x1="962.476" y1="276.304" x2="962.476" y2="307.554"/>
	<line fill="#F04D44" stroke="#AFAFAF" stroke-miterlimit="10" x1="870.226" y1="246.929" x2="879.476" y2="194.554"/>
	<line fill="#F04D44" stroke="#AFAFAF" stroke-miterlimit="10" x1="870.226" y1="246.929" x2="830.476" y2="261.804"/>
	<line fill="#F04D44" stroke="#AFAFAF" stroke-miterlimit="10" x1="870.226" y1="246.929" x2="916.476" y2="266.804"/>
	<line fill="#F04D44" stroke="#AFAFAF" stroke-miterlimit="10" x1="786.28" y1="242.554" x2="786.28" y2="183.554"/>
	<line fill="#F04D44" stroke="#AFAFAF" stroke-miterlimit="10" x1="786.28" y1="242.554" x2="830.476" y2="261.804"/>
	<line fill="#F04D44" stroke="#AFAFAF" stroke-miterlimit="10" x1="786.28" y1="242.554" x2="740.85" y2="261.054"/>
</g>
</svg>
