<?xml version="1.0" standalone="no"?>
<!DOCTYPE svg PUBLIC "-//W3C//DTD SVG 1.1//EN" 
"http://www.w3.org/Graphics/SVG/1.1/DTD/svg11.dtd">

<svg viewBox = "0 0 1 1" version="1.1" xmlns="http://www.w3.org/2000/svg">
 <rect x="0" y="0" width="1" height="1" stroke="none" fill="#00317E"/>
<polygon points="463.0000 6.0000 448.2000 241.0000"/> <polygon points="341.4000 237.0000 357.8000 4.3000"/> <polygon points="692.4000 66.6000 687.9000 151.9000"/> <polygon points="455.1000 141.2000 464.1000 59.6000"/> <polygon points="910.0000 296.1000 907.0000 530.6000"/> <polygon points="671.9000 511.9000 672.2000 282.3000"/> <polygon points="798.9000 525.2000 792.7000 656.8000"/> <polygon points="664.9000 642.6000 672.3000 514.7000"/> <polygon points="482.1000 500.3000 472.0000 754.8000"/> <polygon points="328.2000 732.5000 349.2000 487.0000"/> <polygon points="477.5000 81.4000 465.0000 279.0000"/> <polygon points="352.4000 274.2000 367.6000 78.7000"/> <polygon points="805.3000 155.3000 799.5000 353.1000"/> <polygon points="461.4000 329.1000 477.0000 143.0000"/> <polygon points="741.7000 350.7000 739.0000 447.6000"/> <polygon points="612.6000 439.0000 617.9000 342.8000"/> <polygon points="659.9000 444.8000 654.8000 579.2000"/> <polygon points="356.6000 547.3000 364.2000 420.5000"/> <polygon points="729.1000 588.6000 722.6000 725.8000"/> <polygon points="414.8000 689.6000 424.0000 555.5000"/> <polygon points="214.2000 296.9000 196.0000 511.0000"/> <polygon points="96.7000 498.7000 116.0000 288.0000"/> <polygon points="294.0000 177.0000 275.0000 394.0000"/> <polygon points="169.0000 383.0000 190.0000 172.0000"/> <polygon points="604.0000 342.0000 594.0000 509.0000"/> <polygon points="273.0000 477.0000 284.0000 320.0000"/> <polygon points="699.0000 213.0000 691.0000 343.0000"/> <polygon points="390.0000 324.0000 399.0000 198.0000"/> <polygon points="554.0000 290.0000 549.0000 425.0000"/> <polygon points="248.0000 398.0000 264.0000 271.0000"/> </svg>