<?xml version="1.0" standalone="no"?>
<!DOCTYPE svg PUBLIC "-//W3C//DTD SVG 1.1//EN" 
"http://www.w3.org/Graphics/SVG/1.1/DTD/svg11.dtd">

<svg viewBox = "0 0 1 1" version="1.1" xmlns="http://www.w3.org/2000/svg">
 <rect x="0" y="0" width="1" height="1" stroke="none" fill="#00317E"/>
<polygon points="183.2283 136.8881 258.2140 134.5758"/> <polygon points="285.2832 270.1447 217.8705 270.2173"/> <polygon points="273.8240 120.2439 346.3431 116.9621"/> <polygon points="364.3083 232.5111 293.5918 231.4614"/> <polygon points="423.8086 197.4272 557.8753 317.4977"/> <polygon points="506.6542 372.8027 372.8359 255.7420"/> <polygon points="369.5549 200.5881 452.0874 200.4384"/> <polygon points="472.1388 248.2184 392.4305 248.0910"/> <polygon points="334.2240 8.3439 449.1431 -33.6379"/> <polygon points="447.5083 121.8111 330.4918 135.2614"/> <polygon points="637.1353 141.3677 645.0731 246.2230"/> <polygon points="570.6142 293.9643 563.1115 208.1673"/> <polygon points="449.1241 -15.6897 578.7920 17.0186"/> <polygon points="577.8031 136.2857 447.6255 122.2484"/> <polygon points="440.5954 409.7213 439.5940 313.5520"/> <polygon points="490.6631 359.6332 489.6617 417.7354"/> </svg>