<?xml version="1.0" standalone="no"?>
<!DOCTYPE svg PUBLIC "-//W3C//DTD SVG 1.1//EN" 
"http://www.w3.org/Graphics/SVG/1.1/DTD/svg11.dtd">

<svg viewBox = "0 0 1 1" version="1.1" xmlns="http://www.w3.org/2000/svg">
 <rect x="0" y="0" width="1" height="1" stroke="none" fill="#00317E"/>
<polygon points="106.0000 331.6000 186.8000 352.0000"/> <polygon points="195.1000 408.1000 57.5000 351.0000"/> <polygon points="354.4000 337.3000 417.0000 339.0000"/> <polygon points="422.0000 443.0000 289.0000 420.0000"/> <polygon points="502.0000 299.0000 526.0000 279.0000"/> <polygon points="592.0000 372.0000 545.0000 390.0000"/> <polygon points="261.0000 135.0000 397.0000 112.0000"/> <polygon points="436.0000 167.0000 262.0000 187.0000"/> <polygon points="578.0000 246.0000 590.0000 45.0000"/> <polygon points="542.0000 44.0000 527.0000 225.0000"/> <polygon points="120.0000 284.0000 261.0000 303.0000"/> <polygon points="255.0000 263.0000 83.0000 229.0000"/> <polygon points="319.0000 228.0000 412.0000 245.0000"/> <polygon points="409.0000 291.0000 306.0000 259.0000"/> <polygon points="171.0000 181.0000 131.0000 65.0000"/> <polygon points="185.0000 63.0000 216.0000 179.0000"/> <polygon points="207.0000 60.0000 336.0000 25.0000"/> <polygon points="366.0000 69.0000 226.0000 106.0000"/> <polygon points="481.0000 250.0000 456.0000 20.0000"/> <polygon points="428.0000 29.0000 461.0000 237.0000"/> <polygon points="486.0000 435.0000 447.0000 286.0000"/> <polygon points="424.0000 293.0000 457.0000 432.0000"/> <polygon points="89.0000 327.0000 28.0000 207.0000"/> <polygon points="51.0000 174.0000 135.0000 320.0000"/> <polygon points="182.0000 348.0000 258.0000 308.0000"/> <polygon points="120.0000 287.0000 153.0000 321.0000"/> <polygon points="288.0000 415.0000 270.0000 307.0000"/> <polygon points="188.0000 352.0000 196.0000 408.0000"/> <polygon points="271.0000 306.0000 273.0000 302.0000"/> <polygon points="356.0000 338.0000 288.0000 412.0000"/> <polygon points="316.0000 227.0000 309.0000 184.0000"/> <polygon points="261.0000 189.0000 265.0000 304.0000"/> <polygon points="545.0000 389.0000 501.0000 299.0000"/> <polygon points="450.0000 286.0000 488.0000 433.0000"/> <polygon points="499.0000 298.0000 525.0000 277.0000"/> <polygon points="478.0000 252.0000 450.0000 286.0000"/> <polygon points="592.0000 370.0000 663.0000 352.0000"/> <polygon points="625.0000 260.0000 526.0000 278.0000"/> <polygon points="577.0000 246.0000 525.0000 278.0000"/> <polygon points="476.0000 252.0000 525.0000 226.0000"/> <polygon points="456.0000 20.0000 542.0000 44.0000"/> <polygon points="526.0000 225.0000 480.0000 248.0000"/> <polygon points="412.0000 243.0000 434.0000 168.0000"/> <polygon points="311.0000 183.0000 318.0000 226.0000"/> <polygon points="476.0000 249.0000 413.0000 244.0000"/> <polygon points="409.0000 296.0000 448.0000 286.0000"/> <polygon points="435.0000 168.0000 446.0000 144.0000"/> <polygon points="462.0000 246.0000 415.0000 242.0000"/> <polygon points="295.0000 258.0000 407.0000 293.0000"/> <polygon points="355.0000 335.0000 271.0000 298.0000"/> <polygon points="435.0000 338.0000 423.0000 293.0000"/> <polygon points="407.0000 296.0000 355.0000 334.0000"/> <polygon points="217.0000 178.0000 170.0000 180.0000"/> <polygon points="83.0000 226.0000 262.0000 262.0000"/> <polygon points="218.0000 176.0000 260.0000 137.0000"/> <polygon points="261.0000 188.0000 262.0000 256.0000"/> <polygon points="227.0000 104.0000 204.0000 59.0000"/> <polygon points="186.0000 65.0000 215.0000 173.0000"/> <polygon points="260.0000 134.0000 291.0000 89.0000"/> <polygon points="227.0000 105.0000 217.0000 175.0000"/> <polygon points="440.0000 107.0000 431.0000 58.0000"/> <polygon points="292.0000 89.0000 264.0000 132.0000"/> <polygon points="402.0000 115.0000 438.0000 107.0000"/> <polygon points="445.0000 142.0000 435.0000 163.0000"/> <polygon points="456.0000 432.0000 435.0000 338.0000"/> <polygon points="418.0000 339.0000 423.0000 444.0000"/> <polygon points="431.0000 57.0000 369.0000 69.0000"/> <polygon points="337.0000 24.0000 426.0000 29.0000"/> <polygon points="169.0000 180.0000 159.0000 151.0000"/> <polygon points="51.0000 173.0000 83.0000 225.0000"/> <polygon points="88.0000 326.0000 90.0000 339.0000"/> <polygon points="58.0000 351.0000 27.0000 208.0000"/> <polygon points="621.0000 229.0000 622.0000 260.0000"/> <polygon points="525.0000 275.0000 579.0000 244.0000"/> <polygon points="650.0000 185.0000 589.0000 46.0000"/> <polygon points="578.0000 246.0000 620.0000 229.0000"/> <polygon points="141.0000 313.0000 170.0000 335.0000"/> <polygon points="188.0000 352.0000 94.0000 328.0000"/> </svg>